<?xml version="1.0" standalone="no"?>
<!DOCTYPE svg PUBLIC "-//W3C//DTD SVG 1.1//EN" "http://www.w3.org/Graphics/SVG/1.1/DTD/svg11.dtd" >
<svg>
<metadata>
Created by FontForge 20100429 at Tue Sep  3 19:08:46 2013
 By ,,,
Copyright (c) 2013, Metaflop (http://www.metaflop.com), Simon Egli, Marco Mueller, Alexis Reigel, with Reserved Font Name Bespoke. Dual licensed under the GPL v3 (http://www.gnu.org/copyleft/gpl.html) and the OFL v1.1 (http://scripts.sil.org/OFL_web).
</metadata>
<defs>
<font id="Bespoke-KscartN4qw" horiz-adv-x="674" >
  <font-face 
    font-family="Bespoke"
    font-weight="400"
    font-stretch="normal"
    units-per-em="1000"
    panose-1="2 0 5 3 0 0 0 0 0 0"
    ascent="800"
    descent="-200"
    x-height="686"
    cap-height="980"
    bbox="30 -468 986 1028"
    underline-thickness="50"
    underline-position="-100"
    unicode-range="U+0020-00D1"
  />
    <missing-glyph />
    <glyph glyph-name="space" unicode=" " horiz-adv-x="862" 
 />
    <glyph glyph-name="exclam" unicode="!" horiz-adv-x="195" 
d="M32 65c0 40 26 66 66 66c41 0 65 -26 65 -66c0 -39 -25 -65 -65 -65s-66 26 -66 65zM51 327v653h94v-653h-94z" />
    <glyph glyph-name="ampersand" unicode="&#x26;" horiz-adv-x="892" 
d="M159 502c-70 46 -108 127 -108 215v7c0 74 15 149 64 203c45 51 114 71 182 71h102c68 0 137 -20 182 -71c23 -25 39 -55 49 -86c0 -1 -92 -29 -92 -29c-21 56 -73 93 -139 93h-102c-43 0 -85 -14 -113 -47c-31 -37 -39 -86 -39 -134v-7c0 -53 23 -103 66 -134
c54 -38 122 -47 188 -47h395v-93h-148v-187c0 -74 -15 -149 -65 -203c-45 -51 -114 -71 -182 -71h-102c-68 0 -137 20 -182 71c-49 54 -64 129 -64 203v7c0 97 33 194 108 239zM552 256v187h-255c-43 0 -85 -14 -113 -46c-31 -37 -39 -86 -39 -134v-7c0 -48 8 -97 39 -134
c28 -33 70 -47 113 -47h102c43 0 85 14 113 47c31 37 40 86 40 134z" />
    <glyph glyph-name="plus" unicode="+" 
d="M98 296v93h192v204h94v-204h193v-93h-193v-203h-94v203h-192z" />
    <glyph glyph-name="comma" unicode="," horiz-adv-x="195" 
d="M51 162h94v-297h-94v297z" />
    <glyph glyph-name="hyphen" unicode="-" horiz-adv-x="493" 
d="M98 502v93h297v-93h-297z" />
    <glyph glyph-name="period" unicode="." horiz-adv-x="195" 
d="M32 65c0 40 26 66 66 66c41 0 65 -26 65 -66c0 -39 -25 -65 -65 -65s-66 26 -66 65z" />
    <glyph glyph-name="zero" unicode="0" horiz-adv-x="747" 
d="M431 905h-115c-59 0 -103 -49 -127 -106c-40 -94 -44 -198 -44 -301v-16c0 -103 4 -207 44 -301c24 -57 68 -106 127 -106h115c59 0 103 49 126 106c40 94 45 198 45 301v16c0 103 -5 207 -45 301c-23 57 -67 106 -126 106zM431 998c84 0 156 -55 196 -130
c60 -112 69 -242 69 -370v-16c0 -128 -9 -258 -69 -370c-40 -75 -112 -130 -196 -130h-115c-84 0 -156 55 -196 130c-60 112 -69 242 -69 370v16c0 128 9 258 69 370c40 75 112 130 196 130h115z" />
    <glyph glyph-name="one" unicode="1" horiz-adv-x="602" 
d="M254 0v772l-93 -135h-110l236 343h61v-980h-94z" />
    <glyph glyph-name="two" unicode="2" 
d="M289 905c-60 0 -112 -35 -130 -89c0 0 -93 24 -93 25c10 31 25 61 47 86c43 50 110 71 176 71h96c67 0 133 -21 177 -71c47 -55 61 -130 61 -203v-7c0 -73 -14 -147 -61 -202c-44 -50 -110 -72 -177 -72h-96c-44 0 -84 -24 -107 -62c-32 -53 -37 -116 -37 -178v-110h478
v-93h-572v203c0 87 11 176 62 247c40 56 107 86 176 86h96c41 0 82 16 107 47c30 38 38 86 38 134v7c0 48 -8 97 -38 134c-25 32 -66 47 -107 47h-96z" />
    <glyph glyph-name="three" unicode="3" 
d="M289 905c-60 0 -112 -35 -130 -89c0 0 -93 24 -93 25c10 31 25 61 47 86c43 50 110 71 176 71h96c67 0 133 -21 177 -71c47 -55 61 -130 61 -203v-7c0 -87 -25 -178 -88 -227c63 -48 88 -140 88 -227v-7c0 -73 -14 -148 -61 -203c-44 -50 -110 -71 -177 -71h-96
c-66 0 -133 21 -176 71c-22 25 -37 55 -47 86c0 1 91 28 91 28c20 -54 68 -92 132 -92h96c41 0 82 15 107 47c30 37 38 86 38 134v7c0 48 -8 96 -38 134c-25 31 -66 46 -107 46h-82v93h82c41 0 82 16 107 47c30 38 38 86 38 134v7c0 48 -8 97 -38 134c-25 32 -66 47 -107 47
h-96z" />
    <glyph glyph-name="four" unicode="4" 
d="M485 345v-345h-94v345h-340v61c0 1 373 574 373 574h61v-542h138v-93h-138zM391 438v334s-217 -333 -217 -334h217z" />
    <glyph glyph-name="five" unicode="5" 
d="M530 313c0 105 -34 229 -145 229h-96c-40 0 -78 -20 -102 -52l-85 46c2 2 3 5 5 7v437h470v-93h-376v-269c27 11 57 17 88 17h96c69 0 136 -29 177 -84c50 -68 61 -154 61 -238v-9c0 -85 -11 -171 -61 -238c-41 -56 -108 -84 -177 -84h-96c-69 0 -135 28 -176 84
c-21 27 -35 58 -44 91l91 26c17 -58 64 -108 129 -108h96c112 0 145 123 145 229v9z" />
    <glyph glyph-name="six" unicode="6" 
d="M289 905c-118 0 -144 -153 -144 -265v-55c40 33 91 50 144 50h96c69 0 136 -29 177 -84c50 -68 61 -154 61 -238v-9c0 -85 -11 -171 -61 -238c-41 -56 -108 -84 -177 -84h-96c-69 0 -135 28 -176 84c-50 67 -62 153 -62 238v336c0 93 10 188 62 265c39 59 105 93 176 93
h96c71 0 137 -34 177 -93c10 -15 18 -31 25 -47l-87 -38c-19 47 -63 85 -115 85h-96zM289 542c-111 0 -144 -123 -144 -229v-9c0 -59 6 -120 37 -170c23 -36 64 -59 107 -59h96c112 0 145 123 145 229v9c0 105 -34 229 -145 229h-96z" />
    <glyph glyph-name="seven" unicode="7" horiz-adv-x="602" 
d="M51 887v93h500v-61l-399 -919h-101l385 887h-385z" />
    <glyph glyph-name="eight" unicode="8" 
d="M385 905h-96c-40 0 -81 -13 -107 -44c-29 -34 -37 -80 -37 -125v-6c0 -45 8 -91 37 -125c26 -31 67 -44 107 -44h96c41 0 81 13 107 44c29 34 38 80 38 125v6c0 45 -9 91 -38 125c-26 31 -66 44 -107 44zM139 512c-63 47 -88 133 -88 218v6c0 71 14 142 62 194
c44 49 110 68 176 68h96c66 0 132 -19 177 -68c47 -52 61 -123 61 -194v-6c0 -85 -25 -172 -87 -218c64 -51 87 -147 87 -237v-7c0 -76 -13 -154 -61 -212c-43 -51 -110 -74 -177 -74h-96c-67 0 -133 23 -176 74c-49 58 -62 136 -62 212v7c0 90 23 185 88 237zM289 468
c-42 0 -82 -17 -107 -50c-30 -40 -37 -92 -37 -143v-7c0 -51 7 -103 37 -143c25 -33 65 -50 107 -50h96c42 0 82 17 107 50c30 40 38 92 38 143v7c0 51 -8 103 -38 143c-25 33 -65 50 -107 50h-96z" />
    <glyph glyph-name="nine" unicode="9" 
d="M385 75c118 0 145 153 145 265v55c-40 -33 -92 -50 -145 -50h-96c-69 0 -135 29 -176 84c-50 68 -62 154 -62 238v9c0 85 12 171 62 238c41 56 107 84 176 84h96c69 0 136 -28 177 -84c50 -67 61 -153 61 -238v-336c0 -93 -10 -188 -61 -265c-40 -59 -106 -93 -177 -93
h-96c-94 0 -167 60 -202 140l87 38c3 -5 5 -11 8 -16c22 -40 62 -69 107 -69h96zM385 438c111 0 145 124 145 229v9c0 106 -33 229 -145 229h-96c-43 0 -84 -23 -107 -59c-31 -50 -37 -111 -37 -170v-9c0 -106 33 -229 144 -229h96z" />
    <glyph glyph-name="colon" unicode=":" horiz-adv-x="195" 
d="M32 621c0 39 26 65 66 65s65 -26 65 -65c0 -40 -24 -66 -65 -66c-40 0 -66 26 -66 66zM32 65c0 40 26 66 66 66c41 0 65 -26 65 -66c0 -39 -25 -65 -65 -65s-66 26 -66 65z" />
    <glyph glyph-name="semicolon" unicode=";" horiz-adv-x="195" 
d="M32 621c0 39 26 65 66 65s65 -26 65 -65c0 -40 -24 -66 -65 -66c-40 0 -66 26 -66 66zM51 162h94v-297h-94v297z" />
    <glyph glyph-name="A" unicode="A" horiz-adv-x="819" 
d="M51 0l328 980h61s329 -980 328 -980h-96l-116 346h-294l-116 -346h-95zM293 439h232l-116 345z" />
    <glyph glyph-name="B" unicode="B" 
d="M538 512c63 -50 85 -141 85 -228v-7c0 -74 -13 -149 -61 -205c-44 -50 -110 -72 -177 -72h-334v980h334c66 0 132 -18 177 -66c46 -49 61 -119 61 -187v-6c0 -82 -25 -165 -85 -209zM385 561c40 0 80 12 107 42c29 31 38 75 38 118v6c0 43 -9 87 -38 118
c-27 30 -67 42 -107 42h-240v-326h240zM385 468h-240v-375h240c41 0 82 15 107 48c30 38 38 87 38 136v7c0 49 -8 98 -38 136c-25 32 -66 48 -107 48z" />
    <glyph glyph-name="C" unicode="C" horiz-adv-x="892" 
d="M808 760l-90 -29c-8 23 -17 46 -30 68c-34 62 -96 106 -167 106h-150c-71 0 -133 -44 -168 -106c-50 -91 -58 -197 -58 -301v-16c0 -104 8 -210 58 -301c35 -62 97 -106 168 -106h150c71 0 133 44 167 106c13 22 22 45 30 68l90 -29c-12 -38 -28 -74 -50 -108
c-52 -81 -141 -130 -237 -130h-150c-96 0 -185 49 -237 130c-70 109 -83 241 -83 370v16c0 129 13 261 83 370c52 81 141 130 237 130h150c96 0 185 -49 237 -130c22 -34 38 -70 50 -108z" />
    <glyph glyph-name="D" unicode="D" horiz-adv-x="783" 
d="M51 0v980h310c106 0 210 -41 275 -125c77 -101 96 -230 96 -357v-16c0 -127 -19 -256 -96 -357c-65 -84 -169 -125 -275 -125h-310zM145 887v-794h216c81 0 158 35 205 101c59 83 72 187 72 288v16c0 101 -13 205 -72 288c-47 66 -124 101 -205 101h-216z" />
    <glyph glyph-name="E" unicode="E" 
d="M51 0v980h572v-93h-478v-351h432v-93h-432v-350h478v-93h-572z" />
    <glyph glyph-name="F" unicode="F" 
d="M51 0v980h572v-93h-478v-351h432v-93h-432v-443h-94z" />
    <glyph glyph-name="G" unicode="G" horiz-adv-x="892" 
d="M790 808l-87 -38c-5 10 -9 20 -15 29c-34 62 -96 106 -167 106h-150c-71 0 -133 -44 -168 -106c-50 -91 -58 -197 -58 -301v-16c0 -104 8 -210 58 -301c35 -62 97 -106 168 -106h150c154 0 213 177 223 322h-209v93h306v-490h-94v96c-53 -71 -136 -114 -226 -114h-150
c-96 0 -185 49 -237 130c-70 109 -83 241 -83 370v16c0 129 13 261 83 370c52 81 141 130 237 130h150c96 0 185 -49 237 -130c12 -19 23 -39 32 -60z" />
    <glyph glyph-name="H" unicode="H" horiz-adv-x="747" 
d="M696 0h-94v443h-457v-443h-94v980h94v-444h457v444h94v-980z" />
    <glyph glyph-name="I" unicode="I" horiz-adv-x="195" 
d="M51 0v980h94v-980h-94z" />
    <glyph glyph-name="J" unicode="J" 
d="M385 75c118 0 145 155 145 266v639h93v-639c0 -93 -10 -188 -61 -266c-40 -59 -106 -93 -177 -93h-96c-71 0 -137 34 -176 93c-20 30 -34 63 -43 97l91 25c17 -62 60 -122 128 -122h96z" />
    <glyph glyph-name="K" unicode="K" horiz-adv-x="747" 
d="M578 980h118l-337 -381l337 -599h-113l-287 528l-151 -171v-357h-94v980h94v-490l106 120v1s62 69 62 70z" />
    <glyph glyph-name="L" unicode="L" horiz-adv-x="638" 
d="M51 0v980h94v-887h442v-93h-536z" />
    <glyph glyph-name="M" unicode="M" horiz-adv-x="892" 
d="M51 0v980h61l334 -818l334 818h61v-980h-94v664l-271 -664h-61l-271 663v-663h-93z" />
    <glyph glyph-name="N" unicode="N" horiz-adv-x="747" 
d="M51 0v980h61s490 -769 491 -769c0 0 -1 769 0 769h93v-980h-61c-1 0 -491 769 -491 769v-769h-93z" />
    <glyph glyph-name="O" unicode="O" horiz-adv-x="892" 
d="M521 905h-150c-71 0 -133 -44 -168 -106c-50 -91 -58 -197 -58 -301v-16c0 -104 8 -210 58 -301c35 -62 97 -106 168 -106h150c71 0 133 44 167 106c51 91 59 197 59 301v16c0 104 -8 210 -59 301c-34 62 -96 106 -167 106zM521 998c96 0 185 -49 237 -130
c69 -109 83 -241 83 -370v-16c0 -129 -14 -261 -83 -370c-52 -81 -141 -130 -237 -130h-150c-96 0 -185 49 -237 130c-70 109 -83 241 -83 370v16c0 129 13 261 83 370c52 81 141 130 237 130h150z" />
    <glyph glyph-name="P" unicode="P" 
d="M51 0v980h334c66 0 132 -20 177 -69c47 -52 61 -125 61 -196v-7c0 -71 -14 -143 -61 -196c-45 -49 -111 -69 -177 -69h-240v-443h-94zM145 887v-351h240c41 0 81 14 107 45c29 35 38 82 38 127v7c0 46 -9 92 -38 127c-26 31 -66 45 -107 45h-240z" />
    <glyph glyph-name="Q" unicode="Q" horiz-adv-x="892" 
d="M701 206c39 85 46 181 46 276v16c0 104 -8 210 -59 301c-34 62 -96 106 -167 106h-150c-71 0 -133 -44 -168 -106c-50 -91 -58 -197 -58 -301v-16c0 -104 8 -210 58 -301c35 -62 97 -106 168 -106h150c45 0 86 17 119 46l-203 337h112zM841 482c0 -129 -13 -262 -83 -370
l64 -107h-112l-20 33c-48 -36 -107 -56 -169 -56h-150c-96 0 -185 49 -237 130c-70 109 -83 241 -83 370v16c0 129 13 261 83 370c52 81 141 130 237 130h150c96 0 185 -49 237 -130c69 -109 83 -241 83 -370v-16z" />
    <glyph glyph-name="R" unicode="R" 
d="M623 0h-107l-211 443h-160v-443h-94v980h334c66 0 132 -20 177 -69c47 -52 61 -125 61 -196v-7c0 -71 -14 -143 -61 -196c-40 -44 -97 -64 -156 -68zM145 887v-351h240c41 0 81 14 107 45c29 35 38 82 38 127v7c0 46 -9 92 -38 127c-26 31 -66 45 -107 45h-240z" />
    <glyph glyph-name="S" unicode="S" horiz-adv-x="710" 
d="M552 811c-21 58 -77 94 -144 94h-105c-44 0 -88 -14 -117 -47c-32 -36 -41 -85 -41 -134v-7c0 -48 9 -97 41 -134c29 -33 73 -47 117 -47h105c69 0 139 -20 186 -71c50 -54 66 -129 66 -202v-7c0 -74 -16 -149 -66 -203c-47 -51 -117 -71 -186 -71h-105
c-70 0 -140 20 -187 71c-23 25 -39 55 -49 86c0 1 91 30 91 30c7 -17 16 -33 28 -47c29 -33 73 -47 117 -47h105c44 0 88 14 117 47c31 36 41 85 41 134v7c0 48 -10 97 -41 134c-29 33 -73 46 -117 46h-105c-70 0 -140 21 -187 72c-50 54 -65 129 -65 202v7
c0 74 15 149 65 203c47 51 117 71 187 71h105c69 0 139 -20 186 -71c23 -25 39 -55 49 -86c0 -1 -91 -30 -91 -30z" />
    <glyph glyph-name="T" unicode="T" horiz-adv-x="710" 
d="M51 887v93h608v-93h-257v-887h-94v887h-257z" />
    <glyph glyph-name="U" unicode="U" horiz-adv-x="747" 
d="M696 980v-639c0 -94 -13 -190 -69 -266c-45 -61 -120 -93 -196 -93h-115c-77 0 -151 32 -196 93c-56 76 -69 172 -69 266v639h94v-639c0 -69 7 -139 44 -197c28 -43 76 -69 127 -69h115c51 0 99 26 126 69c38 58 45 128 45 197v639h94z" />
    <glyph glyph-name="V" unicode="V" horiz-adv-x="747" 
d="M51 980h96l227 -763l227 763h95l-292 -980h-61z" />
    <glyph glyph-name="W" unicode="W" horiz-adv-x="1037" 
d="M342 980h96l81 -272l81 272h95l-129 -432l99 -330l226 762h95l-291 -980h-61l-116 387l-115 -387h-61l-291 980h96l226 -762l98 328z" />
    <glyph glyph-name="X" unicode="X" horiz-adv-x="747" 
d="M51 980h107l208 -378l197 378h106l-249 -477l276 -503h-107l-221 403l-211 -403h-106l262 502z" />
    <glyph glyph-name="Y" unicode="Y" horiz-adv-x="747" 
d="M51 980h105l218 -388l218 388h104l-276 -490v-490h-94v490z" />
    <glyph glyph-name="Z" unicode="Z" horiz-adv-x="747" 
d="M51 887v93h645v-61l-518 -826h518v-93h-645v61l518 826h-518z" />
    <glyph glyph-name="a" unicode="a" horiz-adv-x="565" 
d="M248 611c-46 0 -80 -19 -96 -55l-91 28c8 27 21 51 41 71c38 37 93 49 146 49h69c54 0 108 -12 146 -49s52 -89 52 -142v-513h-94v8c-31 -18 -67 -26 -104 -26h-69c-55 0 -110 19 -146 61c-40 48 -51 112 -51 174v6c0 62 11 126 51 174c36 42 91 61 146 61h69
c37 0 73 -8 104 -26v81c0 27 -8 54 -27 73c-20 19 -49 25 -77 25h-69zM317 75c74 0 104 70 104 142v6c0 72 -29 142 -104 142h-69c-74 0 -103 -71 -103 -142v-6c0 -71 29 -142 103 -142h69z" />
    <glyph glyph-name="b" unicode="b" horiz-adv-x="660" 
d="M284 611c-116 0 -139 -155 -139 -263v-10c0 -109 23 -263 139 -263h92c115 0 139 154 139 263v10c0 108 -24 263 -139 263h-92zM145 652c37 34 87 52 139 52h92c70 0 134 -34 172 -92c51 -77 61 -172 61 -264v-10c0 -92 -10 -187 -61 -264c-38 -58 -102 -92 -172 -92h-92
c-52 0 -102 18 -139 52v-34h-94v1010h94v-358z" />
    <glyph glyph-name="c" unicode="c" horiz-adv-x="660" 
d="M145 338c0 -109 23 -263 139 -263h92c66 0 106 60 123 119l91 -25c-9 -33 -22 -65 -42 -95c-38 -58 -102 -92 -172 -92h-92c-70 0 -135 34 -173 92c-50 77 -60 172 -60 264v10c0 92 10 187 60 264c38 58 103 92 173 92h92c70 0 134 -34 172 -92c20 -30 33 -62 42 -95
l-91 -25c-17 59 -57 119 -123 119h-92c-116 0 -139 -155 -139 -263v-10z" />
    <glyph glyph-name="d" unicode="d" horiz-adv-x="660" 
d="M609 0h-94v35c-37 -34 -86 -53 -139 -53h-92c-70 0 -135 34 -173 92c-50 77 -60 172 -60 264v10c0 92 10 187 60 264c38 58 103 92 173 92h92c53 0 102 -19 139 -53v359h94v-1010zM376 75c115 0 139 154 139 263v10c0 108 -24 263 -139 263h-92
c-116 0 -139 -155 -139 -263v-10c0 -109 23 -263 139 -263h92z" />
    <glyph glyph-name="e" unicode="e" horiz-adv-x="660" 
d="M573 120c-34 -78 -105 -138 -197 -138h-92c-70 0 -135 34 -173 92c-50 77 -60 172 -60 264v10c0 92 10 187 60 264c38 58 103 92 173 92h92c70 0 134 -34 172 -92c43 -66 57 -144 60 -223h1v-93h-463c4 -96 36 -221 138 -221h92c50 0 92 37 110 83zM514 389
c-4 96 -36 222 -138 222h-92c-102 0 -134 -126 -138 -222h368z" />
    <glyph glyph-name="f" unicode="f" horiz-adv-x="529" 
d="M218 813c0 100 33 215 138 215h30c77 0 121 -66 133 -137l-92 -16c-5 24 -15 60 -41 60h-30c-42 0 -44 -81 -44 -122v-127h120v-93h-120v-593h-94v593h-120v93h120v127z" />
    <glyph glyph-name="g" unicode="g" horiz-adv-x="660" 
d="M284 -468c-73 0 -137 44 -173 108c-9 15 -16 32 -23 49l87 34l6 -15c19 -44 55 -83 103 -83h92c48 0 84 39 103 83c32 75 36 157 36 238v106c-38 -33 -87 -52 -139 -52h-92c-69 0 -134 33 -173 90c-50 75 -60 167 -60 257v10c0 90 10 182 60 257c39 57 104 90 173 90h92
c52 0 101 -19 139 -52v34h94v-740c0 -106 -9 -214 -61 -306c-35 -64 -99 -108 -172 -108h-92zM376 93c113 0 139 147 139 254v10c0 107 -26 254 -139 254h-92c-113 0 -139 -147 -139 -254v-10c0 -107 26 -254 139 -254h92z" />
    <glyph glyph-name="h" unicode="h" horiz-adv-x="602" 
d="M262 611c-89 0 -117 -95 -117 -180v-431h-94v1010h94v-340c33 23 75 34 117 34h78c60 0 119 -23 156 -71c44 -57 55 -130 55 -202v-431h-94v431c0 85 -28 180 -117 180h-78z" />
    <glyph glyph-name="i" unicode="i" horiz-adv-x="195" 
d="M30 942c0 41 27 68 68 68s67 -26 67 -68c0 -41 -25 -67 -67 -67s-68 26 -68 67zM51 0v686h94v-686h-94z" />
    <glyph glyph-name="j" unicode="j" horiz-adv-x="457" 
d="M406 -191c0 -119 -31 -277 -157 -277h-42c-84 0 -130 79 -146 157l91 18c6 -33 21 -82 55 -82h42c61 0 63 126 63 184v877h94v-877zM294 945c0 39 25 65 65 65s65 -26 65 -65c0 -40 -24 -66 -65 -66s-65 26 -65 66z" />
    <glyph glyph-name="k" unicode="k" horiz-adv-x="638" 
d="M465 686h122l-207 -213l207 -473h-103l-172 402l-167 -172v-230h-94v1010h94v-653l197 203z" />
    <glyph glyph-name="l" unicode="l" horiz-adv-x="195" 
d="M51 0v1010h94v-1010h-94z" />
    <glyph glyph-name="m" unicode="m" horiz-adv-x="1000" 
d="M260 611c-87 0 -115 -96 -115 -180v-431h-94v686h94v-15c33 23 74 33 115 33h78c65 0 127 -28 162 -81c36 53 97 81 163 81h77c60 0 119 -23 155 -71c44 -57 55 -130 55 -202v-431h-94v431c0 85 -28 180 -116 180h-77c-88 0 -116 -95 -116 -180v-431h-94v431
c0 84 -28 180 -115 180h-78z" />
    <glyph glyph-name="n" unicode="n" horiz-adv-x="602" 
d="M262 611c-89 0 -117 -95 -117 -180v-431h-94v686h94v-16c33 23 75 34 117 34h78c60 0 119 -23 156 -71c44 -57 55 -130 55 -202v-431h-94v431c0 85 -28 180 -117 180h-78z" />
    <glyph glyph-name="o" unicode="o" horiz-adv-x="660" 
d="M515 348c0 108 -24 263 -139 263h-92c-116 0 -139 -155 -139 -263v-10c0 -109 23 -263 139 -263h92c115 0 139 154 139 263v10zM376 704c70 0 134 -34 172 -92c51 -77 61 -172 61 -264v-10c0 -92 -10 -187 -61 -264c-38 -58 -102 -92 -172 -92h-92c-70 0 -135 34 -173 92
c-50 77 -60 172 -60 264v10c0 92 10 187 60 264c38 58 103 92 173 92h92z" />
    <glyph glyph-name="p" unicode="p" horiz-adv-x="660" 
d="M284 611c-116 0 -139 -155 -139 -263v-10c0 -109 23 -263 139 -263h92c115 0 139 154 139 263v10c0 108 -24 263 -139 263h-92zM145 652c37 34 87 52 139 52h92c70 0 134 -34 172 -92c51 -77 61 -172 61 -264v-10c0 -92 -10 -187 -61 -264c-38 -58 -102 -92 -172 -92h-92
c-52 0 -102 18 -139 52v-484h-94v1136h94v-34z" />
    <glyph glyph-name="q" unicode="q" horiz-adv-x="660" 
d="M609 -450h-94v485c-37 -34 -86 -53 -139 -53h-92c-70 0 -135 34 -173 92c-50 77 -60 172 -60 264v10c0 92 10 187 60 264c38 58 103 92 173 92h92c53 0 102 -19 139 -53v35h94v-1136zM376 75c115 0 139 154 139 263v10c0 108 -24 263 -139 263h-92
c-116 0 -139 -155 -139 -263v-10c0 -109 23 -263 139 -263h92z" />
    <glyph glyph-name="r" unicode="r" horiz-adv-x="529" 
d="M235 611c-76 0 -90 -108 -90 -180v-431h-94v686h94v-8c26 17 57 26 90 26h60c85 0 145 -62 167 -138l-90 -27c-13 35 -36 72 -77 72h-60z" />
    <glyph glyph-name="s" unicode="s" horiz-adv-x="602" 
d="M152 139c16 -42 58 -64 110 -64h78c31 0 64 7 87 28c22 21 30 51 30 81v4c0 30 -8 60 -30 80c-23 22 -56 28 -87 28h-78c-57 0 -115 14 -156 53c-40 38 -55 94 -55 149v4c0 56 15 112 55 150c41 39 99 52 156 52h78c57 0 115 -13 156 -52c23 -22 38 -50 46 -80l-92 -25
c-16 42 -59 64 -110 64h-78c-32 0 -64 -7 -87 -28c-22 -21 -30 -51 -30 -81v-4c0 -30 8 -60 30 -80c23 -22 55 -29 87 -29h78c57 0 115 -13 156 -52c40 -38 55 -94 55 -149v-4c0 -56 -15 -112 -55 -150c-41 -39 -99 -52 -156 -52h-78c-57 0 -115 13 -156 52
c-23 22 -38 50 -46 80z" />
    <glyph glyph-name="t" unicode="t" horiz-adv-x="493" 
d="M51 639v93h149v278h93v-278h149v-93h-149v-639h-93v639h-149z" />
    <glyph glyph-name="u" unicode="u" horiz-adv-x="602" 
d="M340 75c89 0 117 95 117 180v431h94v-686h-94v16c-34 -23 -75 -34 -117 -34h-78c-61 0 -120 23 -156 71c-44 57 -55 130 -55 202v431h94v-431c0 -85 28 -180 117 -180h78z" />
    <glyph glyph-name="v" unicode="v" horiz-adv-x="623" 
d="M51 686h95c1 0 166 -493 166 -493l166 493h95l-231 -686h-61z" />
    <glyph glyph-name="w" unicode="w" horiz-adv-x="870" 
d="M305 686h95l36 -107l35 107h94l-82 -251l79 -239l163 490h94s-226 -686 -227 -686h-61l-96 290l-96 -290h-61c-1 0 -227 686 -227 686h95l163 -490l79 238z" />
    <glyph glyph-name="x" unicode="x" horiz-adv-x="602" 
d="M51 686h108l133 -233l125 233h107l-176 -330l203 -356h-108l-147 258l-138 -258h-107l189 355z" />
    <glyph glyph-name="y" unicode="y" horiz-adv-x="623" 
d="M51 686h95l166 -531l166 531h95l-355 -1136h-95l141 450h1z" />
    <glyph glyph-name="z" unicode="z" horiz-adv-x="602" 
d="M51 593v93h500v-61l-365 -532h365v-93h-500v61l364 532h-364z" />
    <glyph glyph-name="Eth" unicode="&#xd0;" 
d="M98 502v93h479v-93h-479z" />
    <glyph glyph-name="Ntilde" unicode="&#xd1;" horiz-adv-x="892" 
d="M98 502v93h696v-93h-696z" />
  </font>
</defs>
</svg>
