<?xml version="1.0" standalone="no"?>
<!DOCTYPE svg PUBLIC "-//W3C//DTD SVG 1.1//EN" "http://www.w3.org/Graphics/SVG/1.1/DTD/svg11.dtd" >
<svg xmlns="http://www.w3.org/2000/svg">
<metadata></metadata>
<defs>
<font id="crickxdroite" horiz-adv-x="1011" >
<font-face units-per-em="2048" ascent="1638" descent="-410" />
<missing-glyph horiz-adv-x="681" />
<glyph horiz-adv-x="2048" />
<glyph horiz-adv-x="2048" />
<glyph unicode="&#xd;" horiz-adv-x="681" />
<glyph unicode=" "  horiz-adv-x="681" />
<glyph unicode="&#x09;" horiz-adv-x="681" />
<glyph unicode="&#xa0;" horiz-adv-x="681" />
<glyph unicode="!" horiz-adv-x="579" d="M164 379l4 985h289v-985h-293zM166 0v274h289v-274h-289z" />
<glyph unicode="&#x22;" horiz-adv-x="995" d="M84 1034l27 330h321l-104 -578l-166 -2l39 250h-117zM473 1034l27 330l321 -2l-104 -576l-172 -2l45 250h-117z" />
<glyph unicode="#" horiz-adv-x="1376" d="M164 176l41 240h155l21 143h-158l39 234h156l26 170h252l-26 -170h149l23 170h254l-27 -170h143l-38 -234h-541l-23 -143h146l18 131l254 -2l-22 -129h145l-39 -240h-145l-29 -174h-254l31 174h-148l-26 -174h-254l30 174h-153z" />
<glyph unicode="$" horiz-adv-x="1069" d="M164 885v205l5 20t17.5 49t36 69t64.5 66.5t96 55.5l8 225h326l-10 -225q39 -16 69.5 -39t50 -49.5t35 -57t23.5 -60.5t13 -57.5t6 -52t1 -43t-1 -29.5l-1 -10h-274v62q4 0 0 20.5t-26.5 40t-65.5 19.5q-49 0 -72 -34t-21 -67l2 -35q0 -43 46.5 -73.5t113 -52t133 -46 t113.5 -70.5t47 -112v-334q0 -6 -3 -19t-17.5 -49t-37 -67t-67.5 -63.5t-104 -51.5l-8 -221h-324l6 228q-45 18 -79 47.5t-51 58.5t-27.5 55.5t-12.5 42.5l-2 17v207h272q-2 -6 -3 -17.5t0 -38t7.5 -47t25 -38t46.5 -17.5q104 -6 105 143q0 59 -34 94t-85 46.5t-111.5 30 t-111 42t-85 82t-34.5 150.5z" />
<glyph unicode="%" horiz-adv-x="1302" d="M100 96l521 752l-91 211q10 2 19 10q6 6 12 17.5t6 27.5q0 25 -15 40t-37.5 15t-40 -14t-17.5 -41q0 -33 21.5 -46t35.5 -9l88 -215q-18 -12 -42.5 -21.5t-49.5 -9.5q-51 0 -105.5 17.5t-98.5 53.5t-72.5 90t-28.5 128q0 135 87 204.5t222 69.5q92 0 148.5 -33.5 t87 -78.5t41 -88t10.5 -64l182 264l227 -131l-475 -751l103 -228q-4 -2 -7 -6q-4 -8 -4 -18q0 -20 15.5 -39t42.5 -19q25 0 41 21.5t16 36.5q0 20 -13.5 37.5t-37.5 17.5q-10 0 -18.5 -3t-12.5 -7q-6 -4 -10 -8l-96 223q10 12 32 20q16 8 46 14.5t75 6.5q66 0 116 -25.5 t84 -67.5t51.5 -93.5t17.5 -100.5q0 -43 -17.5 -92t-53.5 -91t-93.5 -70t-137.5 -28q-98 0 -158.5 42t-92 96.5t-41 105.5t-4.5 68l-240 -338z" />
<glyph unicode="&#x26;" horiz-adv-x="1169" d="M102 1102q0 76 30 134t72 91t94 54.5t91 27.5t72 6q115 0 195.5 -31.5t120.5 -70.5t61.5 -117t23.5 -126t2 -142q0 -63 -48 -112.5t-117.5 -80t-139.5 -58.5t-118 -66t-48 -87q0 -16 -1 -51t-1 -52.5t5 -43t15.5 -38.5t31 -22.5t51.5 -9.5q49 0 86.5 18.5t50.5 39.5 l12 18q0 4 -1 12t-11 32t-26.5 49.5t-51.5 60t-84 69.5q49 27 122 61.5t105 53.5q25 -14 47.5 -30.5t39 -31t31.5 -29t26.5 -28.5t20.5 -25.5t15.5 -21.5t10.5 -17.5t7 -12.5l3 -5q-2 0 32 26.5t89 64.5t98 63v-287l-10 -6q-12 -4 -36.5 -19.5t-49.5 -35.5q90 -147 190 -213 l-266 -160q-39 35 -76 83t-55 80l-18 31l-7 -7q-6 -7 -18 -20.5t-30.5 -29.5t-45 -31.5t-57.5 -29t-74 -22.5t-88 -9q-72 0 -130 16.5t-96 41t-64.5 66.5t-41 80t-22.5 94t-9 97t-1 101q-2 82 22.5 142t64.5 95t89 59.5t98 41t89 33t65.5 42t25.5 62.5q0 4 1 24.5t1 29.5 t-2 29.5t-6 32t-11 27.5t-17.5 24.5t-26 13.5t-35.5 5q-47 -4 -72.5 -31.5t-27.5 -54.5l-2 -27q0 -66 14 -95t61 -79q-180 -63 -235 -106h-2q-8 4 -15.5 11t-26 32.5t-30.5 59.5t-22.5 96.5t-8.5 140.5z" />
<glyph unicode="'" horiz-adv-x="579" d="M121 1034l18 330h330l-104 -578l-177 -2l39 250h-106z" />
<glyph unicode="(" horiz-adv-x="712" d="M62 752.5q4 103.5 28.5 208t66.5 203t103.5 180t143 143t184.5 92.5l2 -313q-76 -31 -126 -113t-78 -183.5t-36 -201.5t2 -168q10 -53 26.5 -113.5t43.5 -115t63.5 -101.5t87.5 -71v-293q-113 29 -198.5 93t-148 153.5t-100.5 193t-54 211.5q-14 92 -10 195.5z" />
<glyph unicode=")" horiz-adv-x="712" d="M123 1266q76 -31 126 -113t77.5 -183.5t35 -201.5t-3.5 -168q-8 -53 -24.5 -113.5t-43 -115t-64.5 -101.5t-87 -71v-293q113 29 199 93t148.5 153.5t99.5 193t53 211.5q16 92 11 195.5t-28.5 208t-66.5 203t-104.5 180t-142.5 143t-185 92.5v-313z" />
<glyph unicode="*" horiz-adv-x="917" d="M41 303q-2 -2 4 34t14 77l19 110h180l-102 162l204 123l117 -184l144 188l186 -139l-115 -139l185 2l-35 -222h-164l78 -135l-197 -145l-108 188l-134 -186l-192 139l106 127q-82 -2 -135 0t-55 0z" />
<glyph unicode="+" horiz-adv-x="817" d="M41 246v250h235v233h263v-233h237v-246h-239v-252l-261 2v246h-235z" />
<glyph unicode="," horiz-adv-x="626" d="M156 0v324h305q2 -66 0 -129q-2 -53 -6 -111.5t-13 -99.5q-6 -35 -14 -59.5t-17.5 -48t-21.5 -50.5t-27 -66l-133 -2l50 242h-123z" />
<glyph unicode="-" horiz-adv-x="667" d="M82 246v219h504v-217z" />
<glyph unicode="." horiz-adv-x="544" d="M102 0v301h326l-2 -301h-324z" />
<glyph unicode="/" horiz-adv-x="927" d="M61 2l535 1399h291l-527 -1403z" />
<glyph unicode="0" horiz-adv-x="1120" d="M133 743q0 -190 26.5 -332.5t66.5 -224.5t97.5 -130t109.5 -62t114 -10q86 6 149.5 23.5t125 62.5t100.5 118.5t62.5 195.5t23.5 290v16v99.5t-3.5 96t-9.5 97.5t-17 89t-28.5 87t-43 73t-59.5 65.5t-80 49t-103 35.5v-997q-2 -4 -9.5 -13.5t-33 -22.5t-58.5 -13 q-45 0 -68.5 17.5t-23.5 33.5l-2 19v544l1 4t3 13.5t5 18.5t9.5 19.5t14.5 18.5t21.5 14t27.5 6q27 0 41 -3t17 -6t10.5 -7t17.5 -8v362q-10 2 -28.5 5.5t-71 -1t-99.5 -19.5t-105.5 -58t-100.5 -109.5t-70.5 -184.5t-28.5 -272z" />
<glyph unicode="1" horiz-adv-x="804" d="M123 727v272l248 369l258 4l12 -1372h-299v864z" />
<glyph unicode="2" horiz-adv-x="1015" d="M123 0h764l2 260h-430q0 41 45 104.5t108.5 136t127 152.5t108.5 178.5t45 190.5q0 145 -83 254.5t-228 109.5q-305 0 -387 -286q-23 -74 -25 -191l248 -12q-2 8 -2 20.5t3 46t11 59.5t31.5 46.5t58.5 20.5q41 0 63.5 -29t24.5 -55l2 -29q0 -51 -27.5 -100.5t-69.5 -91.5 t-94 -87t-104.5 -101t-95.5 -121.5t-69.5 -159t-26.5 -201.5v-115z" />
<glyph unicode="3" horiz-adv-x="1064" d="M123 423q-4 -24 4 -64t17.5 -87t40 -96t70.5 -89t109.5 -65.5t155.5 -25.5q303 -2 381 225q20 59 21 129l-9 420q0 6 -2 15.5t-16 34t-36.5 43t-73 33.5t-117.5 15q145 139 237 230l-4 227h-749l-9 -274h306l-287 -312l182 -184q0 2 23.5 22.5t64.5 43t76 22.5 q47 0 72.5 -23.5t29.5 -48t0 -24.5v-182v-11.5t-4 -26t-12 -32.5t-28.5 -25.5t-49.5 -11.5q-41 0 -62.5 21.5t-21.5 42.5l-2 20v64h-307q4 -2 0 -26z" />
<glyph unicode="4" horiz-adv-x="1034" d="M20 602l480 787l323 -3l-4 -772l133 -4l-8 -291h-125v-319h-284l-3 322h-507zM299 625h221l-2 366z" />
<glyph unicode="5" horiz-adv-x="1036" d="M143 614h291q-2 0 7.5 17.5t32 34t46.5 16.5q96 4 109 -92q2 -8 2 -21l-4 -163q0 -4 -1 -11.5t-6.5 -26t-15.5 -32.5t-33.5 -25.5t-54.5 -11.5q-41 0 -63.5 21.5t-24.5 44.5l-2 20v59l-279 7v-183q0 -12 4.5 -29.5t30 -63.5t63.5 -82t117.5 -65.5t182.5 -29.5 q94 0 165.5 34t106.5 78t57.5 95t26.5 77.5t4 34.5l8 385q0 8 -3 24.5t-18 56.5t-40 71t-76 55.5t-119 24.5q-47 0 -101 -15.5t-85 -29.5l-29 -17v234l471 10v277h-770v-779z" />
<glyph unicode="6" horiz-adv-x="991" d="M123 326q0 -6 1 -17.5t9 -46.5t21.5 -65.5t41 -67.5t63.5 -64.5t93.5 -46t126.5 -18.5q78 0 141.5 21.5t103.5 52t71.5 73.5t47 79t27 74t13.5 52.5t2 20.5q0 70 -3 118t-18.5 110.5t-43 101t-80 66.5t-124.5 28q-23 0 -41 -1t-38.5 -7.5t-30.5 -10.5t-36 -15t-38 -15 v-236q12 27 80 27q29 0 48.5 -19.5t25.5 -40.5l4 -18q2 -8 3 -20.5t0 -42t-9.5 -53t-31 -43t-56.5 -19.5q-39 0 -59.5 23.5t-22.5 47.5v23v594v14t5 28.5t14 36t29.5 29t49.5 13.5q37 0 61.5 -17.5t32.5 -42t12.5 -48t2.5 -42.5l-3 -16l271 10v137l-1 11q-1 10 -4 27 t-9.5 38.5t-19.5 46.5t-30.5 49.5t-45 47t-62.5 39t-84 26.5t-107 10q-92 0 -165.5 -27.5t-116.5 -67.5t-72 -89t-39 -88t-10 -70v-700z" />
<glyph unicode="7" horiz-adv-x="923" d="M102 0l422 1090l-346 -5l4 279h680l-4 -221l-463 -1145z" />
<glyph unicode="8" horiz-adv-x="1024" d="M123 1102q-2 -78 8 -140.5t22.5 -96.5t31 -59.5t25.5 -32.5t15 -11h2q55 43 236 106q-47 49 -61.5 79t-14.5 95q0 4 1 11.5t5 26t13.5 32.5t32 27.5t50.5 15.5q20 0 36 -5t26 -13.5t17 -24.5t11.5 -27.5t6.5 -32t2 -29.5t-1 -29.5t-1 -24.5q0 -37 -24.5 -62.5t-65.5 -42 t-90.5 -33t-98.5 -41t-89 -59.5t-64.5 -95.5t-22.5 -141.5q0 -45 1 -74t5 -75t11.5 -75.5t19.5 -69.5t30.5 -67t46 -54.5t62.5 -44t83 -26.5t106 -10q190 2 297.5 121t107.5 309q0 74 -10 135.5t-25.5 97t-31 61.5t-25.5 36l-10 8q-53 -41 -145.5 -76t-133.5 -61 q31 -31 44.5 -46.5t28.5 -45t15 -62.5q0 -2 1 -33.5t0 -41t-6 -33t-15 -32.5t-28.5 -18.5t-45.5 -9.5q-31 0 -51.5 9.5t-30.5 22.5t-15 38.5t-5 43t1 52.5t1 51q0 49 48 87t117.5 66t139 58.5t118 79.5t48.5 113q0 94 -2 142t-23.5 126t-61.5 117t-120 70.5t-197 31.5 q-33 0 -71.5 -6t-91 -27.5t-94.5 -54.5t-71.5 -91t-29.5 -134z" />
<glyph unicode="9" horiz-adv-x="1021" d="M123 295l1 -11q1 -10 4 -27t9 -38.5t19.5 -46.5t31 -49.5t45 -46t62.5 -39t84 -27.5t106 -10q92 0 166 27.5t117 67.5t71.5 89t39 88t10.5 70v700q0 6 -1 18.5t-9.5 46.5t-21.5 64.5t-41 68.5t-63.5 64.5t-93 45t-127.5 18.5q-84 0 -151.5 -21.5t-108.5 -52t-71.5 -73.5 t-44 -78t-20.5 -74t-8 -52t-1 -22q0 -68 3 -117t18.5 -111t43 -101t79.5 -67t124 -28q20 0 38 2t30 3.5t31.5 8.5t26.5 10t32 13t33 13v237q-18 -29 -86 -29q-29 0 -48.5 19.5t-25.5 40.5l-4 20q-2 6 -3 18.5t0 42t9 53.5t30.5 43t57.5 19q39 0 60.5 -23.5t23.5 -47.5l2 -23 v-594q0 -4 -1 -12t-7 -29.5t-15.5 -37t-30 -29t-48.5 -13.5q-37 0 -61.5 17.5t-33 42t-12.5 48.5t-2 42l2 16l-270 -10v-137z" />
<glyph unicode=":" horiz-adv-x="532" d="M102 0v301h326l-2 -301h-324zM102 512v301h326l-2 -301h-324z" />
<glyph unicode=";" horiz-adv-x="653" d="M164 512v301h325l-2 -301h-323zM174 0v324h305q2 -66 0 -129q-2 -53 -6 -111.5t-12 -99.5q-6 -35 -14.5 -59.5t-17.5 -48t-21.5 -50.5t-26.5 -66l-133 -2l49 242h-123z" />
<glyph unicode="&#x3c;" horiz-adv-x="954" d="M121 401l405 -401h328l-389 403l381 416h-314z" />
<glyph unicode="=" horiz-adv-x="1062" d="M164 119v250h735v-248zM164 465v250h735v-248z" />
<glyph unicode="&#x3e;" horiz-adv-x="954" d="M121 0l389 403l-381 416h313l412 -418l-405 -401h-328z" />
<glyph unicode="?" horiz-adv-x="997" d="M166 1077q-2 0 4 36t29.5 87t61.5 102.5t113 87t171 35.5q147 0 238 -111.5t91 -252.5q0 -92 -32.5 -172t-78.5 -133.5t-92 -99.5t-78 -91t-32 -86v-162h-129v-65h133l-2 -248h-284v248h127v65h-130v119q0 90 33 163t78 121t91 91t78 94t32 111q0 4 -2 10t-8.5 23.5 t-16.5 30t-30.5 23.5t-47.5 11q-41 0 -65.5 -29.5t-30.5 -60.5l-4 -29z" />
<glyph unicode="@" horiz-adv-x="1761" d="M123 662q70 358 281.5 542.5t590.5 184.5q61 0 139 -11.5t156 -41t148.5 -81t120 -130t70 -190.5t-4.5 -261q-10 -59 -28.5 -133t-56.5 -138.5t-99.5 -108.5t-157.5 -44q-86 0 -145.5 24.5t-94.5 69.5q-10 16 -21 44l-22 56q-12 33 -24 70q0 6 6 48t14 89q8 55 23 123 h-94q-43 0 -70 -49t-47 -182q-4 -18 4 -30.5t19.5 -20t24.5 -10.5t21.5 -3t22.5 4l29 9l33 12l67 -166q-10 -6 -34.5 -16.5t-60.5 -20.5t-80 -17.5t-93 -7.5q-47 0 -96.5 18.5t-88 55.5t-58 92.5t-5.5 126.5q27 137 77 216t109.5 118t123 48.5t118.5 9.5h348 q-18 -109 -31 -197q-6 -37 -11 -74t-10 -66.5t-7 -48t-2 -20.5q0 -12 8 -31.5t39 -19.5q14 0 28.5 27.5t26.5 71.5t21.5 98.5t17.5 107.5q8 68 -6 123t-58 96t-119 63.5t-186 22.5q-72 0 -159.5 -12t-171.5 -63.5t-153 -155t-101 -283.5q-23 -129 13 -214t95.5 -135 t127 -70.5t106.5 -20.5q33 0 74.5 9t82.5 19q45 12 95 31l133 -156q-51 -41 -115 -71q-55 -27 -130 -48.5t-167 -21.5q-154 0 -278.5 61.5t-206.5 165t-116 236.5t-5 277z" />
<glyph unicode="A" horiz-adv-x="1017" d="M31 0l350 1368l258 2l348 -1370h-307l-55 223l-232 -2l-51 -221h-311zM444 432l138 4l-72 256z" />
<glyph unicode="B" horiz-adv-x="913" d="M123 0v1370h448q61 0 108.5 -22.5t74 -54t42 -78t20.5 -85t5 -81.5q0 -66 -14 -119t-35.5 -83t-43 -50.5t-36.5 -26.5l-14 -8q6 0 15 -5t34 -22.5t44.5 -42t34.5 -67.5t15 -97v-256q0 -88 -20.5 -144t-67.5 -84t-98 -36t-133 -8h-379zM395 868h25.5h27t23.5 3t22.5 8.5 t16.5 14.5t14 24.5t8.5 37t4.5 52.5q0 27 -3.5 45t-11.5 29.5t-13 18.5t-21.5 10t-24.5 3t-32.5 -1t-35.5 -1v-244zM397 264q1 0 19 -1q9 0 14.5 -0.5t8.5 0.5q5 1 20.5 2t20.5 3t16.5 6.5t15.5 11.5t10 16t8 22.5t2 29.5v144q-2 16 -3 29.5t-6 23.5t-7 16t-11 11.5 t-13.5 7.5t-18.5 3t-20.5 1h-27h-28.5v-326z" />
<glyph unicode="C" horiz-adv-x="923" d="M102 334l4 751q0 49 41 121q94 162 332 162q88 0 155.5 -25.5t105.5 -63.5t63.5 -90t34.5 -96q10 -43 12 -91q1 -32 1 -50v-14q-1 -16 -1 -27h-277v97v8t-4 21.5t-13 26.5t-31.5 21.5t-53.5 10.5q-43 0 -65.5 -35t-24.5 -70l-2 -35l2 -546q2 -2 0 -14.5t3 -32t12 -38 t26.5 -31.5t44.5 -13h5q52 0 76 42q25 42 24 93l-1 102q-2 8 -2 12h269v-202v-17.5t-7.5 -46.5t-19.5 -65.5t-42 -68.5t-70 -64.5t-105.5 -46t-147.5 -19.5q-70 0 -127 18.5t-91.5 46t-60.5 66.5t-38 70.5t-18.5 66.5t-7.5 47.5t-1 18.5z" />
<glyph unicode="D" horiz-adv-x="995" d="M143 0v1368h252q115 0 185.5 -4t133 -14.5t89 -31t53.5 -53t27 -79.5q0 -46 9 -112q5 -35 5 -76q0 -36 -4 -76q-2 -78 -2 -123q0 -211 -3 -339t-19.5 -223.5t-31 -138.5t-59.5 -68.5t-79.5 -27.5t-116.5 -2h-27h-412zM430 268h66.5t45 5.5t29 11.5t14.5 22.5t7 32.5v51 l18 639q0 61 -26.5 72.5t-141.5 11.5z" />
<glyph unicode="E" horiz-adv-x="901" d="M143 1366l625 2l-4 -252l-318 -8l3 -258h319l-4 -268l-315 -9v-313l319 -4l-8 -256h-615z" />
<glyph unicode="F" horiz-adv-x="862" d="M143 0v1356l600 20l9 -274l-308 -12l-2 -269l318 13l-6 -299l-314 -9l-2 -526h-295z" />
<glyph unicode="G" horiz-adv-x="1026" d="M133 338q0 -6 1 -18.5t7 -48t18.5 -67.5t37 -71t59.5 -66.5t90 -47t125 -19.5q90 0 163 18.5t116 44t74.5 62.5t46 65.5t21.5 63.5t7 44v19l2 332h-366v-213h77v-2q4 -8 2 -33.5t-7 -53.5t-28.5 -50.5t-60.5 -22.5q-39 0 -62.5 29t-25.5 57l-2 29v588v12t4 28.5t11.5 33 t25.5 29t45 12.5q25 0 42 -11.5t26.5 -28t15.5 -37t8 -41t3 -37.5t0 -27l-1 -11l301 -14q2 16 3 35v17q0 20 -1 53q-2 50 -12 95t-36.5 99.5t-67.5 92.5t-112 64.5t-163 26.5q-78 0 -142.5 -18.5t-103 -45t-68.5 -64.5t-43 -68.5t-20.5 -63.5t-8.5 -45.5t-1 -18.5v-706z" />
<glyph unicode="H" horiz-adv-x="1032" d="M164 0v1364l280 -2l-4 -549l160 4l4 551l264 -8l-10 -1360h-258l-6 543l-150 4l-8 -547h-272z" />
<glyph unicode="I" horiz-adv-x="499" d="M102 0v1364h295l-26 -1364h-269z" />
<glyph unicode="J" horiz-adv-x="952" d="M41 374q4 21 0 23v166l278 -4v-166q2 -4 3.5 -9t6.5 -19.5t13 -25.5t24.5 -19.5t36.5 -8.5q51 0 77 35t28 72l2 35l4 655h-190v260h464v-995q0 -39 -7 -80t-31.5 -96.5t-64.5 -96.5t-112.5 -70.5t-169.5 -29.5q-80 0 -142 21.5t-98 56.5t-63.5 78t-37 85t-17.5 77 q-5 24 -5 41q0 9 1 15z" />
<glyph unicode="K" horiz-adv-x="1083" d="M143 0h291l19 565l237 -565h326l-318 807l334 332l-186 247l-400 -411v391h-303v-1366z" />
<glyph unicode="L" horiz-adv-x="858" d="M164 1376l303 -12v-1057l330 -12l-6 -295h-619z" />
<glyph unicode="M" horiz-adv-x="1306" d="M164 1370l307 -4l176 -299l154 299l325 -12l17 -1354h-303l-15 735l-153 -252l-209 238l8 -721l-303 6z" />
<glyph unicode="N" horiz-adv-x="1087" d="M164 1360l252 4l213 -360l8 364l287 -4l-9 -1362h-270l-4 344l-174 268l4 -618h-299z" />
<glyph unicode="O" d="M123 778v59q0 99 5 169q7 88 24.5 155.5t53.5 106.5t86 63.5t130 40.5l-2 -993q0 -109 88 -109q94 0 94 115v631q0 39 -21.5 69.5t-60.5 30.5q-20 2 -35.5 -4t-21.5 -11t-6 -7v282q205 0 318.5 -100t113.5 -223v-705q0 -8 -1 -21.5t-8.5 -50t-19.5 -71.5t-42 -77 t-68.5 -71.5t-104 -50t-145.5 -20.5q-74 0 -134.5 18.5t-98.5 44t-66.5 60t-42 64.5t-21.5 61.5t-9 43t-1 17.5z" />
<glyph unicode="P" horiz-adv-x="1003" d="M164 0h282v1065q16 0 41 1t34 0t25.5 -1t21.5 -2t15.5 -5t12.5 -9.5t7 -13.5t5 -18t1 -24.5t1 -34.5v-16q0 -82 -10 -95t-74 -13q-22 2 -34 2v-261h206q8 0 22.5 2.5t49.5 14.5t61.5 34.5t48 69.5t21.5 113v330q0 39 -12 75.5t-41 73.5t-84 58.5t-133 21.5h-467v-1368z " />
<glyph unicode="Q" horiz-adv-x="1140" d="M102 248v731q0 27 20.5 77t67 112.5t109.5 117.5t161.5 93t211.5 38q25 0 55.5 -6t72.5 -25.5t74.5 -50t56 -87t23.5 -130.5l-36 -780l172 -246l-256 -88l-82 98q-4 -4 -11.5 -11t-34 -24.5t-59.5 -30.5t-87 -23.5t-118 -10.5q-72 0 -134 25.5t-98 60.5t-61.5 73 t-36 60.5t-10.5 26.5zM446 881l3 -404l221 -6l-2 485q-2 0 0 17.5t-3.5 44t-12.5 52.5t-25.5 44.5t-44.5 18.5q-68 0 -102 -67t-34 -185z" />
<glyph unicode="R" horiz-adv-x="1067" d="M164 0l4 1366h496q115 0 182 -68.5t67 -146.5v-309q0 -49 -23.5 -95.5t-45 -68t-25.5 -21.5t3 -4t22.5 -17t31 -33.5t25.5 -60.5t10 -89v-453h-286q4 465 4 467q0 59 -30 91q-19 20 -59 20q-24 0 -55 -7v244h15q31 0 46 2t32.5 9.5t23.5 23.5t6 47v92v24.5v19.5t-4 15.5 t-6 9.5t-10 6t-14.5 4t-21.5 2t-26.5 0t-35 0t-44.5 -1v-1069h-282z" />
<glyph unicode="S" horiz-adv-x="987" d="M123 885q0 -92 35 -150.5t85 -82t110.5 -42t111.5 -30t85 -46t34 -94.5q0 -143 -96 -143h-9q-47 0 -65 39q-15 32 -16 65q0 7 1 15l4 39h-272v-207q-2 0 3 -25.5t24.5 -62.5t53.5 -74t101.5 -62.5t155.5 -25.5q100 0 177 29.5t115 65.5t62.5 83t29.5 65.5t5 28.5v334 q0 66 -47 112t-113.5 70.5t-133 46t-112.5 52t-46 73.5q-2 6 -2.5 15.5t2 32t10.5 41t28.5 33t51.5 14.5q43 0 65.5 -19.5t26.5 -40t0 -20.5v-62h274v4q2 25 2 49q0 196 -119 295q-90 76 -241 76q-258 -2 -354 -205q-20 -45 -27 -81v-205z" />
<glyph unicode="T" horiz-adv-x="890" d="M82 1106l4 260h723l-16 -256l-230 -4l-6 -1106h-291v1108z" />
<glyph unicode="U" horiz-adv-x="1067" d="M154 338q0 -45 22.5 -101.5t64.5 -109.5t114.5 -89t162.5 -36q100 0 179 34t123 84t66.5 101t22.5 98q-6 641 -8 1049h-278l2 -997q-14 -31 -24.5 -45.5t-33 -25.5t-57.5 -11q-33 0 -51.5 22.5t-20.5 44.5l-2 23l-2 989h-280v-1030z" />
<glyph unicode="V" horiz-adv-x="989" d="M31 1356h317l158 -641l145 653h307l-321 -1368h-244z" />
<glyph unicode="W" horiz-adv-x="1609" d="M31 1368l415 -1368h244l137 354l107 -354h272l373 1358l-291 8l-221 -704l-176 700h-141l-179 -741l-223 747h-317z" />
<glyph unicode="X" horiz-adv-x="1089" d="M33 0l338 692l-285 660h324l133 -301l162 315l337 -2l-337 -672l288 -692h-340l-137 330l-154 -330h-329z" />
<glyph unicode="Y" horiz-adv-x="1132" d="M41 1364l336 4l196 -364l193 364l326 -12l-369 -656v-700h-307v705z" />
<glyph unicode="Z" horiz-adv-x="948" d="M82 0h735l8 295l-376 10l403 823l4 244h-704l-31 -231l405 -13l-424 -901z" />
<glyph unicode="[" horiz-adv-x="749" d="M170 297l2 465l2 172v147v107l2 41q0 63 16.5 114.5t44 89t61.5 66.5t69 47q82 47 186 64l-2 -346q-12 -2 -26.5 -6.5t-27 -17.5t-20.5 -41t-8 -75l-6 -714q2 -47 9 -74t19.5 -42t28 -18.5t27.5 -5.5l4 -358q-104 18 -191 68q-35 18 -69.5 46.5t-61 67.5t-43 89 t-16.5 114z" />
<glyph unicode="\" horiz-adv-x="927" d="M41 1401l526 -1403l299 4l-534 1399h-291z" />
<glyph unicode="]" horiz-adv-x="749" d="M170 1264q12 -2 27.5 -6.5t28 -17.5t20.5 -41t8 -75l6 -714q-2 -47 -9 -74t-19.5 -42t-28 -18.5t-27.5 -5.5l-4 -358q104 18 188 68q37 18 72 46.5t61.5 67.5t43 89t16.5 114l-4 465v172v147l-2 107v41q0 63 -17.5 114.5t-44 89t-60.5 66.5t-69 47q-82 47 -186 64v-346z " />
<glyph unicode="^" horiz-adv-x="1196" d="M352 1473l86 -164l172 75l160 -75l90 164l-246 104z" />
<glyph unicode="_" horiz-adv-x="1341" d="M82 -43h1175l3 -289h-1178v289z" />
<glyph unicode="a" horiz-adv-x="956" d="M41 0l276 1026l277 -4l321 -1022h-268l-184 508l-43 -176l76 -2l51 -158l-189 -6l-47 -166h-270z" />
<glyph unicode="b" horiz-adv-x="927" d="M123 1030l2 -1030h471q43 0 87 16.5t83 63.5t39 115v243q0 45 -20.5 83t-41.5 52l-20 17q10 8 22.5 23.5t33 69.5t20.5 114q0 63 -19.5 110t-48.5 69.5t-57.5 36t-48.5 15.5l-21 2h-190v-233h22.5h22.5t19.5 -1t17.5 -5.5t11 -9.5t10 -15t3 -23q0 -25 -4 -38t-14 -19 t-20.5 -7t-31 -2t-36.5 -3v-262q8 0 26.5 1t28.5 1t25.5 -3t22.5 -10.5t13.5 -20.5t6.5 -32.5t-9.5 -33t-20.5 -20.5t-31.5 -10t-35 -3t-37 1t-28.5 1v747h-252z" />
<glyph unicode="c" horiz-adv-x="870" d="M101 652l1 -21l7 -330q2 -12 5 -32.5t22.5 -73t48 -91t87 -71.5t134.5 -33q291 0 362 254q20 66 20 126q0 17 -2 34l-272 -2v-13q0 -31 -1 -47t-7 -36.5t-23.5 -30t-44.5 -9.5q-33 0 -51 23t-20 45l-2 23v333q0 2 1 8.5t4 19.5t10 23.5t21.5 18.5t34.5 8q27 0 43.5 -10 t23.5 -33.5t9 -43t2 -54.5l274 10v22.5t-5 54.5t-16 77t-36.5 81t-60.5 75.5t-94.5 52t-135.5 20.5q-76 -2 -136 -24.5t-95 -57.5t-58.5 -78t-32.5 -85q-10 -43 -14 -77q-4 -28 -3 -48v-8z" />
<glyph unicode="d" horiz-adv-x="940" d="M143 1018l7 -1018h311h28h66t63.5 5t65.5 15.5t55.5 32t47 52t28.5 78.5t14 108l11 420q0 53 -4.5 88t-16.5 74.5t-38.5 64.5t-68.5 47.5t-109.5 31.5t-158.5 9l-6 -270h52.5t36 -4t27.5 -10.5t13 -20.5t9.5 -33.5t1.5 -50.5q0 -61 -2.5 -118.5t-4.5 -84.5l-2 -26 q-2 -29 -8 -50.5t-12 -35t-18.5 -21.5t-20.5 -12t-25.5 -5t-26.5 0t-30.5 4t-32.5 3q0 6 1 76.5t2 182.5t2 218t4 182l2 76z" />
<glyph unicode="e" horiz-adv-x="761" d="M143 1022l7 -1016l477 -8l4 221h-225v178l225 9v210h-225v195h225v219z" />
<glyph unicode="f" horiz-adv-x="759" d="M143 1026l4 -1026h295l-8 412l201 8l6 231l-215 -10l-4 156l223 6l2 223h-504z" />
<glyph unicode="g" horiz-adv-x="806" d="M92 254q0 -10 2 -28.5t18.5 -63.5t44 -81t86 -63.5t136.5 -27.5q94 0 161.5 27.5t98.5 59.5t47 76t18.5 58t2.5 27v260h-293v-160h59v-2q0 -12 1 -39t-17.5 -54.5t-55.5 -27.5q-29 0 -46 21.5t-19 44.5l-2 20v438v9q0 10 3 22t9 25.5t19.5 21.5t33.5 8q18 0 31.5 -7 t21 -19.5t12.5 -26.5t6 -28.5t1 -25.5v-18v-8h242q2 10 2 24.5t-3 51.5t-12.5 69.5t-31 72.5t-53 69t-87 48.5t-125.5 19.5q-86 0 -149.5 -26t-93 -61.5t-47 -71.5t-19.5 -63l-2 -24v-547z" />
<glyph unicode="h" horiz-adv-x="983" d="M164 0h256v479l131 2l16 -481h252v1018l-239 4l-2 -281l-136 -4l-2 289l-276 -4v-1022z" />
<glyph unicode="i" horiz-adv-x="583" d="M164 2l256 -2l-2 1024l-250 -6z" />
<glyph unicode="j" horiz-adv-x="808" d="M32 332q3 -51 21.5 -114.5t51 -110t95 -77t148.5 -30.5q61 0 110.5 11.5t85.5 29.5t61.5 54t42 72t27.5 95.5t15 112.5t7 136t3 153.5t2.5 177t4.5 194.5l-289 -4q6 -240 6 -396q0 -223 -12 -276q-12 -57 -52 -61q-8 -2 -16 -2q-20 0 -35.5 15.5t-22.5 37t-11.5 52 t-4.5 55t2 52.5t3 37t4 13l-234 -10q-2 -12 -6 -31.5t-7 -77.5q-2 -28 -2 -55t2 -53z" />
<glyph unicode="k" horiz-adv-x="931" d="M164 -4h242l12 422l178 -422h262l-237 600l249 262l-159 184l-297 -307v299l-250 -6v-1032z" />
<glyph unicode="l" horiz-adv-x="696" d="M164 0l493 6l9 275l-234 -5l2 746h-264z" />
<glyph unicode="m" horiz-adv-x="1116" d="M164 0h266l-2 549l137 -111l107 117l20 -555l260 6l-12 1020h-268l-111 -209l-139 207h-254z" />
<glyph unicode="n" horiz-adv-x="1030" d="M164 1022l6 -1022h279l-9 520l144 -158l12 -362h270l-6 1024h-280l-2 -246l-205 246z" />
<glyph unicode="o" horiz-adv-x="880" d="M82 557q0 -141 23.5 -248.5t60.5 -168t87 -97.5t94 -47q37 -8 74 -8h15q66 4 114 17t97 47t81 89.5t51.5 146.5t19.5 216q0 68 -2 114t-10.5 108t-27 105t-47 87.5t-76.5 73t-112 44.5v-747q-20 -37 -75 -37q-33 0 -50.5 12t-19.5 27v12v410v2t2 9l4 14t7 15.5t11.5 14.5 t15.5 10t21 4q33 0 49 -18v272q-8 0 -22 2q-7 1 -21 1t-36 -1q-43 -2 -82 -13t-86 -44t-81 -83t-56.5 -138t-22.5 -203z" />
<glyph unicode="p" horiz-adv-x="860" d="M164 0l6 1022q72 0 158 2t134 3q24 1 50.5 1t55.5 -1q59 -1 89.5 -5t65.5 -17.5t50 -34t30.5 -53t20.5 -76.5t5 -106q0 -57 -12 -102t-29.5 -75t-50 -49.5t-58.5 -29.5t-73 -15t-73.5 -5h-75.5h-21l8 -459h-280zM436 659q4 -2 12 -3h8q8 0 24 1q22 2 38.5 10.5t29.5 30 t13 56.5q0 23 -4 36t-18.5 18t-23.5 5t-36 -1t-41 -1z" />
<glyph unicode="q" horiz-adv-x="851" d="M82 262l2 473q0 47 39 125q88 178 303 178q63 0 112.5 -18.5t81 -47t51 -77.5t29 -94t13.5 -111q3 -45 3 -81q0 -18 -1 -35q-2 -48 -4 -120.5t-2 -113.5q-59 27 -111 30q-17 1 -36 1q-39 0 -87 -4l-6 309q0 8 -2 20.5t-15.5 32t-33.5 19.5q-25 0 -37 -16.5t-14 -33.5 l-2 -16l-7 -371q110 19 191 19q103 0 160 -31q2 0 48 -38t91 -75.5t45 -35.5l-221 -101l-86 60q-8 -12 -27.5 -29t-84 -44.5t-136.5 -29.5h-16q-32 0 -60 6q-35 8 -59.5 23.5t-45 34t-32.5 40t-20.5 44t-12.5 42t-6 34t-3 23.5z" />
<glyph unicode="r" horiz-adv-x="917" d="M164 0v1024h391q57 0 102 -20.5t70 -49t41 -67.5t21.5 -71t5.5 -60q0 -51 -8.5 -94.5t-19.5 -68t-23.5 -41.5t-18.5 -24l-8 -6l7 -7t19.5 -20.5t23.5 -28.5t19.5 -36.5t8.5 -42.5v-387h-242q0 49 -1 125t-1 131v100q0 20 -3 33.5t-11.5 21t-14.5 12.5t-22.5 7t-23.5 2 h-30.5h-33.5v-432h-248zM416 659q6 0 28 -1h18.5h11.5q7 1 22.5 4.5t20.5 10.5t10 19.5t5 30.5q0 14 -1 23.5t-2 17.5t-5 13t-6 9.5t-10 6.5t-11 4t-15.5 2h-18.5h-22.5h-24.5v-140z" />
<glyph unicode="s" horiz-adv-x="786" d="M62 289q1 -37 8.5 -72t30 -76t57.5 -70.5t97 -50t142 -20.5q78 0 137.5 19.5t93.5 49t55.5 67.5t29.5 73t10 67.5t0 48t-2 19.5q0 72 -41 123t-98.5 77.5t-115.5 48t-98 47.5t-40 60l-1 8q-1 7 3 18t11 21.5t25.5 17.5t45.5 7q33 0 50 -22.5t17 -47.5v-22l244 -8 q2 6 2 19.5t-3 49t-12.5 69.5t-33 75t-59 69.5t-96 49t-138.5 20.5q-217 0 -299 -186l-21 -66v-172q0 -43 39 -74.5t94.5 -49t110.5 -35t94 -44t39 -65.5q-2 -2 1 -18.5t-14 -37t-50 -20.5q-29 0 -49.5 11.5t-27.5 24.5t-10 30.5t-2 24.5t1 11h-226q0 -6 -1 -19v-19v-31z " />
<glyph unicode="t" horiz-adv-x="886" d="M102 1022l2 -258l201 -2l12 -762l295 12l-14 764l186 12l-6 244z" />
<glyph unicode="u" horiz-adv-x="909" d="M123 384q0 -28 6 -82t17.5 -89t35 -80t56 -70.5t86 -44t120.5 -18.5q72 0 128.5 16.5t92 39t60.5 60.5t37 67.5t18 74.5t6 67.5v57.5v20v621h-247v-653q0 -4 1 -12.5t-1 -27t-9.5 -33.5t-25 -26.5t-41.5 -11.5q-23 0 -38 11.5t-23.5 25.5t-11.5 39.5t-3 43t1 44.5t1 35 l12 565h-260l-18 -537v-30v-73z" />
<glyph unicode="v" horiz-adv-x="915" d="M31 1022l311 -1022h240l303 1006l-277 6l-147 -434l-139 444h-291z" />
<glyph unicode="w" horiz-adv-x="1318" d="M31 1022l248 -1022h251l99 317l73 -317h248l338 1024l-262 2l-170 -405l-98 403l-191 -2l-151 -391l-111 391h-274z" />
<glyph unicode="x" horiz-adv-x="894" d="M41 1024h281l118 -225l135 225h256l-256 -496l289 -528h-309l-115 256l-125 -256h-262l256 496z" />
<glyph unicode="y" horiz-adv-x="999" d="M61 1016l322 14l96 -248l148 244l321 -2l-330 -549l-6 -475h-295l13 494z" />
<glyph unicode="z" horiz-adv-x="878" d="M123 0l604 14l6 240l-254 -27l250 494l6 305l-583 4l-13 -266l293 14l-297 -522z" />
<glyph unicode="{" horiz-adv-x="772" d="M59 719q23 25 57 63.5t64.5 82.5t53 88t24.5 79v185q0 63 17.5 113t44 90t61.5 69t74 51q84 51 194 74l-6 -301q-27 -14 -60.5 -53t-41.5 -107v-33l2 -30v-27q-2 -33 -16.5 -72t-37 -78t-52 -76.5t-62.5 -68.5l57 -74l53 -78l41 -69l15 -53q-2 -29 -2 -44.5v-27.5v-29 v-37q0 -61 33.5 -96t68.5 -47l6 -317q-100 18 -186 63q-72 41 -134.5 117t-72.5 205q-2 31 0 59v49l2 41q0 31 -20.5 71t-50 80t-63.5 76.5t-63 61.5z" />
<glyph unicode="|" horiz-adv-x="618" d="M164 0l2 1427h287l2 -1427h-291z" />
<glyph unicode="}" horiz-adv-x="772" d="M121 1614l6 -301q27 -14 61.5 -53t40.5 -107v-33v-30v-27q0 -33 14.5 -72t38 -78t52 -76.5t61.5 -68.5l-55 -74l-55 -78l-41 -69l-15 -53q2 -29 3 -44.5t1 -27.5v-29v-37q-2 -61 -35.5 -96t-68.5 -47l-6 -317q102 18 186 63q72 41 135.5 117t71.5 205q2 31 0 59v49l-2 41 q0 31 21.5 71t50 80t62.5 76.5t63 61.5q-23 25 -56.5 63.5t-64.5 82.5t-53.5 88t-24.5 79v185q0 63 -17.5 113t-44 90t-61.5 69t-72 51q-86 51 -196 74z" />
<glyph unicode="~" horiz-adv-x="925" d="M111 274l43 256q18 12 50 21.5t63.5 15.5t58 9.5t34.5 3.5q41 0 83 -8.5t85 -18.5t88.5 -18.5t92.5 -8.5q41 0 66.5 16.5t47.5 28.5l-45 -270l-51 -18l-43 -13l-35 -4q-37 0 -78 9.5t-85 21.5t-90 21.5t-89 9.5t-78.5 -8.5t-62.5 -18.5q-31 -12 -55 -27z" />
<glyph unicode="&#xa1;" horiz-adv-x="579" d="M164 985l4 -985h289v985h-293zM166 1090h289v274h-289v-274z" />
<glyph unicode="&#xa3;" horiz-adv-x="1126" d="M129 340v250h145v53h-145v250h145v102q0 39 7.5 80t32 96.5t64.5 97.5t112.5 70.5t168.5 28.5q90 0 160 -31.5t107 -78t60.5 -92.5t29.5 -76l6 -33l-281 -66q0 4 -1 8.5t-6 15.5t-13 20t-24.5 16.5t-37.5 5.5q-72 0 -89 -35t-17 -129h139v-248h-141v-55h141v-248h-143 v-82h536v-260h-811v340h-145z" />
<glyph unicode="&#xa4;" horiz-adv-x="1105" d="M141 455v200h115v52h-115v202h115l2 176q0 49 41 121q94 162 332 162q94 0 165.5 -27.5t105.5 -66.5t55.5 -77t25.5 -64l4 -27l-262 -98v8t-4 21.5t-13.5 26.5t-32 21.5t-52.5 10.5q-43 0 -65.5 -35t-25.5 -70l-2 -35v-47h140v-200h-138v-54h138v-200h-138v-45 q2 -2 0 -14.5t3.5 -32t12.5 -38t26.5 -31.5t43.5 -13q55 0 87 26.5t32 71.5l252 -135q-4 -10 -12 -26.5t-40 -58.5t-72 -74t-111.5 -58.5t-155.5 -26.5q-70 0 -127 19.5t-92 47t-60.5 65.5t-38 69.5t-18.5 66.5t-7 47.5t-1 18.5v121h-113z" />
<glyph unicode="&#xa5;" horiz-adv-x="1284" d="M113 1364l333 4l197 -364l193 364l327 -12l-237 -422h96v-232h-227l-2 -2v-79h229v-230h-229v-391h-308v389h-249v232h249v79h-249v234h120z" />
<glyph unicode="&#xa7;" horiz-adv-x="1220" />
<glyph unicode="&#xa8;" horiz-adv-x="1017" d="M229 1364v242h203l-2 -242h-201zM594 1368v242h203l-2 -242h-201z" />
<glyph unicode="&#xa9;" horiz-adv-x="1087" d="M20 817q12 215 148 369q68 76 160 122t192 50q106 4 206.5 -40t174.5 -124q147 -158 156 -389q4 -115 -32 -225.5t-110 -196.5q-76 -90 -178 -137q-106 -47 -221 -43q-109 4 -208 58t-167 142q-135 178 -121 414zM293 864l4 -235q4 -29 12 -56q18 -66 60 -104 q27 -27 65 -41q33 -12 76 -14q57 -2 108 16q55 20 95 59q49 55 63 144q6 37 4 76l-194 -2q2 -27 0 -45q-4 -23 -15 -35q-6 -10 -17 -14.5t-22 -0.5q-12 -2 -21 3.5t-17 13.5q-8 12 -13 30q-2 8 -2 17v237q0 8 2 15q4 16 15 26q6 8 15 12.5t19 4.5t20.5 -3t18.5 -12 q10 -14 15 -38q2 -18 2 -50h196q0 41 -6 80q-16 82 -61 131q-35 37 -84 56q-45 14 -96 14q-53 0 -101 -19q-49 -18 -82 -57q-45 -51 -57 -137q-4 -35 -2 -72z" />
<glyph unicode="&#xaa;" horiz-adv-x="2048" />
<glyph unicode="&#xab;" horiz-adv-x="1171" d="M90 401l195 -401h301l-168 356h104l199 -356h287l-201 399l221 418h-295l-225 -385h-107l177 387h-287z" />
<glyph unicode="&#xac;" horiz-adv-x="2048" />
<glyph unicode="&#xad;" horiz-adv-x="667" d="M82 246v225h504v-223z" />
<glyph unicode="&#xae;" horiz-adv-x="1087" d="M20 819q12 215 148 369q68 76 160 122t192 50q106 4 206.5 -40t174.5 -124q147 -158 156 -389q4 -115 -32 -225.5t-110 -196.5q-76 -90 -178 -137q-106 -47 -221 -43q-109 4 -208 58t-167 143q-135 178 -121 413zM334 418h174v303h22.5h21.5t17.5 -2t16.5 -5t9 -8.5 t7 -14.5t2 -23v-71t1 -91t1 -88h168v270q0 14 -5 29.5t-13 27t-16.5 20.5t-11.5 11l-7 8q6 4 15 13.5t23.5 51.5t14.5 97q0 29 -6 56.5t-22.5 59.5t-52.5 52.5t-85 20.5h-274v-717zM510 879v98h17.5h15.5h12t11 -1t8.5 -3t6.5 -4t4 -6.5t4 -10.5l2 -12t1 -16q0 -12 -4 -21.5 t-7 -13.5t-14.5 -7t-15.5 -3h-20.5h-20.5z" />
<glyph unicode="&#xaf;" horiz-adv-x="770" d="M147 1378v224h504v-222z" />
<glyph unicode="&#xb0;" horiz-adv-x="2048" d="M104 1153q0 57 23 99t56.5 70t73.5 41t77 13q43 0 85 -13t74.5 -41t53 -72t20.5 -103q0 -43 -11 -73t-24 -50q-16 -23 -34 -37l-113 135q2 4 6 11q2 4 4 11t2 13q0 10 -15 31.5t-37.5 21.5t-40 -17t-17.5 -42q0 -27 22.5 -41t34.5 -14q8 0 21 8q6 4 10 8l114 -135 q-14 -16 -36 -29q-18 -10 -46 -19t-67 -9q-63 0 -108.5 21.5t-73 55t-41 75.5t-13.5 81z" />
<glyph unicode="&#xb1;" horiz-adv-x="962" d="M68 78v250h735l2 -250h-737zM68 657v250h235v234h262v-234h238v-245h-240v-252l-260 2v245h-235z" />
<glyph unicode="&#xb6;" horiz-adv-x="1220" d="M250 809q0 -66 21.5 -113t49 -69.5t61.5 -34.5t49 -14.5t22 -2.5h231l-2 261q-12 0 -33.5 -1t-29 -1t-22.5 1t-19.5 4t-13.5 6t-10 10t-6 15.5t-5 21.5t-1 29.5t-1 36.5t1 34t2 25t5 18t6 13.5t12.5 9.5t15.5 5t22.5 2t26.5 1t33.5 0t39.5 -1v-1065h229v1065h49l-2 -1065 h213v1368h-674q-78 0 -133 -21.5t-84 -58.5t-41 -73.5t-12 -75.5v-330z" />
<glyph unicode="&#xb7;" horiz-adv-x="577" d="M129 530.5q2 67.5 50 115.5t116 48q72 0 121 -49t49 -121t-53.5 -121t-124.5 -45q-68 4 -114 54.5t-44 118z" />
<glyph unicode="&#xb8;" horiz-adv-x="2048" d="M241 -93q-1 32 19 97l238 -33q4 -25 2 -46t-2 -44q-4 -29 -17 -49q-10 -23 -33.5 -44t-64.5 -34q-6 41 -19.5 65.5t-26.5 35t-23.5 13.5t-12.5 1h-16h-19.5t-21.5 -4q-2 10 -3 42z" />
<glyph unicode="&#xbb;" horiz-adv-x="1171" d="M90 817h295l225 -385h107l-176 387h286l201 -418l-194 -401h-302l168 356h-104l-199 -356h-286l200 399z" />
<glyph unicode="&#xbc;" horiz-adv-x="1388" d="M43 1020v164l150 221l155 2l4 -727h-178l2 422zM123 2l774 1399h246l-766 -1403zM733 360l289 474l192 -3l-2 -462l80 -2l-4 -177h-76v-190h-170l-2 193h-303zM901 375h133l-2 219z" />
<glyph unicode="&#xbd;" horiz-adv-x="1388" d="M43 1020v164l150 221l155 2l4 -727h-178l2 422zM123 2l774 1399h246l-766 -1403zM834 0h458l2 156h-258q0 29 40 82t89 106t90 128t41 142q0 86 -50 151.5t-136 65.5q-238 0 -248 -286l150 -6q2 4 -1 29.5t13 55t49 29.5q25 0 38 -16t15 -35v-16q0 -41 -29.5 -81 t-72.5 -77t-86 -82t-73.5 -116.5t-30.5 -161.5v-68z" />
<glyph unicode="&#xbe;" horiz-adv-x="1605" d="M94 796.5q-2 -14.5 3 -39t10.5 -52t24 -57.5t43 -53.5t65.5 -38.5t94 -15q195 -2 233 153q6 27 6 60l-4 252q0 4 -1 9t-10 19.5t-22.5 25.5t-43 20.5t-70.5 9.5q86 84 143 137l-4 137h-450l-5 -166h185l-172 -186l108 -111q0 2 14.5 14.5t39 25.5t45.5 13q29 0 44 -14 t17 -28.5t0 -14.5v-111q0 -6 -1 -16t-14.5 -28.5t-41.5 -18.5q-23 0 -36 13.5t-13 25.5l-2 12v37h-185q2 0 0 -14.5zM340 2l774 1399h246l-766 -1403zM950 360l289 474l193 -3l-2 -462l79 -2l-4 -177h-75v-190h-170l-3 193h-303zM1118 375h133l-2 219z" />
<glyph unicode="&#xbf;" horiz-adv-x="997" d="M164 340q0 -12 2 -32.5t7 -46t17.5 -54.5t30 -57.5t47 -55t67.5 -46t92 -32t118 -12.5q147 0 238 110.5t91 254.5q0 92 -32.5 172t-78.5 133t-92 99t-78 91t-32 86v162h-129v66h133l-2 247h-284v-247h127v-66h-130v-119q0 -90 33 -163.5t78 -120.5t91 -90.5t78 -95.5 t32 -109v-13.5t-5 -27t-13.5 -34.5t-28 -26.5t-43.5 -11.5q-49 2 -77 38t-30 73l-2 34l-223 -94q-2 0 -2 -12z" />
<glyph unicode="&#xc0;" horiz-adv-x="1038" d="M41 0l352 1366l-172 201h285l100 -203h41l350 -1364h-307l-55 223l-232 -2l-51 -221h-311zM455 432l137 4l-72 256z" />
<glyph unicode="&#xc1;" horiz-adv-x="1038" d="M41 0l350 1368h37l123 199h258l-160 -201l348 -1366h-307l-55 223l-232 -2l-51 -221h-311zM455 432l137 4l-72 256z" />
<glyph unicode="&#xc2;" horiz-adv-x="1038" d="M41 0l350 1368h64l-68 127l262 104l246 -104l-88 -164l-160 76l-84 -37h86l348 -1370h-307l-55 223l-232 -2l-51 -221h-311zM455 432l137 4l-72 256z" />
<glyph unicode="&#xc3;" horiz-adv-x="1017" d="M31 0l350 1368l258 2l348 -1370h-307l-55 223l-232 -2l-51 -221h-311zM279 1368l29 176q12 8 33.5 14.5t42.5 10.5t39 6.5t23 2.5q27 0 55.5 -6t57 -12.5t59 -12.5t61.5 -6q28 0 45 11.5t32 19.5l-30 -185l-34 -13l-29 -9l-24 -2q-24 0 -51.5 6.5t-57 14.5t-60.5 14.5 t-59.5 6.5t-52.5 -6t-42 -12q-21 -9 -37 -19zM444 432l138 4l-72 256z" />
<glyph unicode="&#xc4;" horiz-adv-x="1017" d="M31 0l350 1368l258 2l348 -1370h-307l-55 223l-232 -2l-51 -221h-311zM229 1364v242h203l-2 -242h-201zM444 432l138 4l-72 256zM594 1368v242h203l-2 -242h-201z" />
<glyph unicode="&#xc5;" horiz-adv-x="1017" d="M31 0l350 1368l258 2l348 -1370h-307l-55 223l-232 -2l-51 -221h-311zM360 1591.5q7 43.5 25 78.5q26 51 65.5 78t82 36.5t84 3t74.5 -23.5q39 -19 70.5 -49.5t47.5 -70.5t14.5 -88.5t-28.5 -100.5q-20 -39 -43 -60.5t-44 -33.5q-25 -13 -47 -18l-40 172q4 3 11 7l8 8 t8 11q5 9 1 34.5t-24 36t-43 3t-35 -29.5q-12 -24 1.5 -46.5t24.5 -28.5q7 -3 22 -2q8 1 13 3l40 -173q-20 -7 -45 -9q-21 -1 -50 4t-63 22q-57 29 -87.5 69t-40 82t-2.5 85.5zM444 432l138 4l-72 256z" />
<glyph unicode="&#xc6;" horiz-adv-x="1456" d="M139 0l586 1364l614 4l-4 -252l-319 -8l4 -258h319l-4 -268l-315 -9v-313l319 -4l-8 -256h-606l2 219l-195 -2l-98 -217h-295zM608 426h119v287z" />
<glyph unicode="&#xc7;" horiz-adv-x="923" d="M102 334l4 751q0 49 41 121q94 162 332 162q88 0 155.5 -25.5t105.5 -63.5t63.5 -90t35 -96t11.5 -91.5t1 -64t-1 -26.5h-277v97v8t-4 21.5t-13 26.5t-31.5 21.5t-53.5 10.5q-43 0 -65.5 -35t-24.5 -70l-2 -35l2 -546q2 -2 0 -14.5t3 -32t12 -38t26.5 -31.5t44.5 -13 q55 -2 80.5 42t24.5 97t-1 98q-2 8 -2 12h269v-202q0 -10 -1 -28.5t-15.5 -68t-41 -89.5t-87 -79.5t-144.5 -54.5q4 -31 4 -45q-4 -23 -2 -45q-4 -27 -19 -49q-8 -20 -32.5 -42t-65.5 -36q-4 43 -18 68q-12 25 -27 35q-12 10 -22.5 12t-14.5 2h-16q-6 0 -18.5 -1t-22.5 -3 q-2 10 -2 43q-2 37 10 78q-57 20 -98 61t-59.5 79t-30 83t-12.5 61.5t-1 24.5z" />
<glyph unicode="&#xc8;" horiz-adv-x="901" d="M143 1366l2 -1366h615l8 256l-319 4v313l315 9l4 268h-319l-3 258l318 8l4 252l-209 -2l-100 203h-285l174 -201z" />
<glyph unicode="&#xc9;" horiz-adv-x="901" d="M143 1366h183l123 203h260l-162 -201h221l-4 -252l-318 -8l3 -258h319l-4 -268l-315 -9v-313l319 -4l-8 -256h-615z" />
<glyph unicode="&#xca;" horiz-adv-x="901" d="M143 1366h158l-63 115l258 170l258 -86l-95 -168l-151 57l-117 -88l377 2l-4 -252l-318 -8l3 -258h319l-4 -268l-315 -9v-313l319 -4l-8 -256h-615z" />
<glyph unicode="&#xcb;" horiz-adv-x="901" d="M143 1368h138v49h-88v205h202l-2 -205h-82l-4 -51l301 2v47h-88v205h203l-2 -205h-82v-47h129l-4 -252l-318 -8l3 -258h319l-4 -268l-315 -9v-313l319 -4l-8 -256h-615z" />
<glyph unicode="&#xcc;" horiz-adv-x="786" d="M205 1597l151 -233h-106v-1364h268l27 1364h-49l-72 233h-219z" />
<glyph unicode="&#xcd;" horiz-adv-x="786" d="M205 1364h86l71 233h220l-152 -233h70v-1364h-269z" />
<glyph unicode="&#xce;" horiz-adv-x="786" d="M250 0h268l27 1364h-119l104 47l160 -76l88 164l-246 105l-262 -105l74 -135h-94v-1364z" />
<glyph unicode="&#xcf;" horiz-adv-x="499" d="M16 1425v205h201l-2 -205h-82v-61h236l-2 59h-86v205h202l-2 -205h-82l-28 -1421h-269v1423h-86z" />
<glyph unicode="&#xd0;" horiz-adv-x="995" d="M39 791h104v577h252q115 0 185.5 -4t133 -14.5t89 -31t53.5 -53t27 -79.5t9 -112.5t1 -151.5q-2 -78 -2 -123q0 -211 -3 -339t-19.5 -223.5t-31 -138.5t-59.5 -68.5t-79.5 -27.5t-116.5 -2h-27h-412v606h-102zM430 268h66.5t45 5.5t29 11.5t14.5 22.5t7 32.5v51l18 639 q0 61 -26.5 72.5t-141.5 11.5l-4 -323h107q2 0 2 -185h-113z" />
<glyph unicode="&#xd1;" horiz-adv-x="1087" d="M164 1360l166 4l-19 143q12 12 37 24.5t48.5 23t45 18.5t27.5 8q33 8 68.5 10t73.5 2t77 3t76 12q33 8 50 24.5t34 30.5l24 -209l-36 -22l-33 -17l-27 -10q-31 -6 -66.5 -7t-73.5 -1t-78 -1t-74.5 -9.5t-61.5 -22.5h-4l211 -360l8 364l287 -4l-9 -1362h-270l-4 344 l-174 268l4 -618h-299z" />
<glyph unicode="&#xd2;" d="M123 778l4 -483q0 -6 1 -17.5t9 -43t21.5 -60.5t42 -64.5t66.5 -61t98.5 -44t134.5 -18.5q63 0 116.5 12t91 32.5t68.5 48t49.5 57.5t31.5 59.5t19.5 57.5t9.5 49.5t3 33.5v12v705q0 78 -49 152.5t-142 119.5l-131 252h-284l174 -201v-282l3 2t8 6t11 7t17.5 5t23.5 2 q39 0 60.5 -30.5t21.5 -69.5v-631q0 -115 -94 -115q-88 0 -88 109l2 993q-80 -16 -130 -40.5t-86 -63.5t-53.5 -106.5t-24.5 -155.5t-5 -228z" />
<glyph unicode="&#xd3;" d="M123 778q-2 139 5 227.5t24.5 156t53.5 106.5t86 63.5t130 40.5l-2 -993q0 -109 88 -109q94 0 94 115v631q0 39 -21.5 69.5t-60.5 30.5q-20 2 -35.5 -4t-21.5 -11t-6 -7v282l121 193h262l-185 -226q113 -41 173.5 -122.5t60.5 -167.5v-705q0 -8 -1 -21.5t-8.5 -50 t-19.5 -71.5t-42 -77t-68.5 -71.5t-104 -50t-145.5 -20.5q-74 0 -134.5 18.5t-98.5 44t-66.5 60t-42 64.5t-21.5 61.5t-9 43t-1 17.5z" />
<glyph unicode="&#xd4;" d="M123 778q-2 139 5 227.5t24.5 156t53.5 106.5t86 63.5t130 40.5l-2 -993q0 -109 88 -109q94 0 94 115v631q0 39 -21.5 69.5t-60.5 30.5q-20 0 -35.5 -7t-21.5 -13t-6 -9l2 293l-68 127l262 105l246 -105l-88 -164l-160 76l-84 -37q41 -6 79 -17t84 -35.5t80 -59.5 t56.5 -91t22.5 -126v-705q0 -8 -1 -21.5t-8.5 -50t-19.5 -71.5t-42 -77t-68.5 -71.5t-104 -50t-145.5 -20.5q-74 0 -134.5 18.5t-98.5 44t-66.5 60t-42 64.5t-21.5 61.5t-9 43t-1 17.5z" />
<glyph unicode="&#xd5;" d="M123 778q-2 139 5 227.5t24.5 156t53.5 106.5t86 63.5t130 40.5l-2 -993q0 -109 88 -109q94 0 94 115v631q0 39 -21.5 69.5t-60.5 30.5q-20 2 -35.5 -4t-21.5 -11t-6 -7v282q205 0 318.5 -100t113.5 -223v-705q0 -8 -1 -21.5t-8.5 -50t-19.5 -71.5t-42 -77t-68.5 -71.5 t-104 -50t-145.5 -20.5q-74 0 -134.5 18.5t-98.5 44t-66.5 60t-42 64.5t-21.5 61.5t-9 43t-1 17.5zM219 1357l29 176q12 8 33.5 14.5t42.5 10.5t39 6.5t23 2.5q27 0 55.5 -6t57 -12.5t59 -12.5t61.5 -6q28 0 45 11.5t32 19.5l-30 -185l-34 -13l-29 -9l-24 -2 q-24 0 -51.5 6.5t-57 14.5t-60.5 14.5t-59.5 6.5t-52.5 -6t-42 -12q-21 -9 -37 -19z" />
<glyph unicode="&#xd6;" d="M123 778q-2 279 34 394.5t146 164.5v56h-86v209h201v-209h-82v-45q45 16 86 24l-2 -993q0 -109 88 -109q94 0 94 115v631q0 39 -21.5 69.5t-60.5 30.5q-20 2 -35.5 -4t-21.5 -11t-6 -7v282q117 0 211 -39v62h-86v207h202l-2 -207h-82v-74q92 -47 140.5 -121t48.5 -151 v-705q0 -8 -1 -21.5t-8.5 -50t-19.5 -71.5t-42 -77t-68.5 -71.5t-104 -50t-145.5 -20.5q-74 0 -134.5 18.5t-98.5 44t-66.5 60t-42 64.5t-21.5 61.5t-9 43t-1 17.5z" />
<glyph unicode="&#xd7;" horiz-adv-x="1032" d="M164 274l166 168l-164 164l184 187l166 -166l168 168l174 -174l-170 -168l178 -179l-186 -182l-172 172l-168 -166z" />
<glyph unicode="&#xd8;" d="M70 2l80 193q-10 25 -15.5 50t-7.5 38v12l-4 483q0 139 7 227.5t23.5 156t52.5 106.5t85 63.5t129 40.5v-1003q4 -98 88 -99q94 0 94 115v432l-145 -354v475l71 178q-18 0 -35.5 -5t-26.5 -10t-9 -7v282q94 0 174 -24l20 49h193l-58 -133q102 -94 103 -215v-705 q0 -8 -1 -21.5t-8.5 -50t-19.5 -71.5t-42 -77t-68.5 -71.5t-104 -50t-145.5 -20.5q-129 2 -217 53l-17 -41z" />
<glyph unicode="&#xd9;" horiz-adv-x="1067" d="M154 338q0 -45 22.5 -101.5t64.5 -109.5t114.5 -89t162.5 -36q100 0 179 34t123 84t66.5 101t22.5 98q-6 639 -8 1047h-67l-101 203h-284l174 -201l2 -997q-14 -31 -24.5 -45.5t-33 -25.5t-57.5 -11q-33 0 -51.5 22.5t-20.5 44.5l-2 23l-2 989h-280v-1030z" />
<glyph unicode="&#xda;" horiz-adv-x="1067" d="M154 338v1028h59l123 203h262l-164 -201l2 -989q0 -4 1 -9t4 -21.5t10.5 -28t22.5 -21.5t36 -10q35 0 57.5 11t32.5 25.5t25 45.5l-2 997h278q8 -1047 8 -1049q0 -47 -22.5 -98t-66.5 -101t-123 -84t-179 -34q-90 0 -162.5 36t-114.5 89t-64.5 109.5t-22.5 101.5z" />
<glyph unicode="&#xdb;" horiz-adv-x="1067" d="M154 338l2 1026h196l-82 109l258 190l271 -94l-94 -168l-152 65l-119 -96l2 -991q0 -4 1 -9t4 -21.5t10.5 -28t22.5 -21.5t36 -10q35 0 57.5 11t32.5 25.5t25 45.5l-2 997h278q0 -184 2 -444t4 -432l2 -173q0 -47 -22.5 -98t-66.5 -101t-123 -84t-179 -34 q-90 0 -162.5 36t-114.5 90t-64.5 109.5t-22.5 100.5z" />
<glyph unicode="&#xdc;" horiz-adv-x="1071" d="M154 338v1030h116v45h-86v207h203l-2 -207h-82v-45h131l2 -989q0 -4 1 -9t4 -21.5t10.5 -28t22.5 -21.5t36 -10q35 0 57.5 11t32.5 25.5t25 45.5l-2 997h116v49h-86v205h201l-2 -205h-82v-49h131q0 -184 2 -444t4 -432l2 -173q0 -47 -22.5 -98t-66.5 -101t-123 -84 t-179 -34q-90 0 -162.5 36t-114.5 90t-64.5 109.5t-22.5 100.5z" />
<glyph unicode="&#xe0;" horiz-adv-x="1263" d="M190 0l277 1026h74l-148 172h228l94 -176h28l322 -1022h-268l-185 508l-43 -176l97 -2l51 -158l-209 -6l-47 -166h-271z" />
<glyph unicode="&#xe1;" horiz-adv-x="1263" d="M190 0l277 1026h53l92 180h230l-154 -182l55 -2l322 -1022h-268l-185 508l-43 -176l97 -2l51 -158l-209 -6l-47 -166h-271z" />
<glyph unicode="&#xe2;" horiz-adv-x="1263" d="M190 0l277 1026l96 -2l-59 111l231 92l215 -92l-78 -144l-139 66l-76 -33l86 -2l322 -1022h-268l-185 508l-43 -176l97 -2l51 -158l-209 -6l-47 -166h-271z" />
<glyph unicode="&#xe3;" horiz-adv-x="956" d="M41 0l276 1026l277 -4l321 -1022h-268l-184 508l-43 -176l76 -2l51 -158l-189 -6l-47 -166h-270zM251 1023l26 165q10 8 29 14t37.5 10t34 6t20.5 2q24 0 49 -5.5t50 -12t52 -12t55 -5.5q24 0 39 10.5t28 18.5l-27 -174l-30 -11l-25 -9l-21 -2q-22 0 -46 6t-50 13.5 t-53 14t-52 6.5t-46 -5.5t-37 -12.5q-18 -8 -33 -17z" />
<glyph unicode="&#xe4;" horiz-adv-x="956" d="M41 0l276 1026l277 -4l321 -1022h-268l-184 508l-43 -176l76 -2l51 -158l-189 -6l-47 -166h-270zM180 1017v204h203l-2 -204h-201zM545 1021v203h203l-2 -203h-201z" />
<glyph unicode="&#xe5;" horiz-adv-x="956" d="M41 0l276 1026h84q-25 27 -34 57q-10 35 -8.5 71t12.5 65q18 45 46.5 70.5t61.5 36.5t67 10t62 -11q31 -12 58.5 -33.5t44 -52.5t19.5 -71t-15 -85q-12 -33 -28.5 -52t-33.5 -32q-18 -12 -37 -18l-45 135q4 2 9 6q2 2 6 7.5t6 9.5q2 8 -3 29.5t-21.5 27.5t-35 -2 t-24.5 -29q-8 -20 4 -36.5t23 -20.5q6 -2 16 0q6 2 10 4l354 -1112h-268l-184 508l-43 -176l76 -2l51 -158l-189 -6l-47 -166h-270z" />
<glyph unicode="&#xe6;" horiz-adv-x="995" d="M0 0h270l56 166l90 4l-2 162h-37l55 186l6 -516l432 -2l2 221h-225v178l225 9v210h-225v195h225v219l-524 -8z" />
<glyph unicode="&#xe7;" horiz-adv-x="870" d="M101 653.5q-1 14.5 2 55.5t12.5 77.5t34 82.5t59.5 80t94 56.5t137 24.5q74 2 133.5 -18.5t95.5 -54t61.5 -74.5t36.5 -83t16 -76t5 -56v-21l-274 -10q0 35 -2 55.5t-8 43t-23.5 32.5t-44.5 10q-31 0 -49 -19.5t-20 -37.5l-2 -21v-333v-10.5t4 -22t11 -26.5t22.5 -21.5 t35.5 -10.5q35 0 53.5 19.5t20.5 40t2 63.5v13l272 2q-4 -4 1.5 -37t-10 -90.5t-38 -112.5t-86 -103.5t-151.5 -64.5q4 -18 0 -41v-43q-2 -23 -19 -51q-8 -20 -32.5 -40.5t-65.5 -37.5q-6 43 -18.5 67.5t-26.5 35.5q-10 8 -25 12q-6 2 -12 2h-16h-19q-10 0 -22 -4 q-2 6 -2 43q0 27 16 88q-59 35 -97 101.5t-46 115.5l-8 47l-7 330q0 8 -1 22.5z" />
<glyph unicode="&#xe8;" horiz-adv-x="761" d="M143 1022l7 -1016l477 -8l4 221h-225v178l225 9v210h-225v195h225v215h-150l-88 178h-227l147 -182h-170z" />
<glyph unicode="&#xe9;" horiz-adv-x="761" d="M143 1022l7 -1016l477 -8l4 221h-225v178l225 9v210h-225v195h225v213h-154l150 180h-230l-90 -182h-164z" />
<glyph unicode="&#xea;" horiz-adv-x="761" d="M143 1022l7 -1016l477 -8l4 221h-225v178l225 9v210h-225v195h225v219l-316 -6l107 70l127 -50l86 152l-234 78l-231 -148l53 -104h-80z" />
<glyph unicode="&#xeb;" horiz-adv-x="737" d="M131 1024l113 2v35h-64v151h148v-151h-62l-2 -37h221v37h-63v149h149l-2 -149h-59v-37h94l-2 -195l-235 -6l2 -172h235l-2 -215l-233 -6v-211l235 -2l-6 -203h-465z" />
<glyph unicode="&#xec;" horiz-adv-x="583" d="M57 1206h228l92 -182h41l2 -1024l-256 2l4 1022h39z" />
<glyph unicode="&#xed;" horiz-adv-x="583" d="M164 0l256 2l-4 1022h-39l149 182h-227l-92 -182h-41z" />
<glyph unicode="&#xee;" horiz-adv-x="583" d="M154 1135l229 92l217 -92l-78 -144l-141 68l-74 -37l111 2l2 -1024l-256 2l4 1016h43z" />
<glyph unicode="&#xef;" horiz-adv-x="583" d="M109 1061v151h149l-2 -151h-59v-43l196 6v35h-63v151h149l-2 -151h-59v-35l2 -1024l-258 2l10 1014v45h-63z" />
<glyph unicode="&#xf1;" horiz-adv-x="1030" d="M164 1024h143l-18 129q10 12 30.5 23.5t40 20.5t37 15.5t23.5 8.5q29 6 58.5 8t60 2t63.5 2t64 8q29 8 42 22.5t27 26.5l23 -186l-31 -21l-27 -14l-22 -8q-25 -6 -54.5 -7t-62.5 0t-65.5 0t-61.5 -7q-31 -8 -51 -19l-10 -4l205 -246l2 246h280l6 -1024h-270l-12 362 l-144 158l9 -520h-279z" />
<glyph unicode="&#xf2;" horiz-adv-x="880" d="M82 557q0 -141 23.5 -248.5t60.5 -168t87 -97.5t94 -47t89 -8q66 4 114 17t97 47t81 89.5t51.5 146.5t19.5 216q0 68 -2 114t-10.5 108t-27 105t-47 87.5t-76.5 73t-112 44.5v-747q-20 -37 -75 -37q-33 0 -50.5 12t-19.5 27v12v410v2t2 9l4 14t7 15.5t11.5 14.5t15.5 10 t21 4q35 0 49 -18v272l-73 164h-232l133 -180q-236 -84 -235 -463z" />
<glyph unicode="&#xf3;" horiz-adv-x="880" d="M82 557q0 215 69.5 324.5t172.5 142.5l100 193l227 -3l-162 -182v-268l-1 1t-2 3t-4 3t-7 3t-9 4t-11 3t-15 1q-12 0 -21 -4t-15.5 -10t-11.5 -14.5t-7 -15.5l-4 -14t-2 -9v-2v-410l-1 -5q-1 -5 3 -13.5t10 -15.5t21.5 -12t36.5 -5q25 0 44 9t25 18l6 10v747 q63 -16 111.5 -44.5t77 -73t47 -87.5t27 -105t10.5 -108.5t2 -113.5q0 -125 -19.5 -216t-51.5 -146.5t-81 -89.5t-97 -47t-114 -17q-45 -2 -89 8t-94 47t-87 97.5t-60.5 168t-23.5 248.5z" />
<glyph unicode="&#xf4;" horiz-adv-x="880" d="M82 557q0 -141 23.5 -248.5t60.5 -168t87 -97.5t94 -47t89 -8q66 4 114 17t97 47t81 89.5t51.5 146.5t19.5 216q0 68 -2 114t-10.5 108t-27 105t-47 87.5t-76.5 73t-112 44.5v-747q-20 -37 -75 -37q-33 0 -50.5 12t-19.5 27v12v410v2t2 9l4 14t7 15.5t11.5 14.5t15.5 10 t21 4q8 0 14.5 -1t11.5 -3t9 -4t7 -3t4 -3t2 -3l1 -1v268l66 47l141 -67l88 139l-227 98l-223 -108l55 -105q-41 -4 -79 -18t-82 -48t-74.5 -84t-51 -135t-20.5 -194z" />
<glyph unicode="&#xf5;" horiz-adv-x="880" d="M82 557q0 -141 23.5 -248.5t60.5 -168t87 -97.5t94 -47t89 -8q66 4 114 17t97 47t81 89.5t51.5 146.5t19.5 216q0 68 -2 114t-10.5 108t-27 105t-47 87.5t-76.5 73t-112 44.5v-747q-20 -37 -75 -37q-33 0 -50.5 12t-19.5 27v12v410v2t2 9l4 14t7 15.5t11.5 14.5t15.5 10 t21 4q33 0 49 -18v272q-73 15 -159 -12q20 12 32 16q20 10 45 14.5t52.5 3.5t55.5 -4t52.5 -5t44.5 2l21 6l22 12l29 16l-4 177q-18 -16 -25 -23q-14 -12 -37 -18q-29 -4 -55 -3t-52 3t-51.5 3t-49.5 -3q-4 -2 -19.5 -6.5t-33 -11.5t-35 -16t-27.5 -20l4 -155 q-217 -92 -217 -455z" />
<glyph unicode="&#xf6;" horiz-adv-x="880" d="M82 557q0 -141 23.5 -248.5t60.5 -168t87 -97.5t94 -47t89 -8q66 4 114 17t97 47t81 89.5t51.5 146.5t19.5 216q0 76 -2 125t-13.5 115.5t-33 111.5t-61.5 89t-95 69v45h61v151h-149v-151h63v-37q-20 8 -45 14v-747q-20 -37 -75 -37q-33 0 -50.5 12t-19.5 27v12v410v2 t2 9l4 14t7 15.5t11.5 14.5t15.5 10t21 4q33 0 49 -18v272q-61 12 -137 -6l-2 31h62v151h-148v-151h64v-37q-246 -80 -246 -467z" />
<glyph unicode="&#xf7;" horiz-adv-x="892" d="M102 354v246h689v-246h-689zM291 0v289h325v-289h-325zM291 664v288h323v-288h-323z" />
<glyph unicode="&#xf8;" horiz-adv-x="851" d="M18 -6l123 199q-59 139 -59 364q0 115 22.5 203t58.5 138t79 84t87 46t79.5 15.5t57.5 0.5l23 -2v-596l-106 -165q16 -29 66 -29q25 0 44 9t25 18l6 10v221v526q61 -14 109 -43l33 51h186l-107 -176q25 -49 37.5 -115.5t14.5 -116.5t2 -132q0 -123 -20.5 -217 t-53.5 -149.5t-81 -90.5t-97 -47t-111 -12q-119 0 -192 61l-37 -55h-189zM369 586l110 176q0 2 -2 4l-4 4t-6 4t-9 4t-12.5 3t-15.5 1q-25 0 -40 -17t-19 -36l-2 -16v-127z" />
<glyph unicode="&#xf9;" horiz-adv-x="909" d="M123 384q0 -28 6 -82t17.5 -89t35 -80t56 -70.5t86 -44t120.5 -18.5q72 0 128.5 16.5t92 39t60.5 60.5t37 67.5t18 74.5t6 67.5v57.5v20v621l-81 2l-91 178h-227l150 -182l2 -651q0 -4 1 -12.5t-1 -27t-9.5 -33.5t-25 -26.5t-41.5 -11.5q-23 0 -38 11.5t-23.5 25.5 t-11.5 39.5t-3 43t1 44.5t1 35l12 565h-260l-18 -537v-30v-73z" />
<glyph unicode="&#xfa;" horiz-adv-x="909" d="M123 384v73v30l18 537l92 -2l91 182h229l-162 -180l-2 -565q0 -8 -1 -35t-1 -44.5t3 -43t11.5 -39.5t23.5 -25.5t38 -11.5q25 0 42 11.5t24.5 26.5t9.5 33.5t1 27t-1 12.5v653h247v-621v-20v-57.5t-6 -67.5t-18 -74.5t-37 -67.5t-60.5 -60.5t-92 -39t-128.5 -16.5 q-68 0 -121 18.5t-85.5 44t-56 70.5t-35 80t-17.5 89t-6 82z" />
<glyph unicode="&#xfb;" horiz-adv-x="909" d="M123 384v73v30l18 537l160 -2l-53 104l231 148l234 -78l-86 -152l-135 50l-99 -70l-4 -565q0 -8 -1 -35t-1 -44.5t3 -43t11.5 -39.5t23.5 -25.5t38 -11.5q25 0 42 11.5t24.5 26.5t9.5 33.5t1 27t-1 12.5v653h247v-621v-20v-57.5t-6 -67.5t-18 -74.5t-37 -67.5 t-60.5 -60.5t-92 -39t-128.5 -16.5q-68 0 -121 18.5t-85.5 44t-56 70.5t-35 80t-17.5 89t-6 82z" />
<glyph unicode="&#xfc;" horiz-adv-x="909" d="M123 384v73v30l18 537h170v37h-65v151h149l-2 -151h-59v-37h67l-12 -565q0 -8 -1 -35t-1 -44.5t3 -43t11.5 -39.5t23.5 -25.5t38 -11.5q25 0 42 11.5t24.5 26.5t9.5 33.5t1 27t-1 12.5v653h69v37h-63v151h149l-2 -151h-59v-35l153 -2v-621v-20v-57.5t-6 -67.5t-18 -74.5 t-37 -67.5t-60.5 -60.5t-92 -39t-128.5 -16.5q-68 0 -121 18.5t-85.5 44t-56 70.5t-35 80t-17.5 89t-6 82z" />
<glyph unicode="&#x152;" horiz-adv-x="1329" d="M102 778q0 80 2 134.5t10.5 118t24 105.5t43 85t66.5 68.5t94 45t129 27.5l735 6l-4 -252h-698q-47 0 -70.5 -25.5t-23.5 -52.5l2 -26v-666q0 -8 3 -20.5t22.5 -34t49.5 -21.5q76 0 93 90l2 25v696h307l-2 -231h319l-4 -268l-315 -9v-313l319 -4l-8 -256l-721 -4 q-102 2 -177 33.5t-110.5 71.5t-57 90.5t-24 71t-2.5 32.5z" />
<glyph unicode="&#x153;" horiz-adv-x="1060" d="M61 537q0 -528 338 -537h537l2 219h-225v178l225 9v210h-225v168h-275v-469q0 -8 -3 -18t-19.5 -27.5t-40.5 -17.5q-33 0 -50.5 17.5t-19.5 35.5v19v397q0 92 62 92l346 -2h225v213l-532 -2h-20.5t-48.5 -7t-68.5 -22.5t-71.5 -51.5t-68 -85t-48.5 -132t-19.5 -187z" />
<glyph unicode="&#x2000;" horiz-adv-x="895" />
<glyph unicode="&#x2001;" horiz-adv-x="1790" />
<glyph unicode="&#x2002;" horiz-adv-x="895" />
<glyph unicode="&#x2003;" horiz-adv-x="1790" />
<glyph unicode="&#x2004;" horiz-adv-x="596" />
<glyph unicode="&#x2005;" horiz-adv-x="447" />
<glyph unicode="&#x2006;" horiz-adv-x="298" />
<glyph unicode="&#x2007;" horiz-adv-x="298" />
<glyph unicode="&#x2008;" horiz-adv-x="223" />
<glyph unicode="&#x2009;" horiz-adv-x="358" />
<glyph unicode="&#x200a;" horiz-adv-x="99" />
<glyph unicode="&#x2010;" horiz-adv-x="667" d="M82 246v219h504v-217z" />
<glyph unicode="&#x2011;" horiz-adv-x="667" d="M82 246v219h504v-217z" />
<glyph unicode="&#x2012;" horiz-adv-x="667" d="M82 246v219h504v-217z" />
<glyph unicode="&#x2013;" horiz-adv-x="739" d="M102 215v262h535v-262h-535z" />
<glyph unicode="&#x2014;" horiz-adv-x="1626" d="M123 221v266h1380v-266h-1380z" />
<glyph unicode="&#x2019;" horiz-adv-x="579" d="M121 1034l18 330h330l-104 -578l-177 -2l39 250h-106z" />
<glyph unicode="&#x2022;" horiz-adv-x="845" d="M72 621h192v184h-190l-2 272h192v285l305 2v-287h203v-272h-203v-184h203v-273h-203v-350h-305v350h-190z" />
<glyph unicode="&#x202f;" horiz-adv-x="358" />
<glyph unicode="&#x2039;" horiz-adv-x="798" d="M147 401l195 -401h301l-184 414l176 405h-287z" />
<glyph unicode="&#x203a;" horiz-adv-x="798" d="M147 0l185 414l-176 405h286l201 -418l-194 -401h-302z" />
<glyph unicode="&#x205f;" horiz-adv-x="447" />
<glyph unicode="&#x2122;" horiz-adv-x="2134" d="M82 1106l4 260h723l-16 -256l-230 -4l-6 -1106h-291v1108zM856 1370l307 -4l176 -299l154 299l325 -12l17 -1354h-303l-15 735l-153 -252l-209 238l8 -721l-303 6z" />
<glyph unicode="&#xe000;" horiz-adv-x="1024" d="M0 0v1024h1024v-1024h-1024z" />
</font>
</defs>
</svg>
