<?xml version="1.0" standalone="no"?>
<!DOCTYPE svg PUBLIC "-//W3C//DTD SVG 1.1//EN" "http://www.w3.org/Graphics/SVG/1.1/DTD/svg11.dtd" >
<svg xmlns="http://www.w3.org/2000/svg">
<metadata></metadata>
<defs>
<font id="transportmedium" horiz-adv-x="0" >
<font-face units-per-em="2048" ascent="1638" descent="-410" />
<missing-glyph horiz-adv-x="636" />
<glyph horiz-adv-x="2048" />
<glyph horiz-adv-x="2048" />
<glyph unicode="&#xd;" />
<glyph unicode=" "  horiz-adv-x="636" />
<glyph unicode="&#x09;" horiz-adv-x="636" />
<glyph unicode="&#xa0;" horiz-adv-x="636" />
<glyph unicode="!" horiz-adv-x="920" d="M62 1438l8 20q4 7 8 8q12 26 23 47t21 37q17 27 24 44l12 16q5 10 9.5 18t6.5 14q13 16 16 28l12 12q7 23 20 36l4 12l8 12q4 7 8 8q12 26 23 47t21 37h264l-4 -20l-8 -12l-12 -16l-4 -12l-4 -8q-7 -10 -12 -17.5t-8 -14.5q-4 -7 -8 -8l-4 -16l-8 -8l-8 -12l-4 -12l-8 -8 q-8 -17 -16 -28l-4 -12l-28 -48l-8 -12l-4 -12l-24 -32l-4 -8q-7 -19 -12 -28l-8 -8q-7 -14 -13 -25t-11 -19h-264zM258 1002v220h492v-212q-10 -8 -19 -8h-473z" />
<glyph unicode="&#x22;" horiz-adv-x="996" d="M63 1438l8 20l12 20q11 17 19.5 31t16.5 25l8 20l12 16l4 16l12 20l24 32l8 16l4 12l8 16l8 12l8 16l36 52q20 45 36 72h268q-5 -14 -12 -25t-12 -19l-8 -12l-4 -12q-7 -10 -12 -19l-8 -17l-16 -24l-4 -12l-8 -8l-4 -12l-8 -4l-4 -12l-16 -28l-4 -12q-18 -21 -28 -44 q-4 -7 -8 -8l-4 -16l-12 -12q-8 -17 -16 -28q-20 -48 -40 -72h-264zM455 1438l8 20l24 44q7 10 12 17.5t8 14.5l8 12l4 12l40 60q7 16 13 29t11 23l8 8l4 8l8 12l24 44l4 8q17 27 24 44q17 23 24 40h268l-4 -16l-24 -40l-4 -8l-8 -4q-15 -38 -36 -64l-8 -12l-4 -12l-8 -12 l-4 -12l-12 -12q-20 -45 -36 -68q-4 -7 -8 -8l-4 -16l-12 -12q-8 -17 -16 -28q-10 -23 -20 -41t-20 -31h-264z" />
<glyph unicode="#" horiz-adv-x="248" />
<glyph unicode="$" />
<glyph unicode="%" horiz-adv-x="1740" d="M139 214q8 17 16 28l8 16l24 24l4 12l8 12l8 4l4 12q14 14 23.5 27.5t16.5 24.5l8 12l12 12l80 108l8 12q23 33 40 48q19 37 44 60l16 28q15 15 20 24l16 24l8 8l4 8l8 8q23 33 40 52l16 20q8 17 18.5 29.5t21.5 22.5l4 12l8 12l12 8l8 12l4 12l8 8l36 52l20 20 q12 23 28 36q9 19 20 32q12 16 24 28l16 28l8 4l4 8q13 22 26 38.5t26 29.5l4 12l32 36l4 8l8 12l40 52q8 12 20 24l48 72l16 20q9 11 16 19.5t12 16.5l12 12l4 12l16 16q21 36 44 56l12 16l8 20l32 36l52 76l12 12q4 7 8 8l4 12l12 8l16 28l40 52h68q9 1 18 1.5t17 0.5 q20 0 38 -2.5t35 -7.5l-8 -12l-20 -20q-14 -27 -32 -44l-8 -16l-8 -8l-40 -56l-18 -21q-7 -9 -14 -15q-5 -12 -11 -22t-13 -18l-12 -16l-32 -36q-7 -13 -13.5 -23t-14.5 -17q-4 -7 -8 -8l-4 -12l-8 -8l-8 -12l-8 -8l-44 -64l-24 -24q-8 -15 -16 -24q-32 -52 -60 -80l-16 -28 l-12 -8l-4 -12l-40 -52l-8 -8q-13 -22 -26 -38.5t-26 -29.5q-8 -15 -16 -24l-48 -68l-20 -20l-12 -24q-15 -15 -20 -24l-8 -8q-4 -7 -8 -8q-19 -38 -40 -56q-12 -23 -28 -36l-16 -28l-20 -20l-16 -28l-40 -52l-20 -24l-16 -20l-24 -40l-16 -20l-24 -32l-8 -8q-7 -11 -14 -20 t-14 -16q-21 -36 -44 -56l-8 -16l-8 -12l-12 -16l-8 -12l-12 -16l-8 -12l-12 -16l-16 -16q-4 -7 -8 -8l-12 -24l-32 -36l-8 -16q-16 -16 -24 -32h-176zM168 1431q0 77 23 155q44 197 232 220q286 -17 296 -360v-16q0 -265 -192 -352q-48 -12 -90 -12q-119 0 -202 96 q-67 135 -67 269zM285 1420q0 -243 169 -243q5 0 10.5 0.5t10.5 0.5q124 66 124 243q0 17 -1 34t-3 35q-14 182 -168 204q-108 -37 -132 -140q-5 -37 -7.5 -70.5t-2.5 -63.5zM925 610q0 305 246 368q261 -5 292 -252q17 -68 17 -130q0 -69 -21 -134q-25 -135 -132 -200 q-81 -29 -143 -29q-212 0 -257 317q-1 16 -1.5 31t-0.5 29zM1049 597q0 -248 164 -248h12q7 0 14 1q125 62 125 245q0 18 -1.5 36.5t-3.5 38.5q-18 185 -180 192q-107 -46 -124 -156q-6 -60 -6 -109z" />
<glyph unicode="&#x26;" horiz-adv-x="1368" d="M101 698q0 283 242 412q-76 133 -76 259q0 104 52 201q97 151 260 180h7q308 0 381 -276q6 -42 6 -79q0 -255 -262 -361l-4 -12q23 -21 32 -44l12 -12l16 -20l8 -12l8 -16q20 -22 28 -40q7 -5 8 -12l20 -20l4 -8q7 -10 13 -18t11 -14l8 -12l4 -12q44 -43 60 -84 q65 101 68 204h252q-28 -240 -164 -412q58 -31 115 -31q40 0 77 15l-4 -12q5 -14 6.5 -26.5t1.5 -24.5v-9q5 -12 6.5 -23t1.5 -22v-7l4 -12q2 -16 3 -28.5t1 -23.5q8 -19 8 -41v-7q-72 -22 -139 -22q-143 0 -249 106q-184 -101 -339 -101q-113 0 -213 53q-232 127 -272 368 q-1 14 -1.5 28t-0.5 28zM341 720q0 -73 46 -150q95 -112 207 -112q83 0 181 64l-12 16q-23 32 -36 56q-5 4 -9 8t-7 8l-8 16l-40 48l-8 16l-12 12l-4 12q-20 22 -34 41.5t-22 38.5l-12 8l-16 28q-25 25 -36 52q-27 26 -40 56h-12q-126 -100 -126 -218zM501 1376 q0 -85 58 -146l24 8q148 55 156 196q-39 89 -127 89h-9q-3 0 -8 -1q-62 -32 -88 -88q-6 -30 -6 -58z" />
<glyph unicode="'" horiz-adv-x="424" d="M70 1665q0 104 105 129h15q143 0 173 -140q1 -9 1 -17.5v-16.5q0 -250 -251 -250h-14l-4 80q78 5 132 44q0 30 -12 48q-117 5 -144 104q0 5 -0.5 9.5t-0.5 9.5z" />
<glyph unicode="(" horiz-adv-x="1140" d="M151 977v14.5t0.5 24t1 24t0.5 14.5q65 644 580 948l12 -8l8 -16l28 -40l8 -12l4 -12l8 -4l8 -12q19 -28 33 -52t23 -44q-434 -296 -452 -780v-4q0 -568 452 -868l-8 -12l-8 -16l-12 -12q-13 -27 -28 -40q-8 -16 -16 -24q-27 -56 -60 -88q-582 390 -582 1019z" />
<glyph unicode=")" horiz-adv-x="1140" d="M276 150q453 330 453 830v21t-1 21q-20 265 -133 458.5t-319 321.5l4 16l12 12q10 23 24 40l8 16l8 8l8 16l8 4l8 12q25 48 48 76q586 -379 586 -1012v-40t-2 -40q-61 -642 -580 -952q-31 30 -44 64q-7 4 -8 8l-24 32l-4 12l-8 8z" />
<glyph unicode="*" />
<glyph unicode="+" />
<glyph unicode="," horiz-adv-x="708" d="M72 318q12 109 112 128q165 -2 184 -160q-2 -268 -254 -268h-14v12l-4 72q80 0 132 48q0 22 -8 40q-128 15 -148 128z" />
<glyph unicode="-" horiz-adv-x="712" d="M75 762v228h472v-224l-28 -4h-444z" />
<glyph unicode="." horiz-adv-x="576" d="M112 290q11 145 144 164q124 -15 148 -124q1 -5 1 -9.5v-9.5q0 -111 -101 -145q-12 -2 -23 -3t-22 -1q-118 0 -147 128z" />
<glyph unicode="/" horiz-adv-x="844" d="M20 -106l8 28l4 12q9 20 12 32l4 8v12q8 18 13 34t7 30l12 28l4 20l4 16l8 12v12l8 16q4 17 8 31t8 25l4 12l4 16q7 19 12 34.5t8 29.5l12 28l28 96l8 20v12l8 24l8 16l20 68l20 60l20 72l8 12l4 12v12l8 24q4 11 7 19t5 13l12 48l12 24l4 24l8 28l8 16q7 37 20 64l8 32 q4 11 7 19t5 13l4 16l4 8q7 37 20 64l8 32q4 11 7 19t5 13l12 48l12 24l4 28q9 20 12 32l16 48l4 20l8 28l12 36l8 16q7 37 20 64l4 16l20 68l4 16l8 12v12l8 12q11 53 24 84q26 -8 44 -16h12q11 -5 22 -9t22 -7l16 -4l12 -4l88 -32l-8 -20l-4 -24l-4 -8l-4 -16l-24 -68 l-4 -20l-4 -12l-4 -16l-8 -16l-4 -12l-20 -68q-9 -24 -12 -44l-4 -12l-20 -52l-4 -24q-13 -27 -16 -52q-9 -20 -12 -32l-12 -28l-8 -32l-20 -72l-8 -24l-4 -8l-12 -44q-8 -19 -13 -34.5t-7 -29.5l-8 -16l-4 -12q-6 -31 -16 -52l-8 -32l-8 -28l-12 -24l-4 -12q-2 -24 -12 -40 v-12l-8 -12v-12q-4 -11 -7 -19t-5 -13l-4 -8l-4 -24l-20 -52l-4 -20l-12 -44l-24 -68l-8 -32l-4 -12q-4 -11 -7 -19t-5 -13l-8 -24l-20 -68l-12 -44q-11 -21 -12 -40l-8 -20l-4 -8l-8 -32l-8 -28l-8 -16l-4 -20q-7 -19 -12 -34.5t-8 -29.5l-8 -12l-4 -28l-4 -12 q-9 -20 -12 -32l-4 -16l-4 -12q-6 -16 -10 -30t-6 -26h-12q-28 10 -50.5 17t-41.5 11l-20 8l-24 8l-8 4q-37 7 -64 20z" />
<glyph unicode="0" horiz-adv-x="1444" d="M135 918v112l4 12v32q3 44 12 76v24l4 16l4 12l4 28l8 32l8 28q4 19 8.5 34t11.5 26q116 371 468 428h26q441 0 562 -396q74 -220 74 -425q0 -259 -118 -495q-177 -285 -463 -285q-68 0 -145 17q-343 98 -416 452l-8 12v16l-4 16q-10 24 -12 44l-4 20q-8 32 -8 52 q-8 26 -8 44zM399 866q12 -310 236 -432h12l12 -4l8 -4l48 -12q348 44 348 489v11q2 28 3 54t1 52q0 503 -368 522q-113 -31 -188 -104l-4 -8q-11 -18 -21 -32t-19 -24l-4 -12q-7 -20 -13.5 -37t-14.5 -31q-2 -19 -6.5 -35t-9.5 -29q-1 -27 -8 -48v-16l-4 -8 q-1 -21 -2.5 -38t-5.5 -30v-224z" />
<glyph unicode="1" horiz-adv-x="856" d="M108 1298v208h28l16 4h44l20 4h36q40 8 60 8q19 16 36 20q58 85 58 175q0 8 -0.5 14.5t-1.5 14.5h224v-1528h-264v1080h-256z" />
<glyph unicode="2" horiz-adv-x="1304" d="M131 1221v24q0 466 465 521h26q457 0 518 -420q4 -26 6 -52t2 -51q0 -107 -36 -205l-8 -12l-4 -12l-12 -32l-8 -8l-36 -68l-12 -8l-4 -12l-8 -12l-8 -8l-8 -12l-36 -32q-4 -7 -8 -8l-4 -8q-42 -51 -76 -76l-8 -12l-12 -8q-4 -7 -8 -8l-44 -48l-12 -4q-20 -25 -40 -36 q-14 -17 -28 -24q-18 -21 -36 -28l-8 -12l-12 -4q-5 -7 -12 -8l-8 -12l-36 -20q-20 -17 -37 -30.5t-31 -21.5h600v-236h-1016v236l16 12l84 44l12 12l16 8q19 16 40 24l12 12l24 16l8 8l8 4q10 7 18 13t14 11l12 4q5 7 12 8l8 12l28 16l4 8l8 4l52 40l12 12l24 16q4 7 8 8 q4 4 7 4h1l8 12q30 23 48 44q261 191 261 456q0 75 -21 156l-28 40q-92 74 -187 74q-59 0 -121 -30q-138 -66 -138 -231q0 -34 6 -73h-256q-1 12 -1 23z" />
<glyph unicode="3" horiz-adv-x="1380" d="M124 638l4 20h32q13 3 23.5 5.5t20.5 2.5h16l20 4l32 4h12l12 4h12l64 8q73 -259 285 -259q62 0 139 23q135 75 135 208q0 15 -1.5 31t-5.5 33q-12 171 -266 171q-26 0 -53 -1.5t-57 -5.5v224q22 -2 42.5 -3t39.5 -1q280 0 280 198q0 58 -26 138l-16 24q-14 10 -25 19 t-19 17q-103 36 -185 36q-225 0 -267 -280q-17 4 -31 5.5t-25 2.5l-12 4h-32l-20 4h-12l-20 4h-12l-12 4h-12l-60 8q63 464 520 488h18q377 0 494 -308q21 -66 21 -129q0 -55 -17 -111q-19 -163 -156 -216q190 -117 190 -314q0 -34 -6 -70q-21 -209 -164 -332 q-152 -113 -340 -113q-37 0 -74.5 4.5t-77.5 12.5q-368 72 -408 436z" />
<glyph unicode="4" horiz-adv-x="1428" d="M52 506v284l4 8l8 4q21 36 44 56l4 12l12 8q5 12 12.5 22t15.5 18l8 12l8 8l4 8q16 16 24 32l8 8l28 36l8 12l8 8l8 12l4 8l16 16q13 21 26 37t26 27l16 28l20 20l8 16l8 4l4 12l8 4l4 8l40 52l16 24l16 16q14 23 32 40l4 12q21 20 32 40l8 12l8 4q16 27 32 40l12 20 l16 20l12 12q12 23 28 36l8 12l8 16l36 40l4 12l12 8l4 12l16 16l4 8l8 8q11 17 21.5 30t18.5 22h324v-1004h216v-236h-216v-288h-268v288h-796zM320 742h532v641q0 28 -4 47l-16 -20q-16 -33 -40 -52l-16 -28q-15 -15 -20 -24l-20 -20l-12 -24l-20 -20l-48 -68l-8 -4 q-21 -36 -44 -56l-4 -8l-32 -44l-8 -8l-48 -64l-44 -56l-16 -24l-12 -12l-8 -12l-12 -16l-8 -12l-8 -8l-40 -48l-4 -8z" />
<glyph unicode="5" horiz-adv-x="1324" d="M124 594l16 4q39 17 68 20l12 8h12l12 8h16q5 4 12 4q5 4 12 4l64 24l28 4q59 -249 286 -249q17 0 34 1.5t36 3.5q209 69 212 272q3 29 3 54q0 109 -55 194q-102 108 -232 108q-13 0 -25.5 -1t-26.5 -3q-150 -23 -208 -144l-68 12q-12 4 -23 5.5t-21 2.5l-12 4l-44 8 l-24 8h-12q-16 4 -29 5.5t-23 2.5v28l4 8v24q11 41 12 68l4 32l4 16v20q4 12 5.5 23t2.5 21l4 20v12l4 28l4 12l16 116l12 84l4 16v16l4 8l8 64l4 16l4 52q16 63 16 108h876v-236h-628l-16 -12l-4 -52q-4 -11 -4 -24v-8q-4 -12 -5.5 -23t-2.5 -21l-4 -16l-8 -68 q-4 -17 -4 -32l-4 -28q124 62 240 62q90 0 180 -38q97 -40 165 -102t107 -150q66 -136 66 -271q0 -78 -22 -153q-56 -208 -216 -308q-158 -85 -318 -85q-69 0 -142 17q-268 70 -364 308l-4 16q-10 27 -12 48z" />
<glyph unicode="6" horiz-adv-x="1368" d="M132 969q0 290 128 517q134 253 396 284h21q397 0 535 -344h-16q-22 -12 -44 -16q-22 -10 -40 -12q-5 -4 -12 -4l-12 -8l-12 -4q-11 -4 -21 -5t-19 -3q-31 -16 -56 -20q-87 185 -259 185q-36 0 -77 -9q-246 -85 -246 -375q0 -14 0.5 -28t1.5 -29q176 147 353 147 q158 0 319 -119q170 -175 170 -386q0 -57 -14 -122q-70 -313 -352 -408q-88 -21 -168 -21q-234 0 -392 181q-172 210 -172 452v20l-8 28q-2 26 -3 50.5t-1 48.5zM414 724q0 -11 0.5 -22.5t1.5 -23.5q32 -155 156 -224q76 -22 141 -22q213 0 255 250v18q0 318 -312 318 q-242 -66 -242 -294z" />
<glyph unicode="7" horiz-adv-x="1128" d="M28 1510v236h1048v-244l-10 -19q-4 -9 -6 -17l-4 -12l-4 -8q-11 -22 -19 -40.5t-13 -35.5l-12 -28l-8 -16l-8 -20l-24 -52l-4 -12q-9 -15 -12 -32l-48 -100l-8 -28l-16 -28q-8 -34 -24 -56l-48 -124l-16 -28l-36 -92l-24 -48q-5 -22 -12 -32l-8 -24l-8 -8v-12l-36 -76 l-8 -24l-8 -16l-4 -16l-24 -44q-7 -29 -20 -48q-9 -32 -20 -52l-8 -12l-8 -24l-4 -16l-12 -24l-28 -64h-288q5 20 12 32l4 8l4 16l8 8q14 50 36 84v12l8 8q7 23 14.5 41t13.5 31l12 24l8 28q10 18 17 34t11 30l12 28l8 8q4 16 12 28q7 28 16 44l12 28q5 11 8 19t8 13 q16 54 36 88q4 12 8 22t8 18l8 24l4 8q5 10 9 19t7 17q5 12 10 22t10 18l8 28l12 24l8 24l12 20l8 20l8 24l16 28q11 36 24 60l4 12l4 8l8 24q16 28 20 48l13 27q5 9 7 17l8 16l4 16l13 27q5 9 7 17l4 12l4 8q11 22 19 40.5t13 35.5h-756z" />
<glyph unicode="8" horiz-adv-x="1408" d="M165 602v18q0 266 212 386q-186 138 -186 328q0 50 14 108q106 285 440 328q12 1 23.5 1h22.5q365 0 510 -297q25 -79 25 -152q0 -197 -189 -308q196 -128 212 -336q1 -6 1 -12.5v-12.5q0 -183 -125 -299q-191 -163 -408 -163q-95 0 -192 31q-304 96 -360 380zM429 642 q42 -218 261 -218q11 0 21.5 0.5t21.5 1.5q240 16 256 236q-39 232 -285 232h-19q-244 -31 -256 -252zM453 1278q65 -177 237 -177q15 0 30.5 1.5t32.5 3.5q199 29 212 208q-25 221 -262 221h-16.5t-17.5 -1q-216 -40 -216 -235v-21z" />
<glyph unicode="9" horiz-adv-x="1388" d="M161 1242q0 453 466 540q589 -8 632 -684q3 -46 3 -92q0 -383 -215 -660l-8 -8l-12 -8q-40 -38 -68 -56l-28 -16l-28 -12q-51 -28 -92 -32q-79 -15 -150 -15q-340 0 -478 339l20 4l16 8l40 12l24 8l16 4q5 4 12 4q4 4 7 4h1l12 4l28 8q14 8 27.5 13t24.5 7 q94 -184 271 -184q14 0 28.5 1t28.5 3q241 70 256 344v49q0 28 -4 47q-154 -150 -339 -150q-64 0 -133 18q-303 96 -352 388q-6 59 -6 112zM416 1247q0 -26 3 -53q32 -167 172 -228q31 -7 59 -10t54 -3q226 0 271 249v9q0 327 -314 327h-6q-239 -66 -239 -291z" />
<glyph unicode=":" horiz-adv-x="576" d="M111 294q13 140 144 160q153 -31 153 -133q0 -47 -37 -115q-73 -49 -129 -49q-91 0 -131 137zM117 845q0 112 122 145q134 -3 168 -120v-5q0 -89 -56 -143q-53 -25 -97 -25q-84 0 -131 93q-6 30 -6 55z" />
<glyph unicode=";" />
<glyph unicode="&#x3c;" horiz-adv-x="4364" d="M20 762l8 8l8 4q4 7 8 8l44 48l64 60l8 12l12 8l8 12l12 8q4 7 8 8q4 7 8 8l4 8l12 8l20 20l4 8l8 4q10 14 20 23.5t20 16.5l56 60l64 60l20 20l20 24l24 20q14 19 28 32.5t28 23.5l20 24l24 20l20 24l24 20l4 8l8 8l8 4l4 8l8 4q8 10 14.5 18t13.5 14l20 16q23 36 48 56 l8 4q10 14 20 23.5t20 16.5l12 16l40 36q4 7 8 8q14 19 28 32.5t28 23.5q15 21 32 32l16 16q4 7 8 8q13 18 24 28l32 32l8 4q4 7 8 8l44 48h1060l-48 -52l-64 -60q-4 -7 -8 -8q-31 -39 -60 -60q-4 -7 -8 -8l-4 -8l-8 -8l-8 -4l-4 -8l-8 -4q-8 -10 -14.5 -18t-13.5 -14 l-20 -20l-24 -20q-14 -19 -28 -32.5t-28 -23.5l-16 -20l-8 -4q-10 -14 -21 -25t-23 -19l-12 -16l-20 -16l-16 -20l-20 -16l-44 -48l-12 -8l-12 -16l-12 -8l-12 -16l-12 -8l-8 -12l-12 -8q-4 -7 -8 -8l-12 -12l-8 -12q-50 -44 -72 -76l28 -8h2884v-708h-2908q0 -18 8 -28 l20 -20l12 -8l20 -24q21 -15 32 -32l12 -8l8 -12q7 -4 8 -8q7 -4 8 -8l8 -4l8 -12l20 -20l8 -4l4 -8q14 -10 23.5 -20t16.5 -20l20 -16l60 -64q7 -4 8 -8q25 -21 44 -40t32 -36q14 -10 25 -21t19 -23l16 -12l12 -16l16 -12l56 -56l24 -28l16 -12l20 -20l12 -16l12 -8l8 -12 l8 -4l8 -12l20 -20l8 -4l4 -8q14 -10 23.5 -20t16.5 -20h-1060l-8 8l-56 64l-8 4l-8 8l-4 8l-8 4l-4 8q-10 8 -18 14.5t-14 13.5l-20 24l-12 12q-19 13 -28 28q-7 4 -8 8q-7 4 -8 8q-25 21 -44 40t-32 36l-20 20l-24 20l-20 20l-20 24l-20 16l-4 8l-8 4l-4 8 q-14 10 -23.5 20t-16.5 20l-20 16l-8 12q-14 10 -23.5 20t-16.5 20l-12 12l-12 8l-8 8l-16 24q-39 32 -60 60q-7 4 -8 8q-7 4 -8 8q-25 21 -44 40t-32 36q-7 4 -8 8q-7 4 -8 8l-8 4l-8 12l-20 20l-8 4l-4 8q-14 10 -23.5 20t-16.5 20q-7 4 -8 8q-7 4 -8 8l-8 4l-8 12l-20 20 l-8 4l-4 8q-14 10 -23.5 20t-16.5 20l-12 12q-21 15 -32 32l-12 8l-8 8l-20 24q-46 37 -68 72z" />
<glyph unicode="=" />
<glyph unicode="&#x3e;" horiz-adv-x="4364" d="M11 402v708h2904l8 16l-8 4l-4 8q-14 10 -23.5 20t-16.5 20q-14 10 -23.5 20t-16.5 20l-8 4l-8 8l-4 8l-8 4l-4 8q-10 8 -18 14.5t-14 13.5q-13 17 -24 24l-16 16l-20 24q-19 14 -32.5 28t-23.5 28l-60 56l-60 60l-4 8q-7 4 -8 8l-48 44l-4 8q-14 10 -23.5 20t-16.5 20 q-21 15 -32 32l-16 12l-36 40l-12 8q-18 21 -32 32l-8 8l-20 24q-19 14 -32.5 28t-23.5 28h1060l20 -24l24 -20l20 -24l16 -12l56 -56l24 -28l16 -12l20 -20l12 -16l12 -8l8 -12l8 -4l8 -12l20 -20l8 -4l4 -8q14 -10 23.5 -20t16.5 -20l60 -56l16 -24l12 -8l20 -24 q21 -15 32 -32l12 -8l8 -12q7 -4 8 -8q7 -4 8 -8l8 -4l8 -12l20 -20l8 -4l4 -8q14 -10 23.5 -20t16.5 -20l20 -16l60 -64q7 -4 8 -8q25 -21 44 -40t32 -36q14 -10 25 -21t19 -23l16 -12l12 -16l16 -12l56 -56l24 -28l16 -12l20 -20l12 -16l12 -8l8 -12l8 -4l8 -12l20 -20 l8 -4l4 -8q14 -10 23.5 -20t16.5 -20l-20 -20l-20 -24l-36 -32q-4 -7 -8 -8q-4 -7 -8 -8q-4 -7 -8 -8l-4 -8l-12 -8l-20 -20l-4 -8l-8 -4q-10 -14 -20 -23.5t-20 -16.5q-4 -7 -8 -8q-14 -19 -28 -32.5t-28 -23.5l-20 -24l-20 -16l-20 -24l-20 -20l-64 -60l-16 -20l-8 -4 l-4 -8l-8 -4q-10 -14 -20 -23.5t-20 -16.5l-16 -20q-16 -13 -24 -24l-8 -8l-8 -4q-22 -36 -52 -56l-20 -20l-4 -8l-8 -8l-8 -4l-4 -8l-8 -4q-8 -10 -14.5 -18t-13.5 -14l-20 -16l-20 -20l-16 -20l-20 -16l-16 -20l-8 -4q-10 -14 -20 -23.5t-20 -16.5q-10 -14 -20 -23.5 t-20 -16.5l-44 -48l-12 -12l-12 -8l-8 -12l-12 -8l-12 -12l-8 -12l-12 -8l-8 -12l-12 -8l-8 -12l-24 -20l-52 -60l-28 -4h-989q-28 0 -47 4l52 52l8 4l4 8l8 4q10 14 20 23.5t20 16.5l16 20l8 4q10 14 21 25t23 19l20 24l12 8l16 16q4 7 8 8q13 18 24 28l32 32l8 4q4 7 8 8 l44 48l16 16l8 4q10 14 20 23.5t20 16.5l12 16l16 16l8 4l4 8l8 4q8 10 14.5 18t13.5 14l16 12l12 12l12 16l12 8q4 7 8 8l12 12q13 19 28 28q4 7 8 8l20 20q13 18 24 28q45 36 64 72q-12 2 -23 3t-21 1h-2868z" />
<glyph unicode="?" horiz-adv-x="1500" d="M403 1286q43 426 436 496h21q376 0 503 -324q29 -104 29 -191q0 -268 -261 -417q-22 -25 -40 -36q-20 -26 -34 -50t-22 -46q-14 -53 -14 -93q0 -8 0.5 -15.5t1.5 -15.5h-248q8 339 272 488q16 18 32 28q4 7 8 8q8 14 20 24l36 72q2 18 3.5 34.5t1.5 32.5q0 204 -209 257 h-9q-259 0 -283 -252h-244zM769 310q0 104 98 140q5 1 10 1h10q97 0 136 -81q5 -14 6.5 -27t1.5 -25q0 -62 -52 -104q-47 -22 -87 -22q-78 0 -121 86q-1 8 -1.5 16t-0.5 16z" />
<glyph unicode="@" />
<glyph unicode="A" horiz-adv-x="1476" d="M79 214v12l8 24l4 16q9 20 12 32l4 8l8 32l8 28l24 68l12 40l8 24q9 20 12 32l16 48l32 100l24 76q10 22 15 40t9 32l4 16l8 12q3 23 12 44l8 24l4 16q9 20 12 32l4 8l8 32l8 28l12 28l12 40l12 36l4 8l24 76l4 16l32 100q13 27 16 48l44 124v12l8 20l4 12l4 16l8 16 l4 12l4 16l4 12l4 16l12 28l12 48l8 24h324l8 -32q4 -7 5.5 -14t2.5 -14l8 -16l12 -40l4 -8l4 -16l4 -12l4 -16l12 -28l4 -8v-12q8 -14 12.5 -27.5t7.5 -24.5l4 -16l4 -8v-12q8 -14 12.5 -27.5t7.5 -24.5l8 -32q15 -26 16 -48l12 -28l8 -32l8 -28q4 -5 4 -12l8 -12l4 -16 q2 -10 6 -18t6 -14v-12q20 -37 24 -72q7 -13 8 -24q7 -13 8 -24l16 -48l4 -8l4 -16l4 -12l4 -16l12 -28l4 -8v-12q8 -14 13 -27.5t7 -24.5l4 -24q16 -31 20 -56q19 -43 24 -76q7 -13 8 -24l12 -24l8 -24q5 -24 12 -40l8 -36l12 -24l8 -36l8 -16l4 -16q11 -26 18 -49t10 -43 l8 -12v-12q4 -5 4 -12q11 -17 12 -32q13 -28 16 -48h-264l-4 16l-8 16l-4 24q-4 5 -4 12q-19 38 -24 72l-8 12l-4 16q-2 10 -5.5 18t-6.5 14v12q-19 38 -24 72h-608l-4 -16l-8 -16l-4 -20l-4 -16q-5 -11 -9.5 -22t-6.5 -22l-4 -12l-8 -16q-2 -11 -4 -16l-4 -16l-4 -12l-4 -8 l-28 -92h-264zM507 722h460l-8 32l-12 28l-8 28l-12 28l-20 68l-8 32l-12 28l-4 20q-7 12 -8 20l-20 56l-4 16l-8 16v12l-24 64l-4 24q-7 13 -8 24l-12 24l-8 36q-4 5 -4 12q-4 5 -4 12l-8 12v12q-10 22 -12 40q-2 2 -3 3.5t-1 3.5v1l-20 48v-12l-24 -68l-8 -28l-12 -28 l-4 -24l-8 -24l-12 -24l-4 -24l-12 -24v-12l-8 -12q-10 -52 -24 -84l-4 -16l-8 -20l-24 -68l-12 -44l-8 -20l-4 -16l-8 -20l-4 -16l-12 -36l-4 -8q-12 -46 -24 -72z" />
<glyph unicode="B" horiz-adv-x="1592" d="M264 214v1532h504q39 3 76 3q362 0 456 -259q19 -72 19 -137q0 -196 -175 -311q191 -45 240 -216q11 -44 15.5 -85t4.5 -79q0 -284 -280 -416h-12l-28 -12h-12q-36 -14 -68 -16q-16 0 -30 -1t-26 -3h-684zM532 454h364l88 8q173 75 173 225q0 36 -9 75q-42 104 -132 148 q-26 7 -48.5 11t-39.5 5h-396v-472zM532 1134h380q21 3 38 7t30 9q101 71 101 180v12q0 6 -1 12q-28 93 -108 140l-48 12l-24 4h-368v-376z" />
<glyph unicode="C" horiz-adv-x="1600" d="M137 986q0 165 56 328q152 429 572 476q12 1 23.5 1h22.5q513 0 666 -461q-4 -7 -12 -12l-20 -4l-16 -4h-16q-9 -4 -20 -4q-21 -8 -36 -8h-4q-5 -4 -12 -4l-16 -4l-28 -4l-8 -4l-64 -12q-108 285 -369 285q-61 0 -135 -17q-5 -4 -12 -4l-28 -12q-21 -11 -40 -16 q-4 -7 -8 -8l-12 -4l-12 -8l-8 -8l-12 -4q-19 -19 -34.5 -33t-29.5 -23l-4 -12l-20 -20l-4 -12l-8 -4q-14 -36 -32 -60q-51 -171 -51 -331q0 -127 31 -245q79 -297 372 -324h4q321 0 412 284l20 -4q12 -4 23 -5.5t21 -2.5l8 -4l64 -12l16 -4l28 -4l72 -16 q-142 -427 -560 -468q-17 -2 -34.5 -2h-34.5q-396 0 -591 326q-120 248 -120 488z" />
<glyph unicode="D" horiz-adv-x="1672" d="M275 218v1528h564l12 -4h12l8 4h16l16 -4h12l64 -4l20 -4l16 -4l8 -4l32 -8l60 -20l40 -24l12 -4q21 -10 32 -20q7 -4 8 -8q37 -20 56 -36q259 -280 259 -618q0 -35 -2.5 -70.5t-8.5 -71.5q-120 -630 -691 -630q-15 0 -30 0.5t-31 1.5h-484zM539 454h312l12 4h12l64 8 l32 8q17 11 33.5 17.5t30.5 10.5q4 7 8 8l12 4l4 8l12 4l4 8l12 4q13 19 28 28q19 26 40 44q104 193 104 381v15q-14 320 -244 468h-12q-17 11 -33.5 16t-30.5 8l-20 4l-52 8h-328v-1056z" />
<glyph unicode="E" horiz-adv-x="1428" d="M263 214v1532h960v-240h-696v-384q1 -16 15 -16h621v-236h-636v-400q0 -20 16 -20h724v-236h-1004z" />
<glyph unicode="F" horiz-adv-x="1288" d="M264 214v1528h960v-236h-696v-400h636v-240h-636v-652h-264z" />
<glyph unicode="G" horiz-adv-x="1680" d="M143 1013q0 562 493 757l40 4l12 4h12l12 4q41 1 72 8q15 1 29.5 1.5t29.5 0.5q438 0 621 -366l-28 -12q-24 -16 -40 -20q-4 -7 -8 -8l-12 -4l-8 -8l-8 -4l-24 -8l-4 -8l-48 -20q-24 -17 -40 -20q-11 18 -16 36q-2 2 -3 3.5t-1 3.5v1l-8 4l-36 56q-166 138 -329 138 q-141 0 -279 -102l-24 -16q-4 -7 -8 -8q-4 -7 -8 -8l-8 -12l-8 -4l-4 -8q-11 -18 -21 -32t-19 -24q-65 -193 -65 -373t65 -351l8 -4q29 -53 64 -84q145 -124 304 -124q79 0 164 32q227 88 227 319q0 20 -1.5 41t-5.5 44h-436v236h672v-864h-236q1 12 1 23v23q0 23 -1 42.5 t-4 35.5q-49 -79 -120 -120l-16 -4q-43 -27 -96 -36q-38 -6 -74.5 -8.5t-71.5 -2.5q-290 0 -482 191q-186 192 -208 432q-8 60 -12.5 115t-4.5 108z" />
<glyph unicode="H" horiz-adv-x="1740" d="M264 214v1528h264v-596h680v596h264v-1528h-264v696h-680v-696h-264z" />
<glyph unicode="I" horiz-adv-x="788" d="M264 214v1528h264v-1528h-264z" />
<glyph unicode="J" horiz-adv-x="1008" d="M28 250l4 16q5 14 10 25t10 19l8 24l4 16l12 32l4 12l4 8l24 60l48 -8l8 -4l48 -8l40 -12l12 4h12q6 -2 12.5 -3t13.5 -1h38l80 8l8 8q36 19 56 40l4 12q17 26 24 48l4 32v1164h268v-1216l-4 -32q-12 -63 -28 -100q-121 -201 -338 -201h-15q-7 0 -15 1q-4 -4 -6 -4h-23 q-17 0 -31.5 1t-27.5 3h-28l-52 4q-11 4 -22 5.5t-22 2.5l-64 16q-25 6 -44.5 13.5t-35.5 14.5z" />
<glyph unicode="K" horiz-adv-x="1500" d="M268 214v1528h264v-680l16 20l24 24q4 7 8 8l4 8l8 8l52 60l20 20l4 12l24 20l4 8l44 52l16 20l44 48l16 16l12 20q11 14 21.5 23.5t18.5 16.5q18 32 40 48l40 52l12 12l12 16l32 32l36 44l8 8q4 7 8 8l4 8l8 8l52 60h308q-25 -43 -56 -68q-8 -14 -20 -24l-16 -24 l-32 -32l-24 -32l-8 -8q-7 -9 -14 -16t-14 -12q-24 -40 -52 -60l-12 -16l-44 -56l-12 -12q-12 -13 -21 -23.5t-15 -20.5l-12 -8l-12 -12l-8 -16l-20 -20l-8 -12l-8 -8l-8 -12l-12 -8l-4 -8l-8 -8q-42 -54 -72 -80q22 -48 40 -72l12 -28q9 -9 12 -20l16 -20l16 -28l8 -16 l8 -12l8 -16l4 -12l8 -4l4 -16q4 -3 4 -6v-2q27 -28 36 -60l16 -28l8 -8l40 -68l16 -28l12 -28l16 -20l4 -12q10 -13 17 -25t11 -23l12 -16l8 -20l12 -16l28 -48l16 -24l4 -16l12 -16l4 -12q7 -5 8 -12l8 -16q20 -22 28 -48q25 -26 32 -52l8 -8l40 -76h-296l-12 28l-12 12 l-8 16l-16 28l-4 12l-8 8l-4 8q-8 14 -14.5 25t-13.5 19l-4 12l-8 16l-16 24l-12 24l-12 20l-16 24l-12 20l-4 8q-25 40 -36 68q-9 11 -12 20q-2 2 -3 3.5t-1 3.5v1q-31 40 -44 72l-4 12q-26 31 -36 52l-4 16l-8 12l-12 16l-4 12l-16 24l-4 12l-8 8l-4 8l-4 12l-8 4 q-16 35 -32 60l-8 -8l-4 -8q-17 -14 -24 -28l-12 -8l-36 -48l-16 -12l-16 -24l-12 -8q-20 -32 -40 -48q-19 -27 -40 -44v-484h-264z" />
<glyph unicode="L" horiz-adv-x="1160" d="M264 218v1528h264v-1292h596v-236h-860z" />
<glyph unicode="M" horiz-adv-x="1996" d="M264 218v1528h304l12 -24l8 -4l4 -12l8 -4l4 -12q21 -18 32 -40l16 -24q21 -18 28 -36l16 -20l40 -48l8 -16l40 -48l12 -16l4 -8q14 -17 20 -32q23 -22 36 -40l4 -12l20 -20l16 -24l8 -8l4 -12l12 -12l32 -48l48 -56l17 21q8 9 15 15q5 11 10 20t10 16q15 15 20 24l4 8 l8 4l4 8l32 44l16 20l12 20l24 32l16 20l8 8l36 48l8 12l12 12l12 20l16 20l16 24l8 8l4 8l20 20q8 21 24 32l4 12l8 8l4 8l8 12l12 8l4 12l40 52h300v-1528h-264v1156l-8 -8l-4 -8l-20 -20q-8 -21 -24 -32q-8 -15 -16 -24l-16 -24l-4 -8l-8 -8l-4 -8l-12 -8l-4 -8 q-16 -28 -32 -44l-12 -20l-16 -16l-16 -20l-24 -32l-4 -12l-12 -12q-4 -7 -8 -8l-4 -12l-20 -20q-25 -45 -52 -68q-19 -36 -40 -56q-7 -11 -14 -20t-14 -16l-16 -24q-4 -7 -8 -8l-4 -8q-14 -23 -28 -40t-28 -28l-16 28q-16 14 -24 24l-16 28l-12 12l-16 24q-7 5 -8 12 q-7 4 -8 8l-8 8l-40 52l-16 24q-7 9 -12 20l-16 20l-16 16l-12 20l-12 16l-12 12l-8 16l-12 12l-16 20l-8 16q-7 4 -8 8l-8 8q-22 35 -40 52l-4 8q-14 17 -20 32l-12 8l-4 12q-17 16 -24 28l-8 8q-27 42 -52 68v-1156h-264z" />
<glyph unicode="N" horiz-adv-x="1824" d="M268 218v1532h296l16 -28l8 -8l16 -28q8 -11 14 -21.5t10 -18.5l8 -4l4 -8l36 -56l32 -48q4 -3 4 -6v-2q30 -33 40 -60q14 -15 23.5 -29t16.5 -27l16 -20l12 -24l8 -12l8 -8l16 -28l8 -8l28 -44l32 -48l28 -40l8 -8l8 -12l4 -12l8 -12l8 -8l16 -28l8 -8l28 -44l4 -8 l8 -12q4 -3 4 -6v-2q10 -11 18 -21t14 -19l12 -20l8 -16q21 -22 28 -44l16 -24q12 -9 20 -24l16 -24q10 -14 16.5 -26t11.5 -22q7 -5 8 -12l12 -8l4 -12l8 -8l8 -12l4 -12q31 -36 44 -60v1100h264v-1532h-296l-16 28l-8 8l-4 12q-31 36 -44 60l-4 8q-15 20 -26 37t-18 31 l-20 24l-40 60l-4 8l-8 8l-16 28q-8 11 -14 21.5t-10 18.5q-21 21 -28 36q-15 23 -20 36q-7 4 -8 8l-8 8l-4 12l-8 8l-4 12q-11 11 -19 20.5t-13 19.5l-52 76l-8 20q-25 23 -32 48q-30 33 -40 60l-16 16l-8 20l-20 20l-12 24l-12 16q-8 11 -14 21.5t-10 18.5l-16 24 q-7 4 -8 8l-28 40q-10 14 -16.5 26t-11.5 22l-12 12l-4 12l-12 12l-4 12q-7 4 -8 8q-2 2 -3 3.5t-1 3.5v1q-31 36 -44 60v-1096h-264z" />
<glyph unicode="O" horiz-adv-x="1692" d="M155 938v60l4 36v56l4 16v12l4 12q3 61 20 108q133 524 640 556h76l16 -4h12q31 0 48 -4h24q39 -12 70 -12h6q480 -184 500 -728q1 -20 2 -40.5t1 -40.5q0 -531 -435 -743q-159 -54 -300 -54q-273 0 -484 206q-193 233 -200 504q-4 12 -4 28q0 21 -4 32zM417 1004 q0 -60 6 -126q23 -324 280 -440q11 -2 16 -4l100 -24q485 11 492 516q3 44 3 85q0 547 -503 547q-394 -77 -394 -554z" />
<glyph unicode="P" horiz-adv-x="1408" d="M264 218v1532h604q9 -2 16.5 -3t14.5 -1h5l44 -8q19 -7 34.5 -12t29.5 -8q305 -158 305 -458q0 -19 -1.5 -38.5t-3.5 -39.5q-102 -412 -497 -412q-21 0 -42.5 1t-44.5 3h-196v-556h-268zM528 1010h257q31 0 51 -4q4 4 7 4h1l28 4l24 4q168 87 168 235q0 49 -20 109 q-46 80 -116 124q-34 7 -60 20h-20l-24 4h-296v-500z" />
<glyph unicode="Q" horiz-adv-x="1716" d="M156 996q0 583 504 778h16l12 4h24q41 11 68 12q18 1 35 1.5t34 0.5q573 0 699 -550q35 -158 35 -294q0 -386 -271 -630l-4 -8l-12 -4q-36 -36 -76 -52q7 -15 12 -28t8 -24l8 -8l8 -24q38 -56 48 -104l-16 -4l-12 -8l-12 -4q-33 -20 -60 -28q-19 -15 -44 -20 q-38 -26 -72 -32l-8 24q-13 16 -16 32l-8 8v12l-8 8q-13 32 -24 48l-4 12l-28 64q-18 -2 -33 -3t-28 -1h-49q-620 0 -718 668q-4 41 -6 79t-2 75zM422 972q0 -188 70 -358q18 -18 28 -36q6 -10 14 -18l14 -14q145 -136 321 -136h11l-20 48q-14 17 -16 36l-8 8l-4 8l-8 24 q-28 43 -36 80l44 20l12 4l8 4q25 15 47 25t41 15q4 4 7 4h1q14 10 27.5 16.5t24.5 11.5l8 -16l8 -12v-12l8 -8l4 -12l24 -48l4 -12l8 -8v-12q13 -16 16 -32l36 -64q4 7 8 8l12 4l8 12l8 8l8 4l12 8l8 12l8 4l52 64q11 35 28 56v12q6 17 10 31t6 25q14 42 16 76q8 27 8 46v6 l4 8l4 92q1 17 1.5 32.5t0.5 30.5q0 527 -490 541q-361 -66 -392 -412q-7 -45 -10.5 -88t-3.5 -86z" />
<glyph unicode="R" horiz-adv-x="1532" d="M268 218v1532h460q35 3 68 3q379 0 512 -331q27 -87 27 -169q0 -97 -39 -187q-70 -171 -236 -220l8 -8l4 -12l32 -60l12 -24l8 -24l36 -64l16 -36l8 -12l4 -12l12 -28q16 -24 20 -40q17 -23 24 -40l12 -24l8 -20q16 -27 24 -52q27 -37 36 -72l8 -8l8 -16l16 -40 q14 -17 16 -36h-280l-12 24q-25 42 -36 76l-24 40l-4 16q-18 24 -24 44l-12 24l-4 12q-2 2 -3 3.5t-1 3.5v1l-8 8l-4 8l-4 12l-24 48l-24 44l-8 16l-4 16l-8 8l-4 12l-8 12l-4 8q-13 32 -24 48l-52 112h-264v-596h-264zM532 1050h359q20 0 37.5 1t31.5 3q126 89 126 214 q0 47 -18 98q-41 92 -124 132l-40 8q-12 2 -23 3t-21 1h-328v-460z" />
<glyph unicode="S" horiz-adv-x="1484" d="M132 482l4 8l8 4q4 4 7 4h1q22 26 48 40l12 12l48 40l8 4q4 4 7 4h1q16 17 31 30.5t29 21.5h12q170 -222 385 -222q113 0 235 58q23 26 44 40l4 12q23 32 32 64q1 7 1 13v12q0 115 -89 179l-12 4q-22 9 -40 12l-8 8h-12l-16 4l-8 4h-12l-8 4q-39 6 -64 16h-12l-32 8h-12 l-16 4l-8 4q-39 6 -64 16q-400 46 -444 412q9 435 476 476q23 2 45 3t43 1q346 0 524 -260l-20 -12q-10 -11 -19 -19t-17 -13l-20 -20l-12 -4q-19 -24 -40 -32q-19 -26 -48 -40q-12 -16 -24 -24q-142 187 -348 187q-22 0 -48 -3q-184 -6 -236 -160q0 -106 64 -176l28 -16 l12 -4l44 -20h20l16 -4l20 -4q23 -9 40 -12l32 -8h12l132 -32h12l12 -4h12l12 -4l56 -12l12 -4l16 -4l32 -12q51 -13 84 -32l8 -8l12 -4l8 -12q15 -8 24 -16q7 -4 8 -8l48 -44q84 -124 84 -253q0 -68 -24 -139q-66 -225 -256 -312q-25 -16 -48 -24q-60 -12 -116 -17.5 t-110 -5.5q-377 0 -622 291z" />
<glyph unicode="T" horiz-adv-x="1184" d="M44 1510v240h1104v-240h-420v-1292h-264v1292h-420z" />
<glyph unicode="U" horiz-adv-x="1672" d="M248 730v1012h268v-1064l24 -56q103 -195 304 -204q217 16 308 196v12l8 16q9 36 14.5 66t5.5 54v980h264v-964q0 -21 4 -32l-4 -64l-8 -56l-4 -8l-16 -64q-193 -376 -559 -376q-65 0 -137 12q-309 78 -432 340l-12 44q-2 2 -3 3.5t-1 3.5v1q-17 56 -20 88v32z" />
<glyph unicode="V" horiz-adv-x="1412" d="M92 1746h264l8 -28l8 -32q4 -7 5.5 -14t2.5 -14l12 -28l4 -16l4 -12l4 -16l4 -12l4 -16l36 -128l24 -68l16 -56l4 -16v-12l8 -16l4 -24q4 -3 4 -6v-2l4 -8v-12q14 -30 20 -52l4 -28q17 -37 20 -68q7 -12 8 -20l4 -20q4 -5 4 -12q10 -24 12 -44q15 -29 16 -52q5 -8 8 -28 q11 -27 18.5 -51t9.5 -45l8 -12l12 -56l8 -12v-16l8 -12v-12q11 -28 18.5 -52t9.5 -44l8 16q7 35 20 64v12l4 12l4 8l16 56l12 36l4 20l4 12l4 20l8 24l4 8l16 56l8 32l8 16v12l8 16q7 32 14.5 58t17.5 46l8 28l12 56l8 16l4 12v12l8 16q7 37 20 64l4 28l8 20l4 8q2 11 4 16 l4 12v12q18 45 24 76l4 12l16 56l8 32l32 96q3 22 12 40l8 36h264l-4 -28l-12 -36l-16 -56l-8 -32l-8 -28l-12 -28l-16 -64l-12 -36l-16 -56l-8 -32l-8 -28l-4 -12l-4 -8l-8 -32l-8 -28l-4 -8l-12 -36v-12q-19 -45 -24 -80l-12 -28q-9 -47 -24 -80v-12l-8 -28l-4 -12l-4 -8 l-16 -64l-8 -16q-7 -37 -20 -64l-12 -56l-8 -16l-4 -12l-4 -20l-4 -8q-7 -37 -20 -64l-4 -24l-8 -20l-4 -20l-8 -16q-6 -39 -16 -64l-20 -68l-12 -44l-4 -16l-4 -12l-4 -16l-12 -28l-4 -24l-16 -48h-324q-10 29 -12 48q-12 21 -12 40l-8 12l-12 56q-11 17 -12 32l-8 24 q-4 11 -5 21t-3 19q-7 16 -12 29.5t-8 26.5l-16 64l-12 28l-8 28v12q-20 47 -24 80q-18 45 -24 76l-4 20l-16 40v12l-4 8l-20 64v12q-7 16 -11 29.5t-5 26.5q-4 5 -4 12l-24 68l-4 28l-12 28v12q-8 15 -12.5 30t-7.5 30l-4 20q-4 5 -4 12l-4 12q-11 26 -12 44l-16 40l-4 24 l-8 24l-8 20v16q-7 12 -8 20l-4 16l-8 20q-7 37 -20 64v16q-4 5 -4 12q-10 22 -12 40q-10 22 -12 44q-19 37 -20 68z" />
<glyph unicode="W" horiz-adv-x="1968" d="M124 1738v8h276l4 -28l4 -12l8 -28l8 -48l12 -40l8 -48l12 -40l4 -32q7 -17 8 -28l4 -16l8 -24v-16q4 -3 4 -6v-14q11 -22 12 -48l8 -24l8 -28l8 -48l12 -40l4 -24l24 -100q3 -14 5.5 -25.5t2.5 -22.5l8 -16v-16l8 -20v-16l8 -16v-16q11 -30 12 -52l4 -16q7 -20 11 -37 t5 -31l8 -32l8 -28l8 24l16 80l8 20l4 24l12 56l8 28v12l16 64l4 24l8 16l4 16l4 20v16l4 12l16 64l8 48l4 16l8 16q2 32 12 56l4 20v12l8 32l4 12l12 52l4 24l8 24l4 20l12 52l4 20l4 8q1 11 2.5 21.5t5.5 18.5l4 12v12l4 16l4 12l12 56h296v-12q14 -35 16 -68l8 -32l4 -12 l16 -72l8 -32q8 -29 8 -48q7 -17 8 -28l8 -28l4 -28l4 -16l4 -12q3 -13 5 -23.5t3 -20.5q8 -19 11 -35t5 -29l4 -24l8 -20l4 -24v-12q10 -24 12 -44l4 -24q10 -24 12 -44l4 -20l12 -44v-16q4 -9 4 -20q11 -23 12 -40l4 -20l4 -24l4 -16q10 -31 12 -56q4 -3 4 -6v-14 q14 -35 16 -68q6 2 8 8q5 25 10 43.5t10 32.5v16q13 36 16 64l8 28l16 64l4 32l8 28l4 12v12q7 19 11 34.5t5 29.5l8 28l32 132l12 64l8 32q11 29 12 48l4 20l8 32q9 29 12 48l4 16l12 56l8 24v12l12 32v16l4 12l12 56h272l-16 -80l-12 -48l-4 -12l-12 -56l-8 -32l-8 -28 l-16 -80l-8 -28l-16 -76l-8 -28l-4 -12l-8 -44l-4 -8l-4 -28q-10 -33 -12 -56l-16 -48l-4 -28l-4 -16l-4 -12l-4 -28l-4 -12l-24 -100l-4 -28l-8 -28l-20 -80l-4 -28l-24 -100l-12 -56q-11 -30 -12 -52l-16 -52v-16q-11 -30 -12 -52q-10 -33 -12 -56l-8 -28l-4 -8l-4 -28 q-10 -33 -12 -56h-296l-4 32q-7 17 -8 28l-8 32l-4 28l-8 28q-3 12 -5 23t-3 21l-4 16l-4 20q-4 5 -4 12l-4 20l-4 12q-3 13 -5 23.5t-3 20.5q-7 19 -10.5 35t-5.5 29l-4 16l-4 20q-4 12 -5.5 23t-2.5 21q-7 20 -11 38t-5 34q-4 5 -4 12l-4 16l-4 12q-3 21 -8 40l-8 36 l-4 24l-8 20l-8 48l-4 12v12q-10 24 -12 44l-8 48l-8 20l-8 32v16q-12 33 -12 56q-4 5 -4 12l-4 12v12q-10 23 -12 48q-10 32 -12 60l-8 -16l-4 -24l-12 -52l-8 -44l-4 -12l-16 -68l-4 -16l-8 -40l-4 -16l-8 -44l-4 -12l-16 -76l-8 -28l-4 -28q-11 -30 -12 -52l-4 -8l-4 -24 l-4 -12l-20 -100l-4 -12l-16 -76l-4 -16l-4 -20l-4 -12l-16 -76l-8 -32l-8 -40l-4 -8l-8 -36l-4 -16l-4 -28q-7 -25 -8 -40q-4 -10 -5.5 -19t-2.5 -17q-14 -2 -25.5 -3.5t-22.5 -1.5h-10q-5 0 -10 1h-232v16q-14 36 -16 68q-4 5 -4 12l-4 20q-22 71 -28 120l-4 12l-20 76 l-4 32l-32 124v16q-10 23 -12 48l-8 24l-8 28v12l-20 80v12l-4 16l-8 16l-4 32q-8 24 -13 44t-7 36l-4 12v12q-4 5 -4 12l-8 32l-4 12q-4 21 -7.5 38t-8.5 30l-4 28q-7 20 -11 37t-5 31l-4 20q-4 5 -4 12l-20 80l-8 28l-4 20l-4 16l-4 28q-8 21 -8 36v4l-8 20l-4 16 q-4 29 -12 48v16q-4 5 -4 12z" />
<glyph unicode="X" horiz-adv-x="1388" d="M52 218l16 32l32 56l20 24l8 20l16 28l8 12l8 4q12 32 28 52l8 12l4 8q13 21 24 32q20 48 44 72l8 20l12 20l8 8l48 84l8 8q22 43 44 68l8 12l4 16l8 12l24 32l4 12l4 8l12 20l12 12l16 28l4 12l8 8q23 44 44 68q-7 19 -16 28l-12 28l-12 12l-8 12l-4 8l-4 12l-52 80 l-16 24l-16 32q-2 2 -3 3.5t-1 3.5v1q-26 33 -36 56l-12 24q-26 29 -36 52l-40 68l-8 16l-12 12l-28 52l-12 12l-20 36l-16 24l-4 12q-14 16 -20 32l-8 8l-4 12q-2 2 -3 3.5t-1 3.5v1q-27 29 -36 60h296l24 -40l12 -28q18 -18 28 -36l16 -28q19 -36 36 -56l12 -20l16 -32 l16 -20l8 -16l24 -44l8 -8l16 -32q18 -20 24 -40q7 -4 8 -8l4 -8l8 -8q17 -36 36 -56q17 39 40 64l12 20l8 20q38 55 56 92l24 32l8 12q11 28 24 44l4 8q7 10 12 17.5t8 14.5l16 20l4 12l12 12l4 12l4 8l56 92h296q-8 -17 -16 -28l-12 -28q-14 -16 -20 -32l-20 -24l-12 -28 l-8 -4q-12 -32 -28 -48l-12 -24l-16 -20q-8 -20 -18.5 -35.5t-21.5 -28.5l-12 -24l-12 -16l-20 -40l-8 -12l-8 -8q-21 -43 -44 -68l-8 -16l-8 -20l-12 -12l-8 -12l-28 -52l-8 -8l-8 -12l-16 -28l-4 -12l-8 -8q-23 -44 -44 -68l4 -20l12 -12l24 -44l8 -8l4 -12q14 -16 20 -32 l8 -8l4 -12q4 -3 4 -6v-2q27 -28 36 -60q14 -14 20 -28l4 -8q23 -31 36 -56l12 -24l16 -20q21 -36 36 -56l12 -20l8 -20q22 -27 32 -48l28 -48q35 -48 48 -80q11 -13 19 -26t13 -26q16 -18 20 -32l8 -8l4 -12l8 -8l4 -12q29 -34 40 -64h-296l-32 48l-12 24l-16 24l-12 20 l-4 8q-9 14 -16 25.5t-12 22.5l-12 16q-11 17 -19 31t-13 25l-12 12l-8 20l-12 12l-28 52l-8 16q-9 11 -16 19.5t-12 16.5l-4 12q-11 16 -19 29.5t-13 26.5q-7 4 -8 8l-4 12q-7 4 -8 8l-8 8l-16 28q-10 23 -24 40l-16 -24q-20 -45 -44 -72l-36 -64l-12 -20l-36 -56l-12 -20 q-8 -14 -14 -23.5t-14 -16.5l-8 -20l-36 -56q-4 -7 -8 -8q-14 -35 -32 -56l-8 -16l-8 -12l-4 -8l-56 -92h-296z" />
<glyph unicode="Y" horiz-adv-x="1336" d="M36 1746h280l16 -28l12 -28l16 -24l4 -12q11 -19 19 -34.5t13 -29.5l16 -24l12 -20l4 -12q17 -25 24 -48l16 -24q7 -10 10.5 -19t5.5 -17q20 -24 28 -52q19 -22 24 -44l12 -16l8 -20l12 -16l12 -24q11 -18 16 -36q25 -33 32 -60q20 -25 28 -52q10 10 16 24l16 24l12 28 l16 24l12 28l4 8q11 17 19 31.5t13 28.5q11 16 19 31t13 29l8 4q13 37 32 64l12 24l24 44l8 16l8 12l4 8q7 15 14 27t14 21l4 16l8 12l8 16l8 8q6 22 12 32l8 8l36 72h280v-12l-8 -8l-12 -28l-48 -80q-19 -53 -44 -84l-12 -24l-12 -28l-8 -16l-16 -24l-4 -12l-8 -8l-36 -72 l-16 -24l-32 -68l-36 -60l-8 -20l-12 -16q-25 -58 -48 -88l-8 -20l-8 -16l-8 -12l-4 -12q-25 -38 -36 -68l-8 -8l-12 -28l-48 -80v-612h-264v612q-7 4 -8 8l-4 12q-12 15 -20 32l-36 68l-12 24l-8 12q-11 18 -16 36q-25 33 -32 60q-20 25 -28 52q-2 2 -3 3.5t-1 3.5v1l-8 4 l-4 8l-4 12l-24 48q-9 12 -12 24l-16 20l-12 24l-8 24l-12 16l-8 20l-24 40l-28 48l-8 24l-8 8q-18 35 -32 56l-20 48q-7 5 -8 12q-13 16 -16 32q-20 25 -28 52q-34 45 -44 84z" />
<glyph unicode="Z" horiz-adv-x="1292" d="M108 218v240l12 16l8 12l4 8l8 12l8 8q4 7 8 8q15 35 36 56l24 36l76 116l40 52l12 24l8 12l40 52q8 15 16 24q13 27 28 40q8 21 20 36l16 24l8 8l20 32l4 8l16 20l24 36q23 31 36 56l16 20l40 60l12 20l12 12q8 13 14.5 23t13.5 17l16 24l12 16l8 12l4 12l8 8l8 16l8 4 q16 32 28 48l8 8l36 56h-696v236h1020v-240l-20 -24l-12 -24l-12 -12l-8 -16l-8 -8l-24 -36q-16 -28 -32 -48l-20 -32l-4 -8l-16 -20l-20 -24l-8 -16l-8 -12l-8 -16q-16 -16 -24 -32l-8 -12q-7 -10 -12 -17.5t-8 -14.5q-33 -41 -44 -64l-20 -24l-16 -28l-20 -24l-16 -24 l-12 -24l-32 -40l-12 -24l-8 -8l-8 -12q-4 -7 -8 -8l-52 -84l-12 -12l-4 -8q-7 -10 -12 -17.5t-8 -14.5q-24 -28 -32 -48l-12 -12l-16 -24l-44 -68l-8 -8l-8 -12q-4 -7 -8 -8l-52 -84h716v-236h-1040z" />
<glyph unicode="[" />
<glyph unicode="\" horiz-adv-x="840" d="M44 78l4 12v12l20 68q9 22 12 40l8 24q5 12 8 23t4 21q11 21 12 40l12 28l8 28l4 20l8 16v12l8 16l4 16l4 12l4 16l4 8v12l8 16q7 35 20 64l4 12l4 28q13 27 16 52q6 11 9.5 22t6.5 22l8 32l20 60l8 32l4 12l4 16l12 28l16 64l8 28l8 24l8 28l4 8l8 24l4 16l4 12l16 56 l8 16v12l8 16q7 32 14.5 58t17.5 46l8 28v12l16 44l4 8q9 51 24 84l8 28l4 12q6 31 16 52l4 24l20 56l4 20l8 16l4 20l16 56l4 16l8 12q2 14 5 27t7 25l12 36l4 8l16 64l28 -4l24 -8l8 -4l24 -8l8 -4h12l28 -12h12l60 -20l-8 -32q-8 -19 -13 -34.5t-7 -29.5q-4 -11 -7 -19 t-5 -13v-12l-8 -12v-12l-8 -16l-4 -12q-2 -11 -4 -16l-28 -100l-8 -24l-4 -8l-16 -64l-12 -28l-12 -52l-4 -8l-8 -32l-20 -60l-4 -20l-8 -12l-4 -12q-3 -28 -12 -52l-4 -16l-12 -28l-16 -64l-12 -32l-4 -8q-4 -22 -8.5 -40t-11.5 -32l-20 -68l-8 -32q-9 -22 -12 -40l-20 -60 l-4 -16l-4 -8l-16 -64l-12 -28v-12q-18 -45 -24 -76l-16 -56l-24 -68l-20 -80l-8 -20l-20 -64l-8 -32l-4 -12q-4 -11 -7 -19t-5 -13l-4 -20l-4 -12l-4 -20l-12 -28l-4 -12q-2 -11 -4 -16l-28 -100l-12 4l-16 4l-20 4l-8 4l-40 12l-16 4l-12 4l-16 4z" />
<glyph unicode="]" />
<glyph unicode="^" horiz-adv-x="4632" d="M20 1566l12 -4h16l144 -36l20 -4l24 -4l20 -4l20 -8l32 -8l24 -4q28 -5 44 -12h16l12 -4l116 -28l12 -4l80 -16l8 -4l12 -4l28 -4l8 -4l36 -8l28 -8l28 -4l32 -8l28 -8q43 -6 68 -16l28 -4q33 -10 56 -12l32 -12l36 -4l28 -8l8 -4l28 -4l8 -4q30 -4 48 -12h12l64 -16 l28 -8l24 -4l108 -28l68 -12l28 -8l12 -4q31 -4 52 -12l16 -4l28 -4l64 -16l12 -4l100 -24v680h1084v-680l52 16h12l52 12q31 10 56 12q35 14 68 16l28 8l24 4q15 8 31 8h5l16 4q5 4 12 4l12 4l32 8h12q35 14 68 16l16 8h20l20 8l56 12l24 4q5 4 12 4l24 4l20 8l16 4l12 4 q34 3 56 12l32 4q17 7 28 8l24 4l16 4q17 7 28 8l72 20l28 4l8 4l16 4h16l32 8l12 4l8 4h12l52 12l24 4l20 8l16 4h12l28 8l12 4h12q19 7 34.5 11t29.5 5l24 4q46 19 80 20l20 4l16 8h20l16 4l20 8l16 4l20 4l16 4h12q5 4 12 4l12 4l16 4h12q29 12 52 12q36 14 64 16 l-12 -12l-16 -8q-4 -7 -8 -8l-8 -4q-4 -7 -8 -8l-8 -8q-17 -10 -31 -19.5t-25 -20.5l-12 -4q-23 -22 -44 -32l-20 -16l-16 -8q-18 -18 -36 -28l-16 -12q-21 -13 -32 -24l-12 -4q-25 -25 -52 -36q-4 -7 -8 -8l-8 -8l-28 -16q-4 -4 -6 -4h-2l-4 -8q-13 -8 -23 -15t-17 -13 q-9 -5 -16 -10t-12 -10l-8 -4l-8 -8l-12 -4q-15 -13 -28 -23t-24 -17l-12 -4l-4 -8l-12 -4l-4 -8l-104 -68l-4 -8l-68 -44l-24 -20l-12 -8l-16 -8l-12 -12l-16 -8l-12 -12l-12 -4l-4 -8l-16 -8q-4 -4 -6 -4h-2l-4 -8l-68 -44l-24 -16l-4 -8l-44 -28q-19 -16 -32 -20l-4 -8 l-16 -8q-4 -4 -6 -4h-2l-4 -8l-68 -44l-24 -20l-12 -4q-33 -32 -64 -48q-19 -16 -32 -20q-5 -7 -12 -8l-8 -12l-12 -8l-24 -12q-4 -7 -8 -8l-8 -8l-12 -4q-20 -20 -40 -28l-4 -8l-8 -4q-32 -24 -52 -32q-4 -7 -8 -8l-24 -16q-4 -7 -8 -8q-11 -7 -20 -14t-16 -14l-24 -12 l-24 -16l-4 -8l-12 -4q-5 -7 -12 -8q-20 -17 -37 -30.5t-31 -21.5l-24 -16l-8 -8l-12 -4q-15 -13 -28 -23t-24 -17l-24 -12l-20 -20l-20 -12l-20 -16l-16 -12l-20 -12l-16 -12l-20 -16l-24 -12l-16 -16l-28 -16q-4 -4 -6 -4h-2l-4 -8l-8 -4q-10 -7 -18 -13t-14 -11l-36 -20 q-5 -7 -12 -8l-8 -12l-8 -4l-32 -20l-12 -8q-18 -18 -36 -28l-8 -4l-8 -8l-40 -28l-28 4l-24 20l-36 24q-7 4 -8 8l-12 4l-12 8l-8 8l-32 20q-25 22 -44 32l-24 20l-24 16q-14 8 -24 20q-49 24 -76 52l-24 12l-16 16q-27 15 -40 28l-20 12q-17 11 -29.5 21.5t-22.5 18.5 l-12 4q-31 26 -52 36l-16 16l-12 4l-12 8l-8 8l-56 40l-20 12l-12 8l-36 32l-12 8l-12 4l-12 8l-8 8l-8 4l-56 40l-52 36l-4 8q-48 26 -76 48l-28 24q-14 7 -25 15t-19 17l-28 16l-8 4l-28 24l-8 4q-12 8 -24 20l-8 4q-33 17 -56 40l-12 4q-20 17 -34 26.5t-26 21.5 q-34 15 -52 36l-48 32l-100 68l-24 20l-28 16l-4 8l-12 4l-52 40q-22 14 -38.5 25.5t-29.5 22.5l-24 16q-28 20 -48 36q-36 20 -60 44l-20 8l-64 48q-7 4 -8 8l-8 4q-7 4 -8 8l-8 4l-12 4l-8 8l-24 16l-8 8q-11 7 -20 14t-16 14l-20 8q-13 11 -23.5 19t-20.5 13l-12 8 q-25 22 -44 32l-4 8l-8 4l-12 4q-25 22 -44 32l-36 28q-7 4 -8 8q-44 23 -68 48z" />
<glyph unicode="_" />
<glyph unicode="`" />
<glyph unicode="a" horiz-adv-x="1200" d="M84 494v5q0 387 453 387h3q9 4 20 4l12 4h28l12 4h12l100 12q2 11 2 20v20q0 167 -177 167q-123 0 -337 -83l-16 36l-8 24l-8 8l-4 8l-8 24q-11 18 -16 36q-21 28 -28 56l12 4l8 4l12 4l8 8h12q4 4 7 4h1q36 19 64 28l20 4q22 10 40 12l32 8q35 14 68 16l88 16 q20 2 38.5 3.5t36.5 1.5q191 0 313 -125l12 -24q47 -58 60 -120q4 -26 6 -48.5t2 -39.5v-528q37 -73 108 -88l-8 -12q-4 -7 -8 -8l-4 -12l-8 -8q-10 -22 -24 -36q-14 -37 -36 -56q-9 -20 -17 -34.5t-15 -25.5q-117 30 -184 108h-12q-129 -93 -266 -93q-74 0 -146 25 q-215 77 -260 280zM323 538q0 -53 53 -104q77 -47 150 -47q93 0 178 75q8 23 16 32l4 12l-4 16v188h-80q-5 -4 -12 -4h-24q-9 -2 -17.5 -3t-16.5 -1h-6l-16 -4h-12q-5 -4 -12 -4h-12l-64 -16h-12q-28 -16 -48 -20q-65 -62 -65 -120z" />
<glyph unicode="b" horiz-adv-x="1268" d="M156 218v1524h240v-512q135 111 277 111q130 0 267 -95q47 -26 72 -56q151 -206 151 -429q0 -62 -11.5 -124.5t-35.5 -126.5q-89 -212 -284 -284q-88 -30 -169 -30q-148 0 -267 102v-80h-240zM404 618q64 -173 228 -173h16q8 0 16 1q222 47 244 288v16q0 336 -304 348 q-130 -33 -188 -136q-3 -21 -12 -44v-300z" />
<glyph unicode="c" horiz-adv-x="1116" d="M82 762q0 177 82 320q125 225 384 240q343 -8 480 -284l-44 -16q-15 -12 -32 -20l-8 -4l-24 -8q-16 -13 -32 -16l-64 -36q-87 170 -248 170q-28 0 -60 -6l-12 -8l-12 -4l-44 -24q-16 -19 -30 -34t-26 -26q-63 -129 -63 -248q0 -126 71 -244q75 -97 183 -97h10.5t10.5 1 q163 26 224 168l40 -24l16 -8q22 -6 32 -12l16 -8l8 -8l88 -40q-160 -283 -441 -283q-22 0 -45 2t-46 5q-358 75 -408 452q-6 51 -6 100z" />
<glyph unicode="d" horiz-adv-x="1288" d="M81 752q0 36 3 73t8 77q60 292 308 396q96 35 180 35q141 0 260 -95v504h248v-1524h-248v29q0 28 -4 47q-127 -104 -269 -104q-15 0 -29.5 1t-29.5 3q-427 118 -427 558zM331 749q0 -9 1 -19q31 -189 180 -272q27 -5 51 -7.5t47 -2.5q227 0 227 256v14q0 8 -1 16 q6 45 6 85q0 269 -274 275q-237 -76 -237 -325v-20z" />
<glyph unicode="e" horiz-adv-x="1180" d="M79 741q0 521 469 593q466 -16 516 -472l4 -60q4 -5 4 -12v-120h-732q23 -204 208 -240q30 -3 59 -3q151 0 257 99q13 -22 32 -36l4 -12l12 -12q14 -13 24 -24.5t16 -23.5q7 -4 8 -8l56 -64q-190 -159 -405 -159q-37 0 -75 5t-76 14q-346 115 -380 496q0 5 -0.5 20 t-0.5 19zM336 858h484v12q-4 12 -4 24v8q-10 22 -12 40q-74 171 -244 172q-214 -51 -224 -256z" />
<glyph unicode="f" horiz-adv-x="812" d="M60 1102v204h176v124q0 8 -0.5 15t-0.5 15q0 73 21 130q110 152 288 164h56q93 0 156 -20l-8 -44v-20l-4 -48q-1 -11 -1.5 -21.5t-2.5 -18.5l-4 -64q-49 15 -92 15q-115 0 -164 -115v-112h200v-204h-200v-888h-244v888h-176z" />
<glyph unicode="g" horiz-adv-x="1232" d="M82 822q0 142 70 268q113 209 328 240h15q174 0 297 -100v76h240v-1112l-4 -44l-4 -8l-4 -24l-16 -48l-12 -24l-16 -24q-29 -51 -68 -80l-16 -20l-84 -40q-133 -33 -257 -33q-225 0 -415 109l8 16l20 44l16 40l4 12l8 16q12 30 24 48l8 28q161 -82 299 -82q125 0 233 66 l4 12q25 35 32 68v168q-129 -96 -268 -96q-62 0 -128 20q-221 87 -280 296q-17 54 -25.5 106t-8.5 102zM333 815q0 -22 3 -45q26 -227 240 -236q213 27 213 261v15q0 8 -1 16q-6 265 -244 268q-4 -4 -6 -4h-18l-88 -32q-99 -111 -99 -243z" />
<glyph unicode="h" horiz-adv-x="1216" d="M156 214v1524h244v-520q131 118 283 118q22 0 44.5 -2.5t44.5 -7.5q209 -53 272 -240l4 -28q4 -11 4 -24v-820h-244v712l-8 32v12l-12 28q-16 24 -20 40q-53 47 -108 64q-171 -3 -244 -148v-12q-5 -14 -9.5 -25.5t-6.5 -22.5v-680h-244z" />
<glyph unicode="i" horiz-adv-x="580" d="M119 1600q0 102 113 138h10q127 0 166 -112v-13q0 -83 -52 -135q-55 -27 -101 -27q-80 0 -127 87q-9 35 -9 62zM140 214v1092h244v-1092h-244z" />
<glyph unicode="j" horiz-adv-x="628" d="M28 -110l4 16v28l4 8q0 31 4 48v24l4 8v12l8 80q41 -11 67 -11q46 0 65 27v1180h240v-1196q1 -12 1.5 -23t0.5 -22q0 -63 -14 -111q-85 -89 -229 -89q-71 0 -155 21zM162 1599q0 110 114 147h7q136 0 169 -124q0 -130 -112 -164q-8 -1 -16 -1.5t-16 -0.5q-99 0 -140 90 q-6 29 -6 53z" />
<glyph unicode="k" horiz-adv-x="1172" d="M132 218v1528h244v-856l20 16l16 20l24 24l8 4q4 7 8 8l44 48l12 16l40 36q10 14 20 23.5t20 16.5l24 24q13 19 28 28l24 24l8 12l12 8l8 12l8 8l12 8l4 8q18 24 36 40l8 4q8 10 14.5 18t13.5 14h320l-4 -8l-8 -8l-8 -4l-4 -8l-8 -4q-8 -10 -14.5 -18t-13.5 -14l-20 -16 l-12 -20l-8 -4q-4 -7 -8 -8q-31 -39 -60 -60q-4 -7 -8 -8q-14 -19 -28 -32.5t-28 -23.5l-12 -16l-28 -24l-12 -16l-20 -20l-16 -12l-8 -12l-12 -8l-4 -8l-12 -8l-20 -20l-4 -8l-8 -4q-10 -14 -20 -23.5t-20 -16.5l12 -28l16 -24l12 -12l4 -8q14 -19 20 -32l12 -12l4 -12 q4 -3 4 -6v-2q30 -33 40 -60q30 -33 40 -60l16 -16l8 -20l16 -16q16 -28 32 -48l12 -16l12 -20l12 -16l8 -16l12 -16l64 -96l4 -12l8 -4l8 -12q19 -28 33 -52t23 -44h-264l-12 24q-2 2 -3 3.5t-1 3.5v1q-31 36 -44 60l-12 16l-12 20q-10 14 -16.5 26t-11.5 22l-12 12l-12 16 l-8 16l-12 16l-12 20q-26 33 -36 56l-12 16q-16 18 -20 32l-12 12l-16 28l-32 48q-2 2 -3 3.5t-1 3.5v1q-10 11 -18 21t-14 19q-4 -7 -8 -8l-8 -16l-36 -32q-4 -7 -8 -8l-4 -8l-24 -20q-22 -36 -52 -56v-348h-244z" />
<glyph unicode="l" horiz-adv-x="672" d="M144 414v1336h244v-1108q-1 -13 -1 -25v-23q0 -68 9 -116q43 -55 132 -55q38 0 88 11v-24l4 -12l8 -56v-24l4 -8v-24l12 -68q-111 -27 -198 -27q-232 0 -298 191q-1 10 -1.5 18t-2.5 14z" />
<glyph unicode="m" horiz-adv-x="1780" d="M132 222v1092h248v-80q111 83 232 96h4q194 0 296 -136q140 135 298 135q38 0 76 -8t78 -23q117 -49 180 -144l4 -8l8 -24l4 -8l24 -76q2 -23 3 -43t1 -37v-736h-240v680l-8 68q-13 22 -16 44q-59 95 -140 95q-49 0 -108 -35q-59 -44 -84 -100l-8 -48v-704h-244v708 l-4 36l-8 16v12q-10 16 -17 29.5t-11 26.5q-56 53 -124 56q-131 -18 -188 -124l-8 -28l-4 -44q3 -8 4 -14.5t1 -13.5q0 -8 -1 -12v-648h-248z" />
<glyph unicode="n" horiz-adv-x="1212" d="M156 222v1092h240v-92q112 100 244 120h18q268 0 378 -224v-12q13 -24 16 -48v-836h-244v708l-4 24q-50 151 -168 151q-36 0 -80 -15q-100 -43 -144 -136l-16 -68v-664h-240z" />
<glyph unicode="o" horiz-adv-x="1284" d="M87 721.5v26.5q0 500 457 602q9 1 18 1h18q324 0 484 -257q69 -165 69 -325q0 -98 -25 -191q-69 -298 -348 -372q-41 -11 -80 -15.5t-77 -5.5q-148 0 -271 81q-231 161 -244 428q-1 14 -1 27.5zM333 775q0 -29 3 -61q33 -268 272 -292q245 23 272 256q4 30 7 58 q2 21 2 41v13q0 303 -301 324q-255 -63 -255 -339z" />
<glyph unicode="p" horiz-adv-x="1284" d="M144 -122v1436h240v-84q103 84 224 104h68q26 0 48.5 -2.5t39.5 -5.5q387 -141 387 -546q0 -36 -3 -74q-27 -350 -312 -476q-97 -36 -186 -36q-148 0 -266 100v-416h-240zM387 721q0 -143 69 -227q86 -60 168 -60q65 0 128 36q147 108 147 287q0 24 -3 49 q-46 259 -284 280q-221 -45 -221 -246v-17q0 -8 1 -17q-3 -23 -4 -44t-1 -41z" />
<glyph unicode="q" horiz-adv-x="1280" d="M134 776q0 447 438 558q6 0 12 0.5t12 0.5q178 0 296 -105q6 32 6 57q0 6 -0.5 12t-1.5 11h240v-1432h-240v416q-133 -103 -272 -103q-74 0 -156 31q-269 110 -320 380q-8 47 -11 89.5t-3 84.5zM384 738q21 -204 180 -292q53 -10 100 -10q229 0 229 258v14q0 7 -1 14 q6 45 6 83q0 272 -278 277q-236 -73 -236 -334v-10z" />
<glyph unicode="r" horiz-adv-x="868" d="M160 222v1088h244v-61q0 -28 4 -47q116 132 280 132h52v-256q-8 1 -17 1h-17q-199 0 -286 -165l-12 -64l-4 -28v-600h-244z" />
<glyph unicode="s" horiz-adv-x="1048" d="M32 382l8 16l20 20q20 24 36 36q4 7 8 8l8 12q4 7 8 8l4 8l8 4l52 60q148 -140 310 -140q68 0 138 24q18 24 36 36q6 24 6 45q0 52 -34 87l-92 32q-412 25 -448 352q27 329 372 352h14q265 0 438 -164l-12 -16l-12 -12l-12 -8l-16 -24l-8 -8l-8 -4q-13 -18 -24 -28 l-52 -60q-166 107 -275 107q-112 0 -165 -111q2 -65 52 -96q22 -6 32 -12q39 -6 64 -16q379 -28 424 -304q2 -12 2 -23.5v-22.5q0 -201 -170 -302q-122 -55 -245 -55q-234 0 -467 199z" />
<glyph unicode="t" horiz-adv-x="876" d="M60 1102v208h192v348l16 8l32 8l12 8l20 4q5 4 12 4q5 4 12 4q5 4 12 4l12 8l32 8q4 4 7 4h1q4 4 7 4h1l60 24q8 -10 8 -20v-416h288v-208h-288v-560q0 -19 1 -34.5t3 -29.5q58 -52 137 -52q55 0 119 24l4 -12v-24q2 -9 3 -17.5t1 -16.5v-10q4 -11 5.5 -21.5t2.5 -18.5 l12 -100q-62 -15 -116.5 -23t-102.5 -8q-195 0 -281 127l-4 8l-8 24q-11 26 -16 48v12q-2 21 -3 38.5t-1 32.5v613h-192z" />
<glyph unicode="u" horiz-adv-x="1248" d="M147 511v9q0 5 1 10v780h240v-692q4 -5 4 -12q4 -3 4 -6v-2q7 -45 20 -80q69 -96 177 -96h3q134 36 188 148v12l16 48v680h244v-1092h-244v88q-144 -118 -287 -118q-111 0 -225 70q-93 71 -128 168l-4 28q-9 29 -9 57z" />
<glyph unicode="v" horiz-adv-x="1060" d="M28 1322h256v-16l8 -12v-12q15 -29 20 -52v-12q12 -22 16 -44l4 -12q11 -26 12 -44q17 -37 24 -64l4 -24q16 -31 20 -56l4 -20l12 -24l8 -28l4 -8l4 -12l8 -40q12 -19 12 -36l20 -52v-12l8 -12l4 -28q4 -5 4 -12l8 -16l8 -32q4 -3 4 -6v-2q7 -33 24 -56l12 48l12 36l4 16 l12 28l20 72l16 48l20 56q7 37 20 64l16 56l4 16l8 12l8 28l4 8l16 64l8 12v12l4 8l24 76l4 16q8 19 13 34.5t7 29.5l20 4h240l-8 -32q-9 -20 -12 -32l-16 -48l-4 -16l-4 -12l-4 -16l-12 -28l-20 -72q-5 -11 -9.5 -22t-6.5 -22l-20 -68l-8 -24l-4 -8q-12 -46 -24 -72l-8 -28 l-4 -12l-4 -16l-12 -36l-4 -16l-32 -100l-4 -8q-12 -46 -24 -72l-4 -24l-8 -12l-4 -24l-12 -36l-20 -52l-4 -24l-24 -68l-28 -88h-296l-8 32q-12 22 -16 44l-4 12q-6 21 -12 32v12l-12 28v12q-11 17 -12 32l-8 28q-16 38 -24 68l-8 32q-4 5 -4 12l-24 64v12q-15 29 -16 52 q-4 5 -4 12q-7 14 -12 26t-8 22l-4 28q-7 13 -8 24q-4 5 -4 12q-2 2 -3 3.5t-1 3.5v1q-22 52 -28 92q-7 12 -8 20l-8 16l-16 64l-8 16l-16 56l-8 16l-4 16q-2 10 -5.5 18t-6.5 14v16q-4 5 -4 12q-7 14 -12 26t-8 22v12q-19 37 -20 68z" />
<glyph unicode="w" horiz-adv-x="1592" d="M48 1306h252l4 -24q7 -19 11 -34.5t5 -29.5q12 -33 12 -56l4 -16q4 -5 4 -12l24 -96l8 -40l8 -20v-12q7 -19 11 -36t5 -32l4 -20q16 -36 16 -68l4 -16l8 -16l4 -28q8 -21 8 -36v-4l8 -32q4 -3 4 -6v-2l20 -92l4 8l8 24q5 30 12 48l4 28q5 28 12 44q1 11 2.5 21.5 t5.5 18.5v12l4 8l12 60l8 24l4 24q10 33 12 56l8 16v20l4 16l16 52v16q11 30 12 52q10 33 12 56l4 12l4 20l4 12l16 76l24 4h248l8 -28v-12l20 -72l8 -48l12 -40l8 -48q8 -19 11 -35t5 -29l4 -24q4 -5 4 -12l28 -116l4 -16v-16l8 -24l4 -28l20 -68l16 -84q6 -15 12 -24l8 32 v12l4 12l16 76l8 28l4 24l4 12l4 8q5 30 12 48v12l8 28l16 72l8 16v20l8 16l4 24l4 20l4 12l16 76l4 8l12 48l4 12v16l16 48q1 12 2.5 23t5.5 21h252l-8 -24l-4 -28l-4 -8l-28 -108l-4 -8l-20 -80l-8 -24l-24 -92l-8 -28l-12 -28l-4 -28l-8 -32l-4 -8l-8 -24l-24 -96l-4 -12 l-4 -8l-24 -92l-4 -12q-10 -47 -24 -76l-4 -16l-4 -28l-8 -24l-20 -72l-8 -32l-4 -8l-24 -92h-272l-8 28l-4 32l-4 12v12q-10 23 -12 48q-10 32 -12 60l-8 24v12q-14 35 -16 68l-4 20l-8 24l-4 28l-8 24l-4 16v16q-14 35 -16 68l-12 40v16q-9 22 -12 40q-6 43 -16 68 q-5 36 -16 60q-4 -28 -7.5 -49.5t-8.5 -38.5l-12 -56l-8 -32l-16 -84l-8 -20l-4 -28l-12 -56l-4 -24l-8 -16l-4 -20q-2 -15 -4 -27t-4 -21l-8 -40l-4 -16l-4 -20l-4 -12l-4 -28l-4 -12l-8 -28v-12q-7 -25 -8 -40q-4 -10 -5.5 -19t-2.5 -17h-272q-16 49 -20 80q-11 20 -12 32 v12q-2 2 -3 3.5t-1 3.5v1l-20 64q-5 22 -10 40t-10 32l-4 28q-10 22 -12 44q-2 2 -3 3.5t-1 3.5v1q-7 19 -11 34t-5 26l-16 56l-4 20q-4 5 -4 12q-11 20 -12 32v12q-2 2 -3 3.5t-1 3.5v1l-20 64q-4 23 -9 41.5t-11 34.5l-4 24l-8 20l-4 20l-4 8v12q-12 23 -12 40l-8 16 l-4 20l-12 44l-4 16l-4 12l-4 24q-4 5 -4 12l-4 12l-12 32v12q-17 47 -20 76z" />
<glyph unicode="x" horiz-adv-x="1128" d="M32 218l12 24l16 24l8 8l40 68l16 24l16 16l8 20l8 8l16 24l20 36l12 16l40 60l12 12l8 20l12 16l8 12l12 16l16 24l4 12l8 12l8 8l24 36q7 10 12.5 18t11.5 14q9 23 24 40l-12 28l-36 52l-12 24l-16 16l-12 20l-12 16l-8 20l-12 16l-8 8l-8 12l-4 12q-10 11 -18 21 t-14 19l-24 40l-12 16l-4 12q-7 5 -8 12l-12 12l-8 16l-8 8l-4 12q-2 2 -3 3.5t-1 3.5v1q-30 33 -40 60q-30 33 -40 60h280l12 -20l8 -16l12 -12l8 -20l12 -12q15 -23 20 -36l8 -12l12 -12l4 -12l12 -12l4 -12l16 -24l12 -12l4 -12l8 -8l4 -12l44 -56q21 43 44 68l4 8l36 56 l20 32l8 8l8 12l4 12l12 12l4 12l8 8l16 20q14 32 32 52h276l-12 -28l-32 -40q-18 -39 -40 -64l-12 -20l-4 -8l-32 -44l-24 -44l-16 -16l-8 -16l-8 -12l-12 -20q-8 -14 -16 -25t-16 -19l-4 -12l-24 -32l-4 -8q-4 -7 -8 -8l-12 -24q-26 -45 -48 -68l4 -16l8 -16q7 -5 8 -12 l12 -12l8 -16l8 -12q14 -16 20 -32l8 -8l16 -28q4 -3 4 -6v-2q30 -33 40 -60l12 -16l8 -8l44 -68l12 -20l12 -16q10 -14 16.5 -26t11.5 -22q7 -5 8 -12l16 -24q4 -3 4 -6v-2q10 -11 18 -21t14 -19l16 -24l4 -12q14 -17 24.5 -33t15.5 -31h-276l-16 20l-8 20l-16 20l-8 16 l-12 12q-8 13 -15 23t-13 17l-4 8l-36 56q-8 11 -14 21.5t-10 18.5q-7 4 -8 8l-8 8l-8 12l-56 92l-12 4l-8 -20l-8 -4q-5 -12 -11 -22t-13 -18l-12 -16l-4 -12l-8 -4q-16 -32 -28 -48l-12 -12l-8 -20l-8 -12l-8 -4q-10 -23 -24 -40l-8 -12q-4 -7 -8 -8l-8 -12l-12 -24 l-8 -12q-23 -31 -36 -56h-276z" />
<glyph unicode="y" horiz-adv-x="1064" d="M16 1306h256l12 -28l8 -32l8 -28q17 -33 20 -60l12 -24l4 -24q11 -23 18.5 -44t9.5 -40q7 -13 8 -24q16 -31 20 -56l8 -28q7 -12 8 -20l8 -16l4 -16l4 -8l8 -36l8 -16l8 -20l4 -12l4 -16l8 -24q6 -21 12 -32v-12q4 -5 4 -12q11 -17 12 -32l24 -64l8 28l12 28v12l8 24 l20 52l8 28l16 48l4 24l4 12l12 28l12 44q13 27 16 52q5 11 9.5 22t6.5 22l28 80l4 16l8 28l4 12l4 16l4 12l8 12v12q5 11 9.5 22t6.5 22l20 68h260l-4 -24l-8 -12q-2 -11 -4 -16l-32 -100q-8 -26 -16 -44v-12q-5 -11 -9.5 -22t-6.5 -22l-8 -16l-4 -20l-4 -16l-12 -36 q-9 -20 -12 -32l-12 -28q-7 -43 -24 -72l-24 -72l-4 -28l-8 -12l-4 -24l-8 -24l-20 -56l-8 -20l-4 -16l-12 -36l-4 -8q-12 -46 -24 -72l-4 -20l-4 -12q-20 -42 -24 -76l-8 -20l-8 -24l-8 -20l-8 -24l-12 -44l-8 -16q-10 -42 -24 -68l-4 -24l-12 -28l-12 -44l-20 -44l-4 -16 l-4 -8q-33 -49 -64 -76q-60 -26 -118.5 -39t-117.5 -13q-90 0 -180 32l12 68l4 12v12q4 12 5.5 23t2.5 21l4 12l12 52q77 -27 133 -27q95 0 131 79v32l-8 28q-11 23 -18.5 44t-9.5 40l-12 28l-8 32q-15 26 -16 48l-12 28l-8 24l-4 24l-12 24l-8 28l-8 32l-12 28l-12 40l-4 8 l-36 112q-6 21 -12 32v12q-2 2 -3 3.5t-1 3.5v1l-24 64l-4 24q-13 27 -20.5 51t-11.5 45q-7 12 -8 20l-4 16q-16 38 -24 68l-4 8l-8 36l-8 12l-4 16l-16 52l-4 8z" />
<glyph unicode="z" horiz-adv-x="1052" d="M76 218v208l16 20l20 24l16 24l24 24l16 28l8 8l4 8l8 4l4 12q21 20 32 40l8 4l40 60l16 20l16 16l16 20l12 16l16 20l12 16l12 20l12 16l8 8l4 8l8 4l4 12q21 20 32 40l24 24l8 16l8 8l8 12q12 16 24 28l4 12l8 8l24 28l8 12l4 8q11 11 19 21.5t13 18.5h-468v212h788 v-204q-7 -8 -12 -15t-8 -13q-15 -15 -20 -24q-7 -8 -12 -15t-8 -13l-24 -24l-16 -24l-4 -8l-16 -20l-8 -4q-10 -19 -21 -32.5t-23 -23.5q-26 -45 -48 -68l-12 -16l-16 -20l-16 -16l-12 -16l-8 -16l-8 -8l-28 -36l-8 -12l-8 -8l-28 -40l-8 -8l-40 -52l-20 -20l-4 -12l-8 -8 l-4 -8l-12 -8l-12 -24l-8 -8l-40 -52h548v-212h-864z" />
<glyph unicode="{" />
<glyph unicode="|" />
<glyph unicode="}" />
<glyph unicode="~" />
<glyph unicode="&#xa0;" />
<glyph unicode="&#xa1;" />
<glyph unicode="&#xa2;" />
<glyph unicode="&#xa3;" horiz-adv-x="1452" d="M76 458q197 79 232 276v32q0 15 -1 28t-3 24h-184v184h92q-73 136 -73 268q0 110 49 212q128 272 408 300q477 -12 536 -456l-56 -8l-16 -4h-32l-20 -4h-12l-12 -4h-12q-9 -2 -18 -3t-18 -1h-8q-11 -4 -21.5 -5.5t-18.5 -2.5q-29 201 -212 244q-290 -15 -290 -270 q0 -11 0.5 -22.5t1.5 -23.5l12 -48q4 -5 4 -12q10 -13 17 -25t11 -23q49 -52 64 -112h416v-184h-360q0 -7 0.5 -13.5t0.5 -13.5q0 -84 -17.5 -157.5t-51.5 -139.5h12l116 -16q153 -49 301 -49q121 0 235 33l8 -24l16 -72q11 -26 12 -44l8 -32l20 -60v-4q-164 -41 -316 -41 q-180 0 -348 57h-24l-8 4h-12l-48 8h-136l-12 -4q-21 0 -32 -4l-44 -4q-4 -4 -6 -4h-14q-20 -8 -37.5 -13t-34.5 -7v12q-11 17 -12 32l-4 16l-4 12l-4 24q-4 5 -4 12l-4 12l-4 8v12q-19 39 -20 72q-4 7 -5.5 14t-2.5 14z" />
<glyph unicode="&#xa4;" />
<glyph unicode="&#xa5;" />
<glyph unicode="&#xa6;" />
<glyph unicode="&#xa7;" />
<glyph unicode="&#xa8;" />
<glyph unicode="&#xa9;" />
<glyph unicode="&#xaa;" />
<glyph unicode="&#xab;" />
<glyph unicode="&#xac;" />
<glyph unicode="&#xad;" horiz-adv-x="712" d="M75 762v228h472v-224l-28 -4h-444z" />
<glyph unicode="&#xae;" />
<glyph unicode="&#xaf;" />
<glyph unicode="&#xb0;" />
<glyph unicode="&#xb1;" />
<glyph unicode="&#xb2;" />
<glyph unicode="&#xb3;" />
<glyph unicode="&#xb4;" />
<glyph unicode="&#xb6;" />
<glyph unicode="&#xb7;" horiz-adv-x="572" d="M113 900q0 80 115 134q5 0 8.5 0.5t7.5 0.5q125 0 164 -113q-6 -179 -128 -179q-44 0 -104 23q-63 75 -63 134z" />
<glyph unicode="&#xb8;" />
<glyph unicode="&#xb9;" />
<glyph unicode="&#xba;" />
<glyph unicode="&#xbb;" />
<glyph unicode="&#xbc;" horiz-adv-x="1332" d="M52 1526v160q23 -3 41 -3q138 0 143 143h141q28 0 47 -4v-1056h-224v760h-148zM320 326v216l8 8l4 8l8 8l8 4q17 27 40 44l16 24l20 20l20 24l8 8l4 8l8 8l8 4q21 29 40 44l16 24l28 28l60 72l20 16l24 32l24 24q4 7 8 8l40 48l16 12l8 12l12 12q10 17 24 28l8 12l12 12 q12 16 24 28l8 4q8 15 16 24l8 8l8 4q11 22 24 32h248v-672h132v-196h-132v-192h-220v192h-608zM580 526h352v345q0 28 -4 47l-20 -24l-12 -16l-8 -4q-17 -23 -33.5 -41t-30.5 -31q-4 -7 -8 -8l-40 -48l-36 -40l-12 -12q-4 -7 -8 -8q-23 -30 -44 -48l-4 -8l-8 -8l-8 -12 l-16 -16q-17 -14 -24 -28q-25 -22 -36 -40z" />
<glyph unicode="&#xbd;" horiz-adv-x="1432" d="M0 1530v156q10 -1 19 -1.5t17 -0.5q140 0 148 142h184v-1056h-220v760h-148zM489 840q0 52 8.5 99.5t26.5 90.5q119 182 328 188q8 1 16 1h16q320 0 384 -289q9 -42 9 -82q0 -26 -3.5 -50t-9.5 -48l-4 -12l-32 -72l-8 -8l-4 -8q-17 -29 -36.5 -52t-39.5 -40q-4 -7 -8 -8 l-4 -8l-8 -8l-36 -32q-20 -27 -44 -40q-4 -7 -8 -8l-8 -12l-8 -8l-24 -16l-12 -12l-28 -24l-12 -4q-24 -26 -48 -40h380v-168q-2 -20 -8 -32h-772v204l12 4l12 8l12 4l40 16l12 12l40 16q17 16 36 20q11 13 24 20l16 4q5 7 12 8q11 11 22 19t22 13l8 8l12 4l16 16 q17 10 31 19.5t25 20.5q197 126 204 288q-1 122 -108 168q-25 3 -49 3q-182 0 -182 -185q0 -25 3 -54h-220q-3 35 -3 66z" />
<glyph unicode="&#xbe;" horiz-adv-x="1608" d="M52 1050v60h36q5 4 12 4h20l12 4h12q40 1 68 8h32l28 4v-12q0 -181 170 -181q23 0 50 3t56 10q64 52 64 123v12q0 76 -64 105l-8 4l-28 8h-12l-12 4h-116v176q18 -2 34 -3t31 -1q162 0 175 108q-20 140 -154 140h-14q-160 -19 -168 -164h-24l-12 4h-24l-12 4h-20l-8 4 h-28l-12 4q-23 1 -41.5 2.5t-34.5 5.5q40 326 360 340q11 1 20 1h21q257 0 347 -181q25 -66 25 -127q0 -120 -101 -205q111 -82 111 -207q0 -20 -3 -41q-10 -190 -156 -276q-116 -50 -233 -50q-26 0 -51.5 2.5t-51.5 7.5q-266 41 -296 300zM600 326v216l24 20l16 24l12 8 l4 8l8 12l44 44l20 24q12 16 24 28l36 40l8 8l40 48l20 16q7 12 16 20l4 8l8 4l4 12q25 22 36 40l12 12q16 16 28 29.5t20 26.5l16 12l12 16l12 12l24 32l12 8l8 12l12 8l12 16l8 12l8 4l16 24l8 4l48 60h252v-672h128v-196h-128v-192h-220v192h-612zM860 526h348v341 q0 28 -4 47l-16 -16l-8 -20l-20 -16l-16 -12l-16 -24l-44 -48l-16 -20l-12 -12q-18 -21 -32 -32l-12 -12l-8 -12l-12 -12q-10 -17 -24 -28l-8 -12l-12 -12q-12 -16 -24 -28l-8 -4q-8 -15 -16 -24l-8 -4q-17 -26 -32 -40z" />
<glyph unicode="&#xbf;" />
<glyph unicode="&#xc0;" />
<glyph unicode="&#xc1;" />
<glyph unicode="&#xc2;" />
<glyph unicode="&#xc3;" />
<glyph unicode="&#xc4;" />
<glyph unicode="&#xc5;" />
<glyph unicode="&#xc6;" />
<glyph unicode="&#xc7;" />
<glyph unicode="&#xc8;" />
<glyph unicode="&#xc9;" />
<glyph unicode="&#xca;" />
<glyph unicode="&#xcb;" />
<glyph unicode="&#xcc;" />
<glyph unicode="&#xcd;" />
<glyph unicode="&#xce;" />
<glyph unicode="&#xcf;" />
<glyph unicode="&#xd0;" />
<glyph unicode="&#xd1;" />
<glyph unicode="&#xd2;" />
<glyph unicode="&#xd3;" />
<glyph unicode="&#xd4;" />
<glyph unicode="&#xd5;" />
<glyph unicode="&#xd6;" />
<glyph unicode="&#xd7;" />
<glyph unicode="&#xd8;" />
<glyph unicode="&#xd9;" />
<glyph unicode="&#xda;" />
<glyph unicode="&#xdb;" />
<glyph unicode="&#xdc;" />
<glyph unicode="&#xdd;" />
<glyph unicode="&#xde;" />
<glyph unicode="&#xdf;" />
<glyph unicode="&#xe0;" />
<glyph unicode="&#xe1;" />
<glyph unicode="&#xe2;" />
<glyph unicode="&#xe3;" />
<glyph unicode="&#xe4;" />
<glyph unicode="&#xe5;" />
<glyph unicode="&#xe6;" />
<glyph unicode="&#xe7;" />
<glyph unicode="&#xe8;" />
<glyph unicode="&#xe9;" />
<glyph unicode="&#xea;" />
<glyph unicode="&#xeb;" />
<glyph unicode="&#xec;" />
<glyph unicode="&#xed;" />
<glyph unicode="&#xee;" />
<glyph unicode="&#xef;" />
<glyph unicode="&#xf0;" />
<glyph unicode="&#xf1;" />
<glyph unicode="&#xf2;" />
<glyph unicode="&#xf3;" />
<glyph unicode="&#xf4;" />
<glyph unicode="&#xf5;" />
<glyph unicode="&#xf6;" />
<glyph unicode="&#xf7;" />
<glyph unicode="&#xf8;" />
<glyph unicode="&#xf9;" />
<glyph unicode="&#xfa;" />
<glyph unicode="&#xfb;" />
<glyph unicode="&#xfc;" />
<glyph unicode="&#xfd;" />
<glyph unicode="&#xfe;" />
<glyph unicode="&#xff;" />
<glyph unicode="&#x152;" />
<glyph unicode="&#x153;" />
<glyph unicode="&#x178;" />
<glyph unicode="&#x2c6;" />
<glyph unicode="&#x2dc;" />
<glyph unicode="&#x2000;" horiz-adv-x="1001" />
<glyph unicode="&#x2001;" horiz-adv-x="2002" />
<glyph unicode="&#x2002;" horiz-adv-x="1001" />
<glyph unicode="&#x2003;" horiz-adv-x="2002" />
<glyph unicode="&#x2004;" horiz-adv-x="667" />
<glyph unicode="&#x2005;" horiz-adv-x="500" />
<glyph unicode="&#x2006;" horiz-adv-x="333" />
<glyph unicode="&#x2007;" horiz-adv-x="333" />
<glyph unicode="&#x2008;" horiz-adv-x="250" />
<glyph unicode="&#x2009;" horiz-adv-x="400" />
<glyph unicode="&#x200a;" horiz-adv-x="111" />
<glyph unicode="&#x2010;" horiz-adv-x="712" d="M75 762v228h472v-224l-28 -4h-444z" />
<glyph unicode="&#x2011;" horiz-adv-x="712" d="M75 762v228h472v-224l-28 -4h-444z" />
<glyph unicode="&#x2012;" horiz-adv-x="712" d="M75 762v228h472v-224l-28 -4h-444z" />
<glyph unicode="&#x2013;" />
<glyph unicode="&#x2014;" />
<glyph unicode="&#x2018;" />
<glyph unicode="&#x2019;" />
<glyph unicode="&#x201a;" />
<glyph unicode="&#x201c;" />
<glyph unicode="&#x201d;" />
<glyph unicode="&#x201e;" />
<glyph unicode="&#x2022;" />
<glyph unicode="&#x2026;" />
<glyph unicode="&#x202f;" horiz-adv-x="400" />
<glyph unicode="&#x2039;" />
<glyph unicode="&#x203a;" />
<glyph unicode="&#x205f;" horiz-adv-x="500" />
<glyph unicode="&#x2122;" />
<glyph unicode="&#xe000;" horiz-adv-x="1305" d="M0 0v1305h1305v-1305h-1305z" />
</font>
</defs>
</svg>
